<?xml version="1.0" standalone="no"?>
<!DOCTYPE svg PUBLIC "-//W3C//DTD SVG 1.1//EN" "http://www.w3.org/Graphics/SVG/1.1/DTD/svg11.dtd" >
<svg xmlns="http://www.w3.org/2000/svg">
<metadata>Generated by IcoMoon</metadata>
<defs>
<font id="icomoon" horiz-adv-x="1024">
<font-face units-per-em="1024" ascent="960" descent="-64" />
<missing-glyph horiz-adv-x="1024" />
<glyph unicode="&#x20;" horiz-adv-x="512" d="" />
<glyph unicode="&#xe800;" glyph-name="icon-air-travel" d="M101.146 37.146h50.573l404.583 354.010 404.583 404.583c0 0 96.948 105.343 50.573 151.719s-151.719-50.573-151.719-50.573l-404.583-404.583-354.010-404.583v-50.573zM50.573 896.885l606.875-151.719 151.719-151.719 101.146-606.875-50.573-50.573-202.292 505.729-151.719 151.719-505.729 252.864zM50.573 239.437h202.292l50.573-50.573v-202.292l-50.573-50.573-50.573 202.292-202.292 50.573z" />
<glyph unicode="&#xe801;" glyph-name="icon-bio-carbon" horiz-adv-x="755" d="M269.474-64h215.579c0 0-53.895 38.157-53.895 107.789 0 30.289 0 215.579 0 215.579l161.684 215.579h-53.895l-161.684-161.684v161.684l-53.895 53.895v-161.684l-107.789 107.789h-53.895l161.684-215.579c0 0 0-168.421 0-215.579 0-85.315-53.895-107.789-53.895-107.789zM538.947 474.947c0 59.554 48.236 107.789 107.789 107.789s107.789-48.236 107.789-107.789-48.236-107.789-107.789-107.789-107.789 48.236-107.789 107.789zM323.368 555.789c0 74.429 60.308 134.737 134.737 134.737s134.737-60.308 134.737-134.737-60.308-134.737-134.737-134.737-134.737 60.308-134.737 134.737zM161.684 582.737c0 89.304 72.381 161.684 161.684 161.684s161.684-72.381 161.684-161.684-72.381-161.684-161.684-161.684-161.684 72.381-161.684 161.684zM215.579 825.263c0 74.429 60.308 134.737 134.737 134.737s134.737-60.308 134.737-134.737-60.308-134.737-134.737-134.737-134.737 60.308-134.737 134.737zM0 528.842c0 59.554 48.236 107.789 107.789 107.789s107.789-48.236 107.789-107.789-48.236-107.789-107.789-107.789-107.789 48.236-107.789 107.789zM53.895 744.421c0 59.554 48.236 107.789 107.789 107.789s107.789-48.236 107.789-107.789-48.236-107.789-107.789-107.789-107.789 48.236-107.789 107.789zM269.474 690.526c0 119.053 96.525 215.579 215.579 215.579s215.579-96.525 215.579-215.579-96.525-215.579-215.579-215.579-215.579 96.525-215.579 215.579z" />
<glyph unicode="&#xe802;" glyph-name="icon-bio-energy-stationary-combustion" horiz-adv-x="683" d="M202.24-43.748c-61.781 30.265-202.24 153.145-202.24 277.049 0 316.53 255.602 437.646 269.653 726.699 235.975-209.18 269.653-495.502 269.653-495.502 28.103 49.55 67.413 165.148 67.413 165.148 58.994-121.116 92.672-300.032 67.413-396.402-38.229-145.92-117.931-247.694-202.24-297.244 67.413 242.233-168.562 429.397-168.562 429.397s-146.034-177.948-101.092-409.145z" />
<glyph unicode="&#xe803;" glyph-name="icon-bio-energy-transportation" horiz-adv-x="1229" d="M887.467 960h-546.133l-273.067-477.867v-409.6h1092.267v409.6l-273.067 477.867zM341.333 823.467h546.133l136.533-273.067h-819.2l136.533 273.067zM307.2 209.067c-56.593 0-102.4 45.807-102.4 102.4s45.807 102.4 102.4 102.4 102.4-45.807 102.4-102.4-45.807-102.4-102.4-102.4zM921.6 209.067c-56.593 0-102.4 45.807-102.4 102.4s45.807 102.4 102.4 102.4 102.4-45.807 102.4-102.4-45.807-102.4-102.4-102.4zM273.067-64h-136.533v204.8h136.533zM1092.267-64h-136.533v204.8h136.533zM136.533 550.4l-136.533 68.267v68.267h136.533zM1228.8 618.667l-136.533-68.267v136.533h136.533z" />
<glyph unicode="&#xe804;" glyph-name="icon-bio" horiz-adv-x="1033" d="M554.394-64c0 0 68.267 116.599 68.267 204.8 0 38.366 0 72.499 0 136.533s68.267 273.067 68.267 273.067h-68.267l-68.267-352.734-204.8 352.734c0 0 136.533-354.167 136.533-409.6s0-76.8 0-136.533c0-51.2 68.267-68.267 68.267-68.267zM349.594 550.4l136.533-136.533c17.408-21.094 68.267-204.8 68.267-204.8s40.619 481.894-204.8 546.133c-238.933 62.601-341.333 204.8-341.333 204.8s-82.466-443.733 273.067-546.133c57.481-16.589 105.95-44.851 146.227-74.889-37.001 105.199-77.961 211.422-77.961 211.422zM554.394 209.067c0 0 62.054 215.381 204.8 273.067 295.799 119.467 273.067 273.067 273.067 273.067s-154.351 30.379-273.067 0c-244.599-62.601-204.8-546.133-204.8-546.133z" />
<glyph unicode="&#xe805;" glyph-name="icon-building-materials" horiz-adv-x="1479" d="M533.134 732.444c-37.547-133.86-134.428-359.31-345.372-396.629l38.116-286.037h515.356l93.696 682.667h-301.796zM435.228 732.444h-303.047l43.122-303.332c145.977 29.81 224.028 187.278 259.925 303.332zM607.374 732.444c0 0-4.722 113.778-113.778 113.778s-113.778-113.778-113.778-113.778h227.556zM749.596 106.667l28.444 170.667h170.667v-170.667zM834.93 334.222v170.667h341.333v-170.667zM1005.596 106.667v170.667h341.333v-170.667z" />
<glyph unicode="&#xe806;" glyph-name="icon-bus-travel" horiz-adv-x="1084" d="M903.529 960h-722.824l-120.471-542.118v-361.412h963.765v361.412l-120.471 542.118zM240.941 899.765h602.353l60.235-421.647h-722.824l60.235 421.647zM271.059 176.941c-49.935 0-90.353 40.418-90.353 90.353s40.418 90.353 90.353 90.353 90.353-40.418 90.353-90.353-40.418-90.353-90.353-90.353zM813.176 176.941c-49.935 0-90.353 40.418-90.353 90.353s40.418 90.353 90.353 90.353 90.353-40.418 90.353-90.353-40.418-90.353-90.353-90.353zM240.941-64h-120.471v180.706h120.471zM963.765-64h-120.471v180.706h120.471zM120.471 538.353h-120.471v301.176h120.471zM1084.235 538.353h-120.471v301.176h120.471z" />
<glyph unicode="&#xe807;" glyph-name="icon-commuting" horiz-adv-x="1168" d="M916.31 181.404h-675.919c-18.832 0-18.832 48.662 0 48.662h675.919c18.832 0 18.832-48.662 0-48.662zM426.671 328.558l-390.174-390.174c-10.852-10.852-45.305 23.553-34.404 34.404l390.174 390.174c10.9 10.852 45.305-23.553 34.404-34.404zM741.224 328.267l390.174-390.174c10.852-10.852 45.305 23.553 34.404 34.404l-390.174 390.174c-10.9 10.9-45.305-23.504-34.404-34.404zM1009.693 84.079h-862.733c-24.039 0-24.039 48.662 0 48.662h862.733c24.039 0 24.039-48.662 0-48.662zM1103.125-13.245h-1049.596c-29.246 0-29.246 48.662 0 48.662h1049.596c29.246 0 29.246-48.662 0-48.662zM837.916 960h-507.937c-22.336 0-41.801-15.183-47.202-36.837l-88.127-352.461 48.662-291.974h681.272l48.662 291.974-88.127 352.461c-5.402 21.655-24.866 36.837-47.202 36.837zM389.298 862.675h389.298l48.662-194.649h-486.623l48.662 194.649zM364.967 424.715c-40.341 0-72.993 32.652-72.993 72.993s32.652 72.993 72.993 72.993 72.993-32.652 72.993-72.993-32.652-72.993-72.993-72.993zM802.927 424.715c-40.341 0-72.993 32.652-72.993 72.993s32.652 72.993 72.993 72.993 72.993-32.652 72.993-72.993-32.652-72.993-72.993-72.993z" />
<glyph unicode="&#xe808;" glyph-name="icon-country" d="M512 960c-282.761 0-512-229.239-512-512s229.239-512 512-512 512 229.239 512 512-229.239 512-512 512zM887.945 682.564c-63.625 2.116-141.244-71.407-179.951-68.13-46.694 4.096-66.97 60.689-38.571 68.745 17.749 5.052 8.533 23.552-0.887 36.659-7.578 10.581-5.939 25.259 4.164 33.587 24.235 20.070 69.973 39.595 102.468 50.995 44.851-33.178 83.149-74.479 112.777-121.856zM462.302 180.053c-13.653-50.586-57.685-103.697-97.485-150.187-172.442 60.894-296.55 225.075-296.55 418.133 0 210.944 148.139 387.686 345.771 432.469 1.638-8.192 2.867-16.316 2.389-24.166-2.253-37.205-52.838-253.542-231.083-312.934-8.875-2.935-17.135-5.257-25.259-7.373 8.533-20.207 35.294-41.028 58.641-48.811 30.447-10.103 146.159 16.179 198.929-44.442s67.789-177.22 44.646-262.69zM477.867 482.133c-75.435 0-136.533 61.099-136.533 136.533s61.099 136.533 136.533 136.533 136.533-61.099 136.533-136.533-61.099-136.533-136.533-136.533zM588.732 827.494c-2.116 11.878 1.229 24.166 9.216 33.314l16.179 18.569c44.715-10.581 86.699-27.921 125.065-50.927-33.451-16.247-74.206-34.816-92.092-38.161-11.947-2.253-25.6 2.389-38.025 9.079-10.65 5.803-18.159 16.179-20.343 28.126zM776.26 92.399c7.851 59.597 15.633 127.795 12.902 144.179-16.247 97.007-72.158 32.358-152.235 121.242-80.009 88.951-10.103 173.875 87.313 208.213 66.082 23.279 163.703-3.755 219.819-23.62 6.827-30.515 11.674-61.781 11.674-94.413 0-145.613-70.793-274.637-179.473-355.601zM409.6 618.667c0 37.683 30.583 68.267 68.267 68.267s68.267-30.583 68.267-68.267-30.583-68.267-68.267-68.267-68.267 30.583-68.267 68.267z" />
<glyph unicode="&#xe809;" glyph-name="icon-csr-enviro" horiz-adv-x="832" d="M64 576v-288h33.344v97.344h30.656v30.656h224v-128h32v128h96v-96h32v96h96v-96h-128v-32h128v-96h-128v-32h128v-96h-128v-64h288c35.328 0 64 28.672 64 64v512h-768zM224 448h-96v64h96v-64zM352 448h-96v64h96v-64zM480 448h-96v64h96v-64zM608 448h-96v64h96v-64zM736 64h-96v96h96v-96zM736 192h-96v96h96v-96zM736 320h-96v96h96v-96zM736 448h-96v64h96v-64zM224 704v0c-17.664 0-32 14.336-32 32v192c0 17.664 14.336 32 32 32v0c17.664 0 32-14.336 32-32v-192c0-17.664-14.336-32-32-32zM768 832h-32v-93.696c0-35.904-28.736-65.152-64-65.152s-64 29.248-64 65.152v93.696h-320v-93.696c0-35.904-28.736-65.152-64-65.152s-64 29.248-64 65.152v93.696h-32c-35.328 0-64-29.184-64-65.152v-158.848h768v158.848c0 35.968-28.672 65.152-64 65.152zM672 704v0c-17.664 0-32 14.336-32 32v192c0 17.664 14.336 32 32 32v0c17.664 0 32-14.336 32-32v-192c0-17.664-14.336-32-32-32zM384 256h-64v96c0 17.664-14.336 32-32 32h-128c-17.664 0-32-14.336-32-32v-96h-64c-35.328 0-64-28.672-64-64v-192c0-35.328 28.672-64 64-64h320c35.328 0 64 28.672 64 64v192c0 35.328-28.672 64-64 64zM192 320h64v-64h-64v64zM320 64h-64v-64h-64v64h-64v64h64v64h64v-64h64v-64z" />
<glyph unicode="&#xe80a;" glyph-name="icon-emissions" horiz-adv-x="811" d="M759.511 539.729h-253.664l-11.182-120.092h276.079zM487.057 359.59l-40.235-423.539c27.062 3.217 54.123 0.817 81.134 5.412 95.737 16.441 195.609 35.435 283.023 75.875l-32.576 342.252h-291.346zM533.93 839.908c-0.664 0-1.225 0-1.889 0 0.919 0 1.276 5.77 0.919 10.825-2.808 41.767-47.843 75.109-97.064 75.109-29.972 0-53.051-14.348-63.876-33.75-8.884 3.166-18.075 4.646-27.368 4.851-36.61 0.766-59.944-23.59-57.391-54.072-11.386-2.349-21.496-6.127-30.329-11.131-7.199 5.259-14.654 9.957-22.568 13.429-10.774 17.718-30.278 30.891-49.17 31.708-23.692 1.021-36.763-17.769-30.278-41.358 0.102-0.357 0.306-0.715 0.408-1.072-8.578-12.050-11.029-28.747-5.617-47.69 10.059-35.282 45.137-67.96 82.308-77.508 24.253-46.209 77.151-88.333 136.584-103.14 76.794-19.198 141.639 12.407 140.924 77.56 10.927-4.697 22.67-8.476 35.129-10.62 59.535-10.314 111.514 19.862 111.514 65.663 0 48.353-57.238 101.2-122.237 101.2zM136.431 891.784c0-37.674-30.541-68.216-68.216-68.216s-68.216 30.541-68.216 68.216c0 37.674 30.541 68.216 68.216 68.216s68.216-30.541 68.216-68.216z" />
<glyph unicode="&#xe80b;" glyph-name="icon-group-transportation" horiz-adv-x="1536" d="M928 288h-864v544c0 35.328 28.672 64 64 64h736c35.328 0 64-28.672 64-64v-544zM1088 128c0-70.72 57.28-128 128-128s128 57.28 128 128-57.28 128-128 128-128-57.28-128-128zM192 128c0-70.72 57.28-128 128-128s128 57.28 128 128-57.28 128-128 128-128-57.28-128-128zM1300.672 768h-276.672c-35.328 0-64-28.672-64-64v-416h512v147.584c0 8.128-1.536 16.192-4.544 23.744l-107.392 268.416c-9.664 24.32-33.216 40.256-59.392 40.256zM1024 448v192h256l64-192h-320zM414.976 256c39.232-29.184 65.024-75.456 65.024-128h544v128h-609.024zM225.024 256h-161.024v-128h96c0 52.544 25.792 98.816 65.024 128zM1121.024 256h-161.024v-128h96c0 52.544 25.792 98.816 65.024 128zM1310.976 256c39.232-29.184 65.024-75.456 65.024-128h96v128h-161.024z" />
<glyph unicode="&#xe80c;" glyph-name="icon-health-and-safety" horiz-adv-x="1161" d="M1155.959 545.007c-0.546 3.755-1.161 7.509-1.707 11.264-3.072 20.002-7.236 39.595-12.766 58.709 0 0 0 0.068 0 0.137v0c-46.831 161.519-176.401 287.403-339.968 329.387v0c0 0 0 0-0.068 0-17.818 4.574-35.908 8.192-54.477 10.65-1.843 0.273-3.755 0.614-5.666 0.887-19.251 2.389-38.707 3.959-58.641 3.959-21.367 0-42.257-1.911-62.874-4.574-3.755-0.478-7.509-1.092-11.264-1.707-20.002-3.14-39.663-7.236-58.709-12.766 0 0 0 0-0.068 0v0c-161.792-46.763-287.812-176.606-329.591-340.446v0c-4.506-17.749-8.124-35.84-10.581-54.34-0.273-1.843-0.614-3.618-0.819-5.461-2.389-19.319-0.546-39.049-3.959-58.573-0.068-0.41 204.732 0.205 204.8 0 5.734-13.38 2.116 28.535 4.301 42.462 1.502 8.329 3.004 16.725 5.12 24.849 23.757 92.774 94.686 165.82 186.027 193.126 11.196 3.345 22.733 6.076 34.338 8.26 14.199 2.253 28.467 4.369 43.281 4.369 14.473 0 28.467-2.116 42.394-4.301 8.533-1.502 17.135-3.14 25.463-5.257 92.433-23.893 165.274-94.754 192.58-185.822 3.345-11.264 6.076-22.733 8.26-34.406 2.253-14.199 4.369-28.467 4.369-43.281 0-14.541-2.116-28.467-4.233-42.394-1.57-8.533-3.14-17.135-5.325-25.463-24.713-95.778-99.806-170.803-195.516-195.584v0c-8.397-2.185-16.998-3.823-25.668-5.325-13.858-2.185-27.853-4.301-42.325-4.301-0.478 0-0.956 0.137-1.434 0.137v-204.868c0.478 0 0.956-0.068 1.434-0.068 20.412 0 40.346 1.707 60.075 4.164 2.389 0.341 4.71 0.751 7.1 1.092 192.444 27.17 347.682 168.619 395.196 353.758 0 0 0 0.068 0 0.068 4.574 17.749 8.192 35.908 10.65 54.477 0.273 1.911 0.614 3.755 0.887 5.666 2.389 19.251 3.959 38.707 3.959 58.641 0 21.367-1.911 42.257-4.574 62.874zM386.048 557.909l-132.779 34.065c38.844 151.825 155.785 272.384 305.698 316.006l36.932-132.642c-103.014-30.652-183.091-112.913-209.852-217.429zM758.989 778.547l34.065 132.847c151.484-38.98 271.906-155.853 315.46-305.493l-132.71-36.932c-30.515 102.741-112.572 182.682-216.815 209.579zM796.467 53.76l-36.727 132.164c107.452 28.058 191.625 112.299 219.341 219.887l132.847-34.065c-39.868-154.829-161.109-276.89-315.46-317.986zM341.333 755.2c-37.683 0-68.267-30.583-68.267-68.267v-68.267h68.267v68.267h136.533v-68.267h68.267v68.267c0 37.683-30.583 68.267-68.267 68.267h-136.533zM750.933 618.667h-682.667c-37.683 0-68.267-38.229-68.267-85.333v-512c0-47.104 30.583-85.333 68.267-85.333h682.667c37.683 0 68.267 38.229 68.267 85.333v512c0 47.104-30.583 85.333-68.267 85.333zM614.4 209.067h-136.533v-136.533h-136.533v136.533h-136.533v136.533h136.533v136.533h136.533v-136.533h136.533v-136.533z" />
<glyph unicode="&#xe80d;" glyph-name="icon-key-information" horiz-adv-x="1088" d="M768 960c-176.704 0-320-143.296-320-320s143.296-320 320-320 320 143.296 320 320-143.296 320-320 320zM832 576c-70.656 0-128 57.344-128 128s57.344 128 128 128 128-57.344 128-128-57.344-128-128-128zM64 128l512 512 192-128-128-128v-64l-64-64-64 64-128-128v-64l-64-64h-64v-64l-64-64h-128l-64 64z" />
<glyph unicode="&#xe80e;" glyph-name="icon-kpi" horiz-adv-x="1088" d="M768 960c-176.704 0-320-143.296-320-320s143.296-320 320-320 320 143.296 320 320-143.296 320-320 320zM832 576c-70.656 0-128 57.344-128 128s57.344 128 128 128 128-57.344 128-128-57.344-128-128-128zM64 128l512 512 192-128-128-128v-64l-64-64-64 64-128-128v-64l-64-64h-64v-64l-64-64h-128l-64 64z" />
<glyph unicode="&#xe80f;" glyph-name="icon-land-use-changed" horiz-adv-x="953" d="M376.332-64h199.805c0 0-49.951 35.365-49.951 99.902 0 28.073 0 199.805 0 199.805l149.854 199.805h-49.951l-149.854-149.854v149.854l-49.951 49.951v-149.854l-99.902 99.902h-49.951l149.854-199.805c0 0 0-156.098 0-199.805 0-79.073-49.951-99.902-49.951-99.902zM626.089 435.512c0 55.196 44.706 99.902 99.902 99.902s99.902-44.706 99.902-99.902-44.706-99.902-99.902-99.902-99.902 44.706-99.902 99.902zM426.284 510.439c0 68.983 55.895 124.878 124.878 124.878s124.878-55.895 124.878-124.878-55.895-124.878-124.878-124.878-124.878 55.895-124.878 124.878zM276.43 535.415c0 82.769 67.084 149.854 149.854 149.854s149.854-67.084 149.854-149.854-67.084-149.854-149.854-149.854-149.854 67.084-149.854 149.854zM326.381 710.244c0 68.983 55.895 124.878 124.878 124.878s124.878-55.895 124.878-124.878-55.895-124.878-124.878-124.878-124.878 55.895-124.878 124.878zM126.576 485.463c0 55.196 44.706 99.902 99.902 99.902s99.902-44.706 99.902-99.902-44.706-99.902-99.902-99.902-99.902 44.706-99.902 99.902zM176.528 635.317c0 55.196 44.706 99.902 99.902 99.902s99.902-44.706 99.902-99.902-44.706-99.902-99.902-99.902-99.902 44.706-99.902 99.902zM376.332 585.366c0 110.342 89.463 199.805 199.805 199.805s199.805-89.463 199.805-199.805-89.463-199.805-199.805-199.805-199.805 89.463-199.805 199.805zM950.622 432.715l-49.652 5.545c0.25 2.098 21.779 212.892-101.651 350.558-72.13 80.471-180.224 121.232-321.386 121.232-141.262 0-249.756-40.86-322.435-121.381-124.279-137.716-104.198-348.46-103.998-350.558l-49.701-5.195c-0.999 9.491-22.828 234.421 116.336 388.92 82.619 91.66 203.651 138.165 359.799 138.165s276.88-46.455 358.85-138.115c138.215-154.549 114.938-379.629 113.839-389.17z" />
<glyph unicode="&#xe810;" glyph-name="icon-location-and-buildings" horiz-adv-x="843" d="M783.059 568.471h-240.941v210.824h240.941zM752.941 809.412h-180.706l90.353 150.588zM481.882 538.353v-33.551c71.68-41.743 120.471-118.603 120.471-207.39 0-72.162-65.114-194.68-120.471-285.937v-15.24h150.588v120.471h60.235v-120.471h150.588v542.118h-361.412zM301.176 529.8v189.259l-301.176-120.471v-86.618h254.133c14.938 7.529 30.539 13.553 47.044 17.83zM208.294 481.852h-208.294v-94.088h138.421c15.059 37.105 39.575 68.909 69.873 94.088zM130.048 240.911h-130.048v-97.882h168.719c-16.384 34.214-30.118 67.765-38.671 97.882zM120.471 297.412c0 20.902 3.494 40.9 8.553 60.235h-129.024v-86.618h123.061c-1.566 9.336-2.59 18.251-2.59 26.383zM183.718 112.971h-183.718v-116.736h240.941c-16.264 27.287-41.803 86.859-57.224 116.736zM361.412 478.118c-99.81 0-180.706-80.896-180.706-180.706s180.706-361.412 180.706-361.412 180.706 261.602 180.706 361.412-80.896 180.706-180.706 180.706zM361.412 207.059c-49.815 0-90.353 40.538-90.353 90.353s40.538 90.353 90.353 90.353 90.353-40.538 90.353-90.353-40.538-90.353-90.353-90.353z" />
<glyph unicode="&#xe811;" glyph-name="icon-main" horiz-adv-x="896" d="M832 0v0 896h-768v-896h768zM192 768h512v-64h-512v64zM192 640h512v-192h-512v192zM256 384h448v-192h-64l128-128h-32l-480 320c-10.88-30.784-35.84-47.36-64-56.704v56.704h64zM161.984 320c-11.648-1.792-22.976-2.944-33.984-3.2v3.2h33.984zM128 64v228.16c119.68-50.56 380.544-158.528 548.992-228.16h-548.992z" />
<glyph unicode="&#xe812;" glyph-name="icon-monthly-report" horiz-adv-x="1095" d="M685.515 97.933l-261.791 261.791v282.483h35.31c19.491 0 35.31 15.819 35.31 35.31s-15.819 35.31-35.31 35.31h-211.862c-19.491 0-35.31-15.819-35.31-35.31s15.819-35.31 35.31-35.31h35.31v-282.483l-261.791-261.791c-13.277-13.277-20.692-31.214-20.692-49.929v-41.384c0-38.983 31.638-70.621 70.621-70.621h564.966c38.983 0 70.621 31.638 70.621 70.621v41.384c0 18.714-7.415 36.652-20.692 49.929zM423.724 783.448v-35.31h35.31c25.777 0 47.457-14.618 59.745-35.31h10.876v-409.106l180.86-180.86c19.986-19.986 31.002-46.61 31.002-74.858v-41.384h247.172c38.983 0 70.621 31.638 70.621 70.621v706.207h-635.586zM776.828 147.862h-70.621v564.966h70.621v-564.966zM988.69 147.862h-35.31v564.966h35.31v-564.966zM459.034 374.343l35.31-35.31v278.74c-10.522-6.285-22.175-10.876-35.31-10.876v-232.554zM847.448 854.069v70.621c0 19.491-15.819 35.31-35.31 35.31h-141.241c-19.491 0-35.31-15.819-35.31-35.31v-70.621h-247.172v-35.31h706.207v35.31h-247.172z" />
<glyph unicode="&#xe813;" glyph-name="icon-open-category" horiz-adv-x="1408" d="M1020.352 640c22.656-59.84 35.648-124.352 35.648-192h352v192h-387.648zM1051.904 384c-8.064-68.672-28.864-133.504-60.16-192h416.256v192h-356.096zM950.912 128c-63.872-87.424-153.024-154.944-256.832-192h713.92v192h-457.088zM512 960c-282.752 0-512-229.248-512-512s229.248-512 512-512 512 229.248 512 512-229.248 512-512 512zM768 384h-192v-192h-128v192h-192v128h192v192h128v-192h192v-128z" />
<glyph unicode="&#xe814;" glyph-name="icon-other" d="M512 960c-282.761 0-512-229.239-512-512s229.239-512 512-512 512 229.239 512 512-229.239 512-512 512zM887.945 682.564c-63.625 2.116-141.244-71.407-179.951-68.062-46.694 4.028-66.97 60.621-38.571 68.676 17.749 5.052 8.533 23.552-0.887 36.659-7.578 10.581-5.939 25.259 4.164 33.587 24.235 20.070 69.973 39.595 102.468 50.995 44.851-33.178 83.149-74.479 112.777-121.856zM588.732 827.494c-2.116 11.878 1.229 24.166 9.216 33.314l16.179 18.569c44.715-10.581 86.699-27.921 125.065-50.927-33.451-16.247-74.206-34.816-92.092-38.161-11.947-2.253-25.6 2.389-38.025 9.079-10.65 5.803-18.159 16.179-20.343 28.126zM68.267 448c0 210.944 148.139 387.686 345.771 432.469 1.638-8.192 2.799-16.316 2.389-24.166-2.253-37.137-52.838-253.474-231.083-312.934-8.875-2.935-17.135-5.257-25.259-7.373 8.533-20.275 35.294-41.028 58.641-48.811 30.447-10.103 146.159 16.179 198.929-44.51 52.77-60.621 67.789-177.22 44.646-262.69-13.653-50.586-57.685-103.697-97.485-150.187-172.442 60.962-296.55 225.143-296.55 418.202zM776.26 92.399c7.851 59.597 15.633 127.795 12.902 144.179-16.247 97.007-72.226 32.358-152.235 121.242-80.009 88.951-10.103 173.807 87.313 208.145 66.492 23.415 165.001-4.096 220.979-23.962-3.618 18.091-9.353 35.362-14.882 52.634 16.111-45.943 25.395-95.164 25.395-146.637 0-145.613-70.793-274.637-179.473-355.601z" />
<glyph unicode="&#xe815;" glyph-name="icon-portfolio-2" horiz-adv-x="1103" d="M1024 290.462h-354.462v-118.154c0-21.74-17.644-39.385-39.385-39.385h-157.538c-21.74 0-39.385 17.644-39.385 39.385v118.154h-354.462c-30.405 0-57.817 11.815-78.769 30.72v-306.412c0-43.481 35.289-78.769 78.769-78.769h945.231c43.481 0 78.769 35.289 78.769 78.769v306.412c-20.953-18.905-48.364-30.72-78.769-30.72zM0 802.462v-393.846c0-43.481 35.289-78.769 78.769-78.769h354.462v78.769c0 21.74 17.644 39.385 39.385 39.385h157.538c21.74 0 39.385-17.644 39.385-39.385v-78.769h354.462c43.481 0 78.769 35.289 78.769 78.769v393.846h-1102.769zM630.154 172.308h-157.538v236.308h157.538zM393.846 960c-43.481 0-78.769-35.289-78.769-78.769v-78.769h78.769v78.769h315.077v-78.769h78.769v78.769c0 43.481-35.289 78.769-78.769 78.769h-315.077z" />
<glyph unicode="&#xe816;" glyph-name="icon-scope-1" d="M568.889 960h-455.111c-31.403 0-56.889-25.486-56.889-56.889v-824.889h568.889v824.889c0 31.403-25.486 56.889-56.889 56.889zM568.889 647.111c0-15.701-12.743-28.444-28.444-28.444h-398.222c-15.701 0-28.444 12.743-28.444 28.444v227.556c0 15.701 12.743 28.444 28.444 28.444h398.222c15.701 0 28.444-12.743 28.444-28.444v-227.556zM625.778 277.333h-56.889v170.667h56.889c31.403 0 56.889-25.486 56.889-56.889v-56.889c0-31.403-25.486-56.889-56.889-56.889zM682.667-64h-682.667v56.889c0 31.403 25.486 56.889 56.889 56.889h568.889c31.403 0 56.889-25.486 56.889-56.889v-56.889zM881.778-7.111c-74.468 0-142.222 67.755-142.222 142.222v170.667c0 23.097-18.773 27.762-29.924 28.501l-26.965-0.057v56.889h28.444c34.987-1.422 85.333-25.316 85.333-85.333v-170.667c0-42.268 43.065-85.333 85.333-85.333 44.658 0 85.333 40.676 85.333 85.333 0 50.062-103.708 370.176-169.131 560.185l53.76 18.489c17.636-51.2 172.26-502.67 172.26-578.674 0-75.776-66.446-142.222-142.222-142.222zM853.333 618.667h-113.778v170.667l-56.889 113.778h56.889l113.778-170.667z" />
<glyph unicode="&#xe817;" glyph-name="icon-scope-2" horiz-adv-x="889" d="M409.347 872.793l392.471-392.471-87.216-87.216h-43.608l-348.863 348.863v43.608zM60.484 305.891v-43.608l130.824-130.824h43.608zM125.896 371.302l-43.608-43.608 174.431-174.431 43.608 43.608zM191.308 436.714l-43.608-43.608 174.431-174.431 43.608 43.608zM496.563 262.283l130.824 130.824-305.255 305.255-130.824-130.824v-130.824l174.431-174.431zM20.67-63.991c-40.817 91.271-20.147 197.195 52.591 269.889l174.431 174.431 61.662-61.662-174.431-174.431c-47.663-47.663-60.92-113.773-34.625-172.644l-79.628-35.584zM452.955 698.362c-11.164 0-22.327 4.274-30.831 12.777-17.051 17.051-17.051 44.611 0 61.662l174.431 174.431c17.051 17.051 44.611 17.051 61.662 0s17.051-44.611 0-61.662l-174.431-174.431c-8.504-8.504-19.667-12.777-30.831-12.777zM670.994 480.322c-11.164 0-22.327 4.274-30.831 12.777-17.051 17.051-17.051 44.611 0 61.662l174.431 174.431c17.051 17.051 44.611 17.051 61.662 0s17.051-44.611 0-61.662l-174.431-174.431c-8.504-8.504-19.667-12.777-30.831-12.777z" />
<glyph unicode="&#xe818;" glyph-name="icon-scope-3" d="M101.146 37.146h50.573l404.583 354.010 404.583 404.583c0 0 96.948 105.343 50.573 151.719s-151.719-50.573-151.719-50.573l-404.583-404.583-354.010-404.583v-50.573zM50.573 896.885l606.875-151.719 151.719-151.719 101.146-606.875-50.573-50.573-202.292 505.729-151.719 151.719-505.729 252.864zM50.573 239.437h202.292l50.573-50.573v-202.292l-50.573-50.573-50.573 202.292-202.292 50.573zM107.417 751.437l151.719 151.719 50.573-50.573-151.719-151.719zM815.437 43.417l151.719 151.719-50.573 50.573-151.719-151.719z" />
<glyph unicode="&#xe819;" glyph-name="icon-standard" d="M366.144 598.464c-79.936 27.456-189.184 56.32-315.2 71.168-32.32-67.136-50.944-142.144-50.944-221.632 0-55.68 9.152-109.184 25.6-159.36 131.776 167.744 260.544 262.336 340.544 309.824zM515.264 657.472c-37.12 75.904-93.952 173.568-172.608 273.216-125.056-43.84-227.712-134.592-287.040-251.456 211.648 25.408 369.536 1.344 459.648-21.76zM662.464 593.856c27.456 79.936 56.32 189.184 71.168 315.2-67.2 32.256-142.144 50.944-221.632 50.944-55.68 0-109.184-9.216-159.36-25.6 167.744-131.776 262.336-260.544 309.824-340.544zM721.472 444.736c75.904 37.12 173.632 93.952 273.216 172.608-43.84 125.056-134.592 227.712-251.456 287.040 25.408-211.648 1.28-369.536-21.76-459.648zM657.856 297.536c79.936-27.456 189.184-56.32 315.2-71.168 32.32 67.136 50.944 142.144 50.944 221.632 0 55.68-9.152 109.184-25.6 159.36-131.776-167.744-260.544-262.336-340.544-309.824zM508.736 238.528c37.12-75.904 93.952-173.568 172.608-273.216 125.056 43.84 227.712 134.592 287.040 251.456-211.648-25.408-369.536-1.344-459.648 21.76zM361.536 302.144c-27.456-79.936-56.32-189.184-71.168-315.2 67.2-32.256 142.144-50.944 221.632-50.944 55.68 0 109.184 9.216 159.36 25.6-167.744 131.776-262.336 260.544-309.824 340.544zM302.528 451.264c-75.904-37.12-173.632-93.952-273.216-172.608 43.84-125.056 134.592-227.712 251.456-287.040-25.408 211.648-1.28 369.536 21.76 459.648z" />
<glyph unicode="&#xe81a;" glyph-name="icon-summary" horiz-adv-x="1030" d="M1008.367 618.667l-456.499-141.585 305.835-367.070c105.131 87.654 172.032 219.477 172.032 367.070 0 49.289-7.509 96.87-21.367 141.585zM477.867 891.733c157.423 0 297.097-87.996 365.773-224.734l-483.669-149.982 323.925-388.779c-62.259-36.25-133.393-55.706-206.029-55.706-225.894 0-409.6 183.706-409.6 409.6s183.706 409.6 409.6 409.6zM477.867 960c-263.919 0-477.867-213.948-477.867-477.867s213.948-477.867 477.867-477.867c116.395 0 222.959 41.643 305.766 110.797l-305.766 367.070 456.567 141.585c-60.416 194.765-241.937 336.282-456.567 336.282v0zM783.701 115.063c0 0-597.333-326.997-783.701 367.070 0-352.734 196.267-546.133 477.867-546.133 116.326 0 222.959 41.643 305.835 110.797 0 0 0 68.267 0 68.267z" />
<glyph unicode="&#xe81b;" glyph-name="icon-unit" horiz-adv-x="1103" d="M787.692 723.692h-472.615c-43.481 0-78.769 35.289-78.769 78.769v78.769c0 43.481 35.289 78.769 78.769 78.769h472.615c43.481 0 78.769-35.289 78.769-78.769v-78.769c0-43.481-35.289-78.769-78.769-78.769zM236.308 329.846h-157.538c-43.481 0-78.769 35.289-78.769 78.769v78.769c0 43.481 35.289 78.769 78.769 78.769h157.538c43.481 0 78.769-35.289 78.769-78.769v-78.769c0-43.481-35.289-78.769-78.769-78.769zM643.308 251.077h-183.769c-36.313 0-65.694 29.381-65.694 65.615v104.999c0 36.313 29.381 65.694 65.615 65.694h183.769c36.313 0 65.694-29.381 65.694-65.615v-104.999c0-36.313-29.381-65.694-65.615-65.694zM1024 329.846h-157.538c-43.481 0-78.769 35.289-78.769 78.769v78.769c0 43.481 35.289 78.769 78.769 78.769h157.538c43.481 0 78.769-35.289 78.769-78.769v-78.769c0-43.481-35.289-78.769-78.769-78.769zM185.423 538.27l-55.769 55.769 157.538 157.538 55.769-55.769zM917.346 538.27l-157.538 157.538 55.769 55.769 157.538-157.538zM590.769 487.385h-78.769v236.308h78.769zM1063.385 172.308h-236.308c-21.74 0-39.385 17.644-39.385 39.385v0c0 21.74 17.644 39.385 39.385 39.385h236.308c21.74 0 39.385-17.644 39.385-39.385v0c0-21.74-17.644-39.385-39.385-39.385zM1063.385 14.769h-236.308c-21.74 0-39.385 17.644-39.385 39.385v0c0 21.74 17.644 39.385 39.385 39.385h236.308c21.74 0 39.385-17.644 39.385-39.385v0c0-21.74-17.644-39.385-39.385-39.385zM669.538 93.538h-236.308c-21.74 0-39.385 17.644-39.385 39.385v0c0 21.74 17.644 39.385 39.385 39.385h236.308c21.74 0 39.385-17.644 39.385-39.385v0c0-21.74-17.644-39.385-39.385-39.385zM669.538-64h-236.308c-21.74 0-39.385 17.644-39.385 39.385v0c0 21.74 17.644 39.385 39.385 39.385h236.308c21.74 0 39.385-17.644 39.385-39.385v0c0-21.74-17.644-39.385-39.385-39.385zM275.692 172.308h-236.308c-21.74 0-39.385 17.644-39.385 39.385v0c0 21.74 17.644 39.385 39.385 39.385h236.308c21.74 0 39.385-17.644 39.385-39.385v0c0-21.74-17.644-39.385-39.385-39.385zM275.692 14.769h-236.308c-21.74 0-39.385 17.644-39.385 39.385v0c0 21.74 17.644 39.385 39.385 39.385h236.308c21.74 0 39.385-17.644 39.385-39.385v0c0-21.74-17.644-39.385-39.385-39.385z" />
<glyph unicode="&#xe81c;" glyph-name="icon-waste-2" horiz-adv-x="704" d="M32 704v-704c0-35.328 28.672-64 64-64h512c35.328 0 64 28.672 64 64v704h-640zM288 64h-64v512h64v-512zM128 64h-32v512h32v-512zM608 64h-32v512h32v-512zM480 64h-64v512h64v-512zM704 768h-704v64h704zM480 832h-64v64h-128v-64h-64v64c0 35.328 28.672 64 64 64h128c35.328 0 64-28.672 64-64v-64z" />
<glyph unicode="&#xe81d;" glyph-name="icon-water-withdrawal" horiz-adv-x="938" d="M346.14 363.415c0 113.785 99.759 272.599 180.575 382.779-84.552 120.798-164.058 213.806-164.058 213.806s-362.657-424.203-362.657-637.616c0-213.413 162.353-386.384 362.657-386.384 86.519 0 165.827 32.379 228.16 86.256-141.117 42.932-244.677 179.461-244.677 341.159zM431.479 363.415c0-149.179 113.523-270.043 253.46-270.043s253.46 120.929 253.46 270.043-253.46 445.636-253.46 445.636-253.46-296.457-253.46-445.636z" />
<glyph unicode="&#xe81e;" glyph-name="icon-yearly" horiz-adv-x="819" d="M750.933 482.133v-477.867h-682.667v477.867h682.667zM819.2 550.4h-819.2v-546.133c0-37.683 30.583-68.267 68.267-68.267h682.667c37.683 0 68.267 30.583 68.267 68.267v546.133zM204.8 482.133v-477.867h-34.133v477.867zM341.333 482.133v-477.867h-34.133v477.867zM477.867 482.133v-477.867h-34.133v477.867zM614.4 482.133v-477.867h-34.133v477.867zM750.933 482.133v-477.867h-34.133v477.867zM750.933 379.733h-682.667v34.133h682.667zM750.933 243.2h-682.667v34.133h682.667zM750.933 106.667h-682.667v34.133h682.667zM170.667 686.933v0c-18.842 0-34.133 15.292-34.133 34.133v204.8c0 18.842 15.292 34.133 34.133 34.133v0c18.842 0 34.133-15.292 34.133-34.133v-204.8c0-18.842-15.292-34.133-34.133-34.133zM750.933 823.467h-34.133v-99.942c0-38.298-30.652-69.495-68.267-69.495s-68.267 31.198-68.267 69.495v99.942h-341.333v-99.942c0-38.298-30.652-69.495-68.267-69.495s-68.267 31.198-68.267 69.495v99.942h-34.133c-37.683 0-68.267-31.13-68.267-69.495v-169.438h819.2v169.438c0 38.366-30.583 69.495-68.267 69.495zM648.533 686.933v0c-18.842 0-34.133 15.292-34.133 34.133v204.8c0 18.842 15.292 34.133 34.133 34.133v0c18.842 0 34.133-15.292 34.133-34.133v-204.8c0-18.842-15.292-34.133-34.133-34.133z" />
<glyph unicode="&#xe81f;" glyph-name="icon-dashboard" horiz-adv-x="788" d="M138.769-64l-52.253 20.946 112.614 281.535 52.253-20.946zM649.586-64l-112.614 281.535 52.253 20.946 112.614-281.535zM422.331 2.78h-56.307v225.228h56.307zM732.020 960h-675.685c-31.081 0-56.307-25.226-56.307-56.307v-619.378c0-31.081 25.226-56.307 56.307-56.307h675.685c31.081 0 56.307 25.226 56.307 56.307v619.378c0 31.081-25.226 56.307-56.307 56.307zM281.563 340.622h-112.614v140.768c0 15.541 12.613 28.154 28.154 28.154h56.307c15.541 0 28.154-12.613 28.154-28.154v-140.768zM450.485 340.622h-112.614v309.689c0 15.541 12.613 28.154 28.154 28.154h56.307c15.541 0 28.154-12.613 28.154-28.154v-309.689zM619.406 340.622h-112.614v478.61c0 15.541 12.613 28.154 28.154 28.154h56.307c15.541 0 28.154-12.613 28.154-28.154v-478.61z" />
<glyph unicode="&#xe820;" glyph-name="icon-tables-excel" horiz-adv-x="843" d="M270.854 598.558v-90.353h180.706v90.353zM90.148 598.558v-90.353h150.588v90.353zM451.56 719.029h-180.706v-90.353h180.706zM481.678 508.205h150.588v90.353h-150.588zM240.736 719.029h-150.588v-90.353h150.588zM240.736 749.146v90.353h-150.588v-90.353zM451.56 749.146v90.353h-180.706v-90.353zM632.266 749.146v90.353h-150.588v-90.353zM481.678 628.676h150.588v90.353h-150.588zM12.264 327.499h228.472c16.625 0 30.118-13.493 30.118-30.118v-228.472l-258.59 258.59zM301.213 56.44h112.7l90.353 120.471-203.294 271.059h195.765l105.412-140.529 105.412 140.529h15.059v451.524c0.12 33.37-26.564 60.476-59.934 60.476-136.192 0-466.884 0-602.775 0-33.069 0-59.874-26.805-59.874-59.934v-542.419h240.941c33.25 0 60.235-26.985 60.235-60.235 0 0 0-240.941 0-240.941zM60.271 478.088v421.647h602.353v-421.647h-602.353zM843.089 417.852h-120.471l-120.471-160.587-120.471 160.587h-120.471l180.706-240.941-180.706-240.941h301.176l-60.235 60.235h-75.294l75.294 100.412 120.471-160.648h120.471l-180.706 240.941z" />
<glyph unicode="&#xe821;" glyph-name="icon-monthly-pdf-report" d="M159.968 704v0c-17.664 0-32 14.336-32 32v192c0 17.664 14.336 32 32 32v0c17.664 0 32-14.336 32-32v-192c0-17.664-14.272-32-32-32zM703.968 832h-32v-93.696c0-35.904-28.736-65.152-64-65.152s-64 29.248-64 65.152v93.696h-320v-93.696c0-35.904-28.736-65.152-64-65.152s-64 29.248-64 65.152v93.696h-32c-35.328 0-64-29.184-64-65.152v-158.848h768v158.848c0 35.968-28.608 65.152-64 65.152zM607.968 704v0c-17.664 0-32 14.336-32 32v192c0 17.664 14.336 32 32 32v0c17.664 0 32-14.336 32-32v-192c0-17.664-14.272-32-32-32zM575.968 64h64v192h-64zM959.968 384h-704c-35.328 0-64-28.672-64-64v-320c0-35.328 28.672-64 64-64h704c35.328 0 64 28.672 64 64v320c0 35.328-28.608 64-64 64zM447.968 176c0-26.496-21.504-48-48-48h-80v-128h-64v320h144c26.496 0 48-21.504 48-48v-96zM703.968 48c0-26.496-21.504-48-48-48h-176l32 64v192l-32 64h176c26.496 0 48-21.504 48-48v-224zM959.968 256h-128v-64h64v-64h-64v-128h-64v320h192v-64zM319.968 192h64v64h-64zM63.968 64v96h96v32h-96v96h96v32h-96v96h96v-96c0 28.288 12.48 53.44 32 71.040v24.96h576v160h-768v-512c0-35.328 28.672-64 64-64h96v64h-96zM575.968 512h96v-64h-96v64zM447.968 512h96v-64h-96v64zM319.968 512h96v-64h-96v64zM191.968 512h96v-64h-96v64zM63.968 512h96v-64h-96v64z" />
<glyph unicode="&#xe822;" glyph-name="icon-health" d="M896 768h-192v64c0 35.328-28.672 64-64 64h-256c-35.328 0-64-28.672-64-64v-64h-192c-35.328 0-64-35.84-64-80v-608c0-44.16 28.672-80 64-80h768c35.328 0 64 35.84 64 80v608c0 44.16-28.672 80-64 80zM384 832h256v-64h-256v64zM704 320h-128v-128h-128v128h-128v128h128v128h128v-128h128v-128z" />
<glyph unicode="&#xe823;" glyph-name="icon-safety" d="M512 960c-282.752 0-512-229.248-512-512s229.248-512 512-512 512 229.248 512 512-229.248 512-512 512zM942.656 570.176l-122.432-40.768c-29.376 110.72-116.032 197.44-226.816 226.816l40.832 122.432c148.8-42.368 266.048-159.616 308.416-308.48zM512 192c-141.184 0-256 114.816-256 256s114.816 256 256 256 256-114.816 256-256-114.816-256-256-256zM389.824 878.656l40.832-122.432c-110.72-29.376-197.44-116.032-226.816-226.816l-122.432 40.832c42.304 148.8 159.552 266.048 308.416 308.416zM81.344 325.824l122.432 40.832c29.376-110.72 116.032-197.44 226.816-226.816l-40.832-122.432c-148.8 42.304-266.048 159.552-308.416 308.416zM634.176 17.344l-40.768 122.432c110.72 29.376 197.44 116.032 226.816 226.816l122.432-40.832c-42.368-148.8-159.616-266.048-308.48-308.416z" />
<glyph unicode="&#xe824;" glyph-name="icon-csr" horiz-adv-x="1095" d="M685.515 97.933l-261.791 261.791v282.483h35.31c19.491 0 35.31 15.819 35.31 35.31s-15.819 35.31-35.31 35.31h-211.862c-19.491 0-35.31-15.819-35.31-35.31s15.819-35.31 35.31-35.31h35.31v-282.483l-261.791-261.791c-13.277-13.277-20.692-31.214-20.692-49.929v-41.384c0-38.983 31.638-70.621 70.621-70.621h564.966c38.983 0 70.621 31.638 70.621 70.621v41.384c0 18.714-7.415 36.652-20.692 49.929zM423.724 783.448v-35.31h35.31c25.777 0 47.457-14.618 59.745-35.31h10.876v-409.106l180.86-180.86c19.986-19.986 31.002-46.61 31.002-74.858v-41.384h247.172c38.983 0 70.621 31.638 70.621 70.621v706.207h-635.586zM776.828 147.862h-70.621v564.966h70.621v-564.966zM988.69 147.862h-35.31v564.966h35.31v-564.966zM459.034 374.343l35.31-35.31v278.74c-10.522-6.285-22.175-10.876-35.31-10.876v-232.554zM847.448 854.069v70.621c0 19.491-15.819 35.31-35.31 35.31h-141.241c-19.491 0-35.31-15.819-35.31-35.31v-70.621h-247.172v-35.31h706.207v35.31h-247.172z" />
<glyph unicode="&#xe825;" glyph-name="icon-customer" horiz-adv-x="683" d="M568.889-7.168h-455.111v56.889h455.111zM398.222 49.721h-113.778v142.222h113.778zM568.889 220.388h-455.111v56.889c0 31.403 25.486 56.889 56.889 56.889h341.333c31.403 0 56.889-25.486 56.889-56.889v-56.889zM540.444 362.61h-398.222l28.444 426.667h341.333zM113.778 220.388h-56.889v284.444h56.889zM625.778 220.388h-56.889v284.444h56.889zM113.778 447.943h-113.778v56.889h113.778zM682.667 447.943h-113.778v56.889h113.778zM512 817.721h-341.333v85.333c0 31.403 25.486 56.889 56.889 56.889h227.556c31.403 0 56.889-25.486 56.889-56.889v-85.333zM540.444-64.057v0c-15.701 0-28.444 12.743-28.444 28.444v0c0 15.701 12.743 28.444 28.444 28.444v0c15.701 0 28.444-12.743 28.444-28.444v0c0-15.701-12.743-28.444-28.444-28.444zM426.667-64.057v0c-15.701 0-28.444 12.743-28.444 28.444v0c0 15.701 12.743 28.444 28.444 28.444v0c15.701 0 28.444-12.743 28.444-28.444v0c0-15.701-12.743-28.444-28.444-28.444zM256-64.057v0c-15.701 0-28.444 12.743-28.444 28.444v0c0 15.701 12.743 28.444 28.444 28.444v0c15.701 0 28.444-12.743 28.444-28.444v0c0-15.701-12.743-28.444-28.444-28.444zM142.222-64.057v0c-15.701 0-28.444 12.743-28.444 28.444v0c0 15.701 12.743 28.444 28.444 28.444v0c15.701 0 28.444-12.743 28.444-28.444v0c0-15.701-12.743-28.444-28.444-28.444z" />
</font>
</defs>
</svg>
