<?xml version="1.0" encoding="utf-8"?>
<!-- Generator: Adobe Illustrator 17.0.0, SVG Export Plug-In . SVG Version: 6.00 Build 0)  -->
<!DOCTYPE svg PUBLIC "-//W3C//DTD SVG 1.1//EN" "http://www.w3.org/Graphics/SVG/1.1/DTD/svg11.dtd">
<svg version="1.1" id="Layer_1" xmlns="http://www.w3.org/2000/svg" xmlns:xlink="http://www.w3.org/1999/xlink" x="0px" y="0px"
	 width="20.248px" height="20.248px" viewBox="5 5 20.248 20.248" enable-background="new 5 5 20.248 20.248" xml:space="preserve">
<symbol  id="AirTravel" viewBox="-15 -15 30 30">
	<g>
		<path fill="#FFFFFF" d="M-8-8.248h1l8,7l8,8c0,0,1.917,2.083,1,3s-3-1-3-1l-8-8l-7-8V-8.248z"/>
		<polygon fill="#FFFFFF" points="-9,8.752 3,5.752 6,2.752 8,-9.248 7,-10.248 3,-0.248 0,2.752 -10,7.752 		"/>
		<polygon fill="#FFFFFF" points="-9,-4.248 -5,-4.248 -4,-5.248 -4,-9.248 -5,-10.248 -6,-6.248 -10,-5.248 		"/>
	</g>
	<polygon fill="none" points="15,-15 -15,-15 -15,15 15,15 	"/>
</symbol>
<use xlink:href="#AirTravel"  width="30" height="30" id="XMLID_1_" x="-15" y="-15" transform="matrix(1 0 0 -1 15 15)" overflow="visible"/>
</svg>
