<?xml version="1.0" encoding="utf-8"?>
<!-- Generator: Adobe Illustrator 17.0.0, SVG Export Plug-In . SVG Version: 6.00 Build 0)  -->
<!DOCTYPE svg PUBLIC "-//W3C//DTD SVG 1.1//EN" "http://www.w3.org/Graphics/SVG/1.1/DTD/svg11.dtd">
<svg version="1.1" id="Layer_1" xmlns="http://www.w3.org/2000/svg" xmlns:xlink="http://www.w3.org/1999/xlink" x="0px" y="0px"
	 width="14px" height="19px" viewBox="8 7 14 19" enable-background="new 8 7 14 19" xml:space="preserve">
<symbol  id="BioCarbon" viewBox="-15 -15 30 30">
	<g>
		<path fill="#FFFFFF" d="M-2-11h4c0,0-1,0.708-1,2c0,0.562,0,4,0,4l3,4H3L0-4v3l-1,1v-3l-2,2h-1l3-4c0,0,0-3.125,0-4
			C-1-10.583-2-11-2-11z"/>
		<path fill="#FFFFFF" d="M3-1c0,1.105,0.895,2,2,2s2-0.895,2-2S6.105-3,5-3S3-2.105,3-1z"/>
		<path fill="#FFFFFF" d="M-1,0.5C-1,1.881,0.119,3,1.5,3S4,1.881,4,0.5S2.881-2,1.5-2S-1-0.881-1,0.5z"/>
		<path fill="#FFFFFF" d="M-4,1c0,1.657,1.343,3,3,3s3-1.343,3-3S0.657-2-1-2S-4-0.657-4,1z"/>
		<path fill="#FFFFFF" d="M-3,5.5C-3,6.881-1.881,8-0.5,8S2,6.881,2,5.5S0.881,3-0.5,3S-3,4.119-3,5.5z"/>
		<path fill="#FFFFFF" d="M-7,0c0,1.105,0.895,2,2,2s2-0.895,2-2s-0.895-2-2-2S-7-1.105-7,0z"/>
		<path fill="#FFFFFF" d="M-6,4c0,1.105,0.895,2,2,2s2-0.895,2-2s-0.895-2-2-2S-6,2.895-6,4z"/>
		<path fill="#FFFFFF" d="M-2,3c0,2.209,1.791,4,4,4s4-1.791,4-4S4.209-1,2-1S-2,0.791-2,3z"/>
	</g>
	<polygon fill="none" points="15,-15 -15,-15 -15,15 15,15 	"/>
</symbol>
<use xlink:href="#BioCarbon"  width="30" height="30" id="XMLID_141_" x="-15" y="-15" transform="matrix(1 0 0 -1 15 15)" overflow="visible"/>
</svg>
