<?xml version="1.0" encoding="utf-8"?>
<!-- Generator: Adobe Illustrator 17.0.0, SVG Export Plug-In . SVG Version: 6.00 Build 0)  -->
<!DOCTYPE svg PUBLIC "-//W3C//DTD SVG 1.1//EN" "http://www.w3.org/Graphics/SVG/1.1/DTD/svg11.dtd">
<svg version="1.1" id="Layer_1" xmlns="http://www.w3.org/2000/svg" xmlns:xlink="http://www.w3.org/1999/xlink" x="0px" y="0px"
	 width="11.999px" height="18px" viewBox="9 4 11.999 18" enable-background="new 9 4 11.999 18" xml:space="preserve">
<symbol  id="BioEn_x5F_StatCombustion" viewBox="-15 -15 30 30">
	<path fill="#FFFFFF" d="M-2.445-6.644C-3.531-6.112-6-3.952-6-1.774C-6,3.79-1.507,5.919-1.26,11c4.148-3.677,4.74-8.71,4.74-8.71
		c0.494,0.871,1.185,2.903,1.185,2.903C5.702,3.064,6.294-0.081,5.85-1.775C5.178-4.34,3.777-6.129,2.295-7
		C3.48-2.742-0.668,0.548-0.668,0.548S-3.235-2.58-2.445-6.644z"/>
	<polygon fill="none" points="15,-15 -15,-15 -15,15 15,15 	"/>
</symbol>
<use xlink:href="#BioEn_x5F_StatCombustion"  width="30" height="30" id="XMLID_153_" x="-15" y="-15" transform="matrix(1 0 0 -1 15 15)" overflow="visible"/>
</svg>
