<?xml version="1.0" encoding="utf-8"?>
<!-- Generator: Adobe Illustrator 17.0.0, SVG Export Plug-In . SVG Version: 6.00 Build 0)  -->
<!DOCTYPE svg PUBLIC "-//W3C//DTD SVG 1.1//EN" "http://www.w3.org/Graphics/SVG/1.1/DTD/svg11.dtd">
<svg version="1.1" id="Layer_1" xmlns="http://www.w3.org/2000/svg" xmlns:xlink="http://www.w3.org/1999/xlink" x="0px" y="0px"
	 width="18px" height="15px" viewBox="6 8 18 15" enable-background="new 6 8 18 15" xml:space="preserve">
<symbol  id="BioEn_x5F_Transport" viewBox="-15 -15 30 30">
	<path fill="#FFFFFF" d="M4,7h-8l-4-7v-6H8v6L4,7z M-4,5h8l2-4H-6L-4,5z M-4.5-4C-5.329-4-6-3.329-6-2.5S-5.329-1-4.5-1
		S-3-1.671-3-2.5S-3.671-4-4.5-4z M4.5-4C3.671-4,3-3.329,3-2.5S3.671-1,4.5-1S6-1.671,6-2.5S5.329-4,4.5-4z"/>
	<polygon fill="#FFFFFF" points="-5,-8 -7,-8 -7,-5 -5,-5 	"/>
	<polygon fill="#FFFFFF" points="7,-8 5,-8 5,-5 7,-5 	"/>
	<polygon fill="#FFFFFF" points="-7,1 -9,2 -9,3 -7,3 	"/>
	<polygon fill="#FFFFFF" points="9,2 7,1 7,3 9,3 	"/>
	<polygon fill="none" points="15,-15 -15,-15 -15,15 15,15 	"/>
</symbol>
<use xlink:href="#BioEn_x5F_Transport"  width="30" height="30" id="XMLID_1_" x="-15" y="-15" transform="matrix(1 0 0 -1 15 15)" overflow="visible"/>
</svg>
