<?xml version="1.0" encoding="utf-8"?>
<!-- Generator: Adobe Illustrator 17.0.0, SVG Export Plug-In . SVG Version: 6.00 Build 0)  -->
<!DOCTYPE svg PUBLIC "-//W3C//DTD SVG 1.1//EN" "http://www.w3.org/Graphics/SVG/1.1/DTD/svg11.dtd">
<svg version="1.1" id="Layer_1" xmlns="http://www.w3.org/2000/svg" xmlns:xlink="http://www.w3.org/1999/xlink" x="0px" y="0px"
	 width="15.127px" height="15px" viewBox="6.879 7 15.127 15" enable-background="new 6.879 7 15.127 15" xml:space="preserve">
<symbol  id="BioReport" viewBox="-15 -15 30 30">
	<polygon fill="none" points="15,-15 -15,-15 -15,15 15,15 	"/>
	<g>
		<path fill="#FFFFFF" d="M0-7c0,0,1,1.708,1,3c0,0.562,0,1.062,0,2s1,4,1,4H1L0-3.167L-3,2c0,0,2-5.188,2-6s0-1.125,0-2
			C-1-6.75,0-7,0-7z"/>
	</g>
	<path fill="#FFFFFF" d="M-3,2l2-2c0.255-0.309,1-3,1-3s0.595,7.059-3,8c-3.5,0.917-5,3-5,3s-1.208-6.5,4-8
		c0.842-0.243,1.552-0.657,2.142-1.097C-2.4,0.444-3,2-3,2z"/>
	<path fill="#FFFFFF" d="M0-3c0,0,0.909,3.155,3,4c4.333,1.75,4,4,4,4S4.739,5.445,3,5C-0.583,4.083,0-3,0-3z"/>
</symbol>
<use xlink:href="#BioReport"  width="30" height="30" id="XMLID_122_" x="-15" y="-15" transform="matrix(1 0 0 -1 15 15)" overflow="visible"/>
</svg>
