<?xml version="1.0" encoding="utf-8"?>
<!-- Generator: Adobe Illustrator 17.0.0, SVG Export Plug-In . SVG Version: 6.00 Build 0)  -->
<!DOCTYPE svg PUBLIC "-//W3C//DTD SVG 1.1//EN" "http://www.w3.org/Graphics/SVG/1.1/DTD/svg11.dtd">
<svg version="1.1" id="Layer_1" xmlns="http://www.w3.org/2000/svg" xmlns:xlink="http://www.w3.org/1999/xlink" x="0px" y="0px"
	 width="18px" height="17px" viewBox="6 7 18 17" enable-background="new 6 7 18 17" xml:space="preserve">
<symbol  id="Bus_travel" viewBox="-15 -15.5 30 31">
	<path fill="#FFFFFF" d="M6,8.5H-6l-2-9v-6H8v6L6,8.5z M-5,7.5H5l1-7H-6L-5,7.5z M-4.5-4.5C-5.329-4.5-6-3.829-6-3
		s0.671,1.5,1.5,1.5S-3-2.171-3-3S-3.671-4.5-4.5-4.5z M4.5-4.5C3.671-4.5,3-3.829,3-3s0.671,1.5,1.5,1.5S6-2.171,6-3
		S5.329-4.5,4.5-4.5z"/>
	<polygon fill="#FFFFFF" points="-5,-8.5 -7,-8.5 -7,-5.5 -5,-5.5 	"/>
	<polygon fill="#FFFFFF" points="7,-8.5 5,-8.5 5,-5.5 7,-5.5 	"/>
	<polygon fill="none" points="15,-15.5 -15,-15.5 -15,15.5 15,15.5 	"/>
	<polygon fill="#FFFFFF" points="-7,1.5 -9,1.5 -9,6.5 -7,6.5 	"/>
	<polygon fill="#FFFFFF" points="9,1.5 7,1.5 7,6.5 9,6.5 	"/>
</symbol>
<use xlink:href="#Bus_travel"  width="30" height="31" id="XMLID_1_" x="-15" y="-15.5" transform="matrix(1 0 0 -1 15 15.5)" overflow="visible"/>
</svg>
