<?xml version="1.0" encoding="utf-8"?>
<!-- Generator: Adobe Illustrator 17.0.0, SVG Export Plug-In . SVG Version: 6.00 Build 0)  -->
<!DOCTYPE svg PUBLIC "-//W3C//DTD SVG 1.1//EN" "http://www.w3.org/Graphics/SVG/1.1/DTD/svg11.dtd">
<svg version="1.1" id="Layer_1" xmlns="http://www.w3.org/2000/svg" xmlns:xlink="http://www.w3.org/1999/xlink" x="0px" y="0px"
	 width="24.001px" height="21.043px" viewBox="3 4 24.001 21.043" enable-background="new 3 4 24.001 21.043" xml:space="preserve">
<symbol  id="Commuting" viewBox="-15 -15 30 30">
	<path fill="#FFFFFF" d="M6.83-5H-7.06c-0.387,0-0.387,1,0,1H6.83C7.217-4,7.217-5,6.83-5z"/>
	<path fill="#FFFFFF" d="M-3.232-1.976l-8.018-8.018c-0.223-0.223-0.931,0.484-0.707,0.707l8.018,8.018
		C-3.715-1.046-3.008-1.753-3.232-1.976z"/>
	<path fill="#FFFFFF" d="M3.232-1.982L11.25-10c0.223-0.223,0.931,0.484,0.707,0.707L3.939-1.275
		C3.715-1.051,3.008-1.758,3.232-1.982z"/>
	<path fill="#FFFFFF" d="M8.749-7H-8.98c-0.494,0-0.494,1,0,1H8.749C9.243-6,9.243-7,8.749-7z"/>
	<path fill="#FFFFFF" d="M10.669-9H-10.9c-0.601,0-0.601,1,0,1h21.569C11.27-8,11.27-9,10.669-9z"/>
	<path fill="#FFFFFF" d="M5.219,11H-5.219c-0.459,0-0.859-0.312-0.97-0.757L-8,3l1-6H7l1,6l-1.811,7.243
		C6.078,10.688,5.678,11,5.219,11z M-4,9h8l1-4H-5L-4,9z M-4.5,0C-5.329,0-6,0.671-6,1.5S-5.329,3-4.5,3S-3,2.329-3,1.5
		S-3.671,0-4.5,0z M4.5,0C3.671,0,3,0.671,3,1.5S3.671,3,4.5,3S6,2.329,6,1.5S5.329,0,4.5,0z"/>
	<polygon fill="none" points="15,-15 -15,-15 -15,15 15,15 	"/>
</symbol>
<use xlink:href="#Commuting"  width="30" height="30" id="XMLID_4_" x="-15" y="-15" transform="matrix(1 0 0 -1 15 15)" overflow="visible"/>
</svg>
