<?xml version="1.0" encoding="utf-8"?>
<!-- Generator: Adobe Illustrator 17.0.0, SVG Export Plug-In . SVG Version: 6.00 Build 0)  -->
<!DOCTYPE svg PUBLIC "-//W3C//DTD SVG 1.1//EN" "http://www.w3.org/Graphics/SVG/1.1/DTD/svg11.dtd">
<svg version="1.1" id="Layer_1" xmlns="http://www.w3.org/2000/svg" xmlns:xlink="http://www.w3.org/1999/xlink" x="0px" y="0px"
	 width="15px" height="15px" viewBox="7 8 15 15" enable-background="new 7 8 15 15" xml:space="preserve">
<symbol  id="CountryReport" viewBox="-15 -15 30 30">
	<polygon fill="none" points="15,-15 -15,-15 -15,15 15,15 	"/>
	<path fill="#FFFFFF" d="M-0.5,7C-4.642,7-8,3.642-8-0.5S-4.642-8-0.5-8S7-4.642,7-0.5S3.642,7-0.5,7z M5.007,2.936
		C4.075,2.967,2.938,1.89,2.371,1.938C1.687,1.998,1.39,2.827,1.806,2.945c0.26,0.074,0.125,0.345-0.013,0.537
		c-0.111,0.155-0.087,0.37,0.061,0.492c0.355,0.294,1.025,0.58,1.501,0.747C4.012,4.235,4.573,3.63,5.007,2.936z M-1.228-4.425
		c-0.2-0.741-0.845-1.519-1.428-2.2C-5.182-5.733-7-3.328-7-0.5c0,3.09,2.17,5.679,5.065,6.335c0.024-0.12,0.042-0.239,0.035-0.354
		c-0.033-0.545-0.774-3.714-3.385-4.584c-0.13-0.043-0.251-0.077-0.37-0.108c0.125-0.296,0.517-0.601,0.859-0.715
		c0.446-0.148,2.141,0.237,2.914-0.651S-0.889-3.173-1.228-4.425z M-1,0c-1.105,0-2,0.895-2,2s0.895,2,2,2s2-0.895,2-2S0.105,0-1,0z
		 M0.624,5.059C0.593,5.233,0.642,5.413,0.759,5.547l0.237,0.272c0.655-0.155,1.27-0.409,1.832-0.746
		c-0.49-0.238-1.087-0.51-1.349-0.559C1.304,4.481,1.104,4.549,0.922,4.647C0.766,4.732,0.656,4.884,0.624,5.059z M3.371-5.709
		C3.486-4.836,3.6-3.837,3.56-3.597C3.322-2.176,2.503-3.123,1.33-1.821c-1.172,1.303-0.148,2.547,1.279,3.05
		c0.968,0.341,2.398-0.055,3.22-0.346C5.929,0.436,6-0.022,6-0.5C6-2.633,4.963-4.523,3.371-5.709z"/>
	<path fill="#FFFFFF" d="M-2,2c0,0.552,0.448,1,1,1s1-0.448,1-1s-0.448-1-1-1S-2,1.448-2,2z"/>
</symbol>
<use xlink:href="#CountryReport"  width="30" height="30" id="XMLID_1_" x="-15" y="-15" transform="matrix(1 0 0 -1 15 15)" overflow="visible"/>
</svg>
