<?xml version="1.0" encoding="utf-8"?>
<!-- Generator: Adobe Illustrator 17.0.0, SVG Export Plug-In . SVG Version: 6.00 Build 0)  -->
<!DOCTYPE svg PUBLIC "-//W3C//DTD SVG 1.1//EN" "http://www.w3.org/Graphics/SVG/1.1/DTD/svg11.dtd">
<svg version="1.1" id="Layer_1" xmlns="http://www.w3.org/2000/svg" xmlns:xlink="http://www.w3.org/1999/xlink" x="0px" y="0px"
	 width="13px" height="16px" viewBox="8 7 13 16" enable-background="new 8 7 13 16" xml:space="preserve">
<symbol  id="HSE_x5F_Monthly" viewBox="-15 -15 30 30">
	<polygon fill="none" points="15,-15 -15,-15 -15,15 15,15 	"/>
	<path fill="#FFFFFF" d="M-6,2v-4.5h0.521v1.521H-5V-0.5h3.5v-2H-1v2h1.5V-2H1v1.5h1.5V-2h-2v-0.5h2V-4h-2v-0.5h2V-6h-2v-1H5
		c0.552,0,1,0.448,1,1v8H-6z M-3.5,0H-5v1h1.5V0z M-1.5,0H-3v1h1.5V0z M0.5,0H-1v1h1.5V0z M2.5,0H1v1h1.5V0z M4.5-6H3v1.5h1.5V-6z
		 M4.5-4H3v1.5h1.5V-4z M4.5-2H3v1.5h1.5V-2z M4.5,0H3v1h1.5V0z"/>
	<path fill="#FFFFFF" d="M-3.5,4L-3.5,4C-3.776,4-4,4.224-4,4.5v3C-4,7.776-3.776,8-3.5,8l0,0C-3.224,8-3,7.776-3,7.5v-3
		C-3,4.224-3.224,4-3.5,4z"/>
	<path fill="#FFFFFF" d="M5,6H4.5V4.536c0-0.561-0.449-1.018-1-1.018s-1,0.457-1,1.018V6h-5V4.536c0-0.561-0.449-1.018-1-1.018
		s-1,0.457-1,1.018V6H-5c-0.552,0-1-0.456-1-1.018V2.5H6v2.482C6,5.544,5.552,6,5,6z"/>
	<path fill="#FFFFFF" d="M3.5,4L3.5,4C3.224,4,3,4.224,3,4.5v3C3,7.776,3.224,8,3.5,8l0,0C3.776,8,4,7.776,4,7.5v-3
		C4,4.224,3.776,4,3.5,4z"/>
	<path fill="#FFFFFF" d="M-1-3h-1v1.5C-2-1.224-2.224-1-2.5-1h-2C-4.776-1-5-1.224-5-1.5V-3h-1c-0.552,0-1-0.448-1-1v-3
		c0-0.552,0.448-1,1-1h5c0.552,0,1,0.448,1,1v3C0-3.448-0.448-3-1-3z M-4-2h1v-1h-1V-2z M-2-6h-1v-1h-1v1h-1v1h1v1h1v-1h1V-6z"/>
</symbol>
<use xlink:href="#HSE_x5F_Monthly"  width="30" height="30" id="XMLID_1_" x="-15" y="-15" transform="matrix(1 0 0 -1 15 15)" overflow="visible"/>
</svg>
