<?xml version="1.0" encoding="utf-8"?>
<!-- Generator: Adobe Illustrator 17.0.0, SVG Export Plug-In . SVG Version: 6.00 Build 0)  -->
<!DOCTYPE svg PUBLIC "-//W3C//DTD SVG 1.1//EN" "http://www.w3.org/Graphics/SVG/1.1/DTD/svg11.dtd">
<svg version="1.1" id="Layer_1" xmlns="http://www.w3.org/2000/svg" xmlns:xlink="http://www.w3.org/1999/xlink" x="0px" y="0px"
	 width="24px" height="16px" viewBox="0.484 21.625 24 16" enable-background="new 0.484 21.625 24 16" xml:space="preserve">
<symbol  id="GoodsTransp" viewBox="-11 -8 22 14">
	<g>
		<path fill="#FFFFFF" d="M2.5-3.5H-11V5c0,0.552,0.448,1,1,1H1.5c0.552,0,1-0.448,1-1V-3.5z"/>
		<path fill="#FFFFFF" d="M5-6c0-1.105,0.895-2,2-2s2,0.895,2,2S8.105-4,7-4S5-4.895,5-6z"/>
		<path fill="#FFFFFF" d="M-9-6c0-1.105,0.895-2,2-2s2,0.895,2,2s-0.895,2-2,2S-9-4.895-9-6z"/>
		<path fill="#FFFFFF" d="M8.323,4H4C3.448,4,3,3.552,3,3v-6.5h8v2.306c0,0.127-0.024,0.253-0.071,0.371L9.251,3.371
			C9.1,3.751,8.732,4,8.323,4z M4-1v3h4l1-3H4z"/>
	</g>
	<g>
		<path fill="#FFFFFF" d="M-5.516-4C-4.903-4.456-4.5-5.179-4.5-6H4v2H-5.516z"/>
		<path fill="#FFFFFF" d="M-8.484-4H-11v-2h1.5C-9.5-5.179-9.097-4.456-8.484-4z"/>
	</g>
	<g>
		<path fill="#FFFFFF" d="M5.516-4H3v-2h1.5C4.5-5.179,4.903-4.456,5.516-4z"/>
		<path fill="#FFFFFF" d="M8.484-4C9.097-4.456,9.5-5.179,9.5-6H11v2H8.484z"/>
	</g>
</symbol>
<use xlink:href="#GoodsTransp"  width="22" height="14" id="XMLID_3_" x="-11" y="-8" transform="matrix(1 0 0 -1 12.484 28.625)" overflow="visible"/>
</svg>
