<?xml version="1.0" encoding="utf-8"?>
<!-- Generator: Adobe Illustrator 17.0.0, SVG Export Plug-In . SVG Version: 6.00 Build 0)  -->
<!DOCTYPE svg PUBLIC "-//W3C//DTD SVG 1.1//EN" "http://www.w3.org/Graphics/SVG/1.1/DTD/svg11.dtd">
<svg version="1.1" id="Layer_1" xmlns="http://www.w3.org/2000/svg" xmlns:xlink="http://www.w3.org/1999/xlink" x="0px" y="0px"
	 width="17px" height="15px" viewBox="0 0 17 15" enable-background="new 0 0 17 15" xml:space="preserve">
<symbol  id="Health_x5F_n_x5F_Safety" viewBox="-9 -7 17 15">
	<path fill="#FFFFFF" d="M7.933,1.921c-0.008,0.055-0.017,0.11-0.025,0.165c-0.045,0.293-0.106,0.58-0.187,0.86c0,0,0,0.001,0,0.002
		h0C7.035,5.314,5.137,7.158,2.741,7.773v0c0,0,0,0-0.001,0C2.479,7.84,2.214,7.893,1.942,7.929
		C1.915,7.933,1.887,7.938,1.859,7.942C1.577,7.977,1.292,8,1,8C0.687,8,0.381,7.972,0.079,7.933
		c-0.055-0.007-0.11-0.016-0.165-0.025c-0.293-0.046-0.581-0.106-0.86-0.187c0,0,0,0-0.001,0v0c-2.37-0.685-4.216-2.587-4.828-4.987
		v0c-0.066-0.26-0.119-0.525-0.155-0.796c-0.004-0.027-0.009-0.053-0.012-0.08C-5.977,1.575-5.95,1.286-6,1
		c-0.001-0.006,2.999,0.003,3,0c0.084-0.196,0.031,0.418,0.063,0.622c0.022,0.122,0.044,0.245,0.075,0.364
		c0.348,1.359,1.387,2.429,2.725,2.829c0.164,0.049,0.333,0.089,0.503,0.121C0.574,4.969,0.783,5,1,5
		c0.212,0,0.417-0.031,0.621-0.063C1.746,4.915,1.872,4.891,1.994,4.86c1.354-0.35,2.421-1.388,2.821-2.722
		c0.049-0.165,0.089-0.333,0.121-0.504C4.969,1.426,5,1.217,5,1c0-0.213-0.031-0.417-0.062-0.621
		C4.915,0.254,4.892,0.128,4.86,0.006C4.498-1.397,3.398-2.496,1.996-2.859v0C1.873-2.891,1.747-2.915,1.62-2.937
		C1.417-2.969,1.212-3,1-3C0.993-3,0.986-2.998,0.979-2.998v-3.001C0.986-5.999,0.993-6,1-6c0.299,0,0.591,0.025,0.88,0.061
		c0.035,0.005,0.069,0.011,0.104,0.016c2.819,0.398,5.093,2.47,5.789,5.182c0,0,0,0.001,0,0.001C7.84-0.48,7.893-0.214,7.929,0.058
		c0.004,0.028,0.009,0.055,0.013,0.083C7.977,0.423,8,0.708,8,1C8,1.313,7.972,1.619,7.933,1.921z M-3.345,2.11L-5.29,2.609
		c0.569,2.224,2.282,3.99,4.478,4.629l0.541-1.943C-1.78,4.846-2.953,3.641-3.345,2.11z M2.118,5.342l0.499,1.946
		C4.836,6.717,6.6,5.005,7.238,2.813L5.294,2.272C4.847,3.777,3.645,4.948,2.118,5.342z M2.667-5.275L2.129-3.339
		c1.574,0.411,2.807,1.645,3.213,3.221l1.946-0.499C6.704-2.885,4.928-4.673,2.667-5.275z"/>
	<path fill="#FFFFFF" d="M-4,5c-0.552,0-1-0.448-1-1V3h1v1h2V3h1v1c0,0.552-0.448,1-1,1H-4z"/>
	<path fill="#FFFFFF" d="M2,3H-8c-0.552,0-1-0.56-1-1.25v-7.5C-9-6.44-8.552-7-8-7H2c0.552,0,1,0.56,1,1.25v7.5C3,2.44,2.552,3,2,3z
		 M0-3h-2v-2h-2v2h-2v2h2v2h2v-2h2V-3z"/>
</symbol>
<use xlink:href="#Health_x5F_n_x5F_Safety"  width="17" height="15" id="XMLID_187_" x="-9" y="-7" transform="matrix(1 0 0 -1 9 8)" overflow="visible"/>
</svg>
