<?xml version="1.0" encoding="utf-8"?>
<!-- Generator: Adobe Illustrator 17.0.0, SVG Export Plug-In . SVG Version: 6.00 Build 0)  -->
<!DOCTYPE svg PUBLIC "-//W3C//DTD SVG 1.1//EN" "http://www.w3.org/Graphics/SVG/1.1/DTD/svg11.dtd">
<svg version="1.1" id="Layer_1" xmlns="http://www.w3.org/2000/svg" xmlns:xlink="http://www.w3.org/1999/xlink" x="0px" y="0px"
	 width="17px" height="16px" viewBox="6.5 7 17 16" enable-background="new 6.5 7 17 16" xml:space="preserve">
<symbol  id="KeyInfo" viewBox="-15 -15 30 30">
	<g>
		<path fill="#FFFFFF" d="M3.5,8c-2.761,0-5-2.239-5-5s2.239-5,5-5s5,2.239,5,5S6.261,8,3.5,8z M4.5,2c-1.104,0-2,0.896-2,2
			s0.896,2,2,2s2-0.896,2-2S5.604,2,4.5,2z"/>
		<polygon fill="#FFFFFF" points="-7.5,-5 0.5,3 3.5,1 1.5,-1 1.5,-2 0.5,-3 -0.5,-2 -1.5,-3 -2.5,-4 -2.5,-5 -3.5,-6 -4.5,-6 
			-4.5,-7 -5.5,-8 -7.5,-8 -8.5,-7 		"/>
	</g>
	<polygon fill="none" points="15,-15 -15,-15 -15,15 15,15 	"/>
</symbol>
<use xlink:href="#KeyInfo"  width="30" height="30" id="XMLID_1_" x="-15" y="-15" transform="matrix(1 0 0 -1 15 15)" overflow="visible"/>
</svg>
