<?xml version="1.0" encoding="utf-8"?>
<!-- Generator: Adobe Illustrator 17.0.0, SVG Export Plug-In . SVG Version: 6.00 Build 0)  -->
<!DOCTYPE svg PUBLIC "-//W3C//DTD SVG 1.1//EN" "http://www.w3.org/Graphics/SVG/1.1/DTD/svg11.dtd">
<svg version="1.1" id="Layer_1" xmlns="http://www.w3.org/2000/svg" xmlns:xlink="http://www.w3.org/1999/xlink" x="0px" y="0px"
	 width="19.074px" height="20.5px" viewBox="5.466 4.5 19.074 20.5" enable-background="new 5.466 4.5 19.074 20.5"
	 xml:space="preserve">
<symbol  id="LandUseChanged" viewBox="-15 -15 30 30">
	<g>
		<g>
			<path fill="#FFFFFF" d="M-2-10h4c0,0-1,0.708-1,2c0,0.562,0,4,0,4l3,4H3L0-3v3l-1,1v-3l-2,2h-1l3-4c0,0,0-3.125,0-4
				C-1-9.583-2-10-2-10z"/>
		</g>
		<g>
			<path fill="#FFFFFF" d="M3,0c0,1.105,0.895,2,2,2s2-0.895,2-2S6.105-2,5-2S3-1.105,3,0z"/>
		</g>
		<g>
			<path fill="#FFFFFF" d="M-1,1.5C-1,2.881,0.119,4,1.5,4S4,2.881,4,1.5S2.881-1,1.5-1S-1,0.119-1,1.5z"/>
		</g>
		<g>
			<path fill="#FFFFFF" d="M-4,2c0,1.657,1.343,3,3,3s3-1.343,3-3S0.657-1-1-1S-4,0.343-4,2z"/>
		</g>
		<g>
			<path fill="#FFFFFF" d="M-3,5.5C-3,6.881-1.881,8-0.5,8S2,6.881,2,5.5S0.881,3-0.5,3S-3,4.119-3,5.5z"/>
		</g>
		<g>
			<path fill="#FFFFFF" d="M-7,1c0,1.105,0.895,2,2,2s2-0.895,2-2s-0.895-2-2-2S-7-0.105-7,1z"/>
		</g>
		<g>
			<path fill="#FFFFFF" d="M-6,4c0,1.105,0.895,2,2,2s2-0.895,2-2s-0.895-2-2-2S-6,2.895-6,4z"/>
		</g>
		<g>
			<path fill="#FFFFFF" d="M-2,3c0,2.209,1.791,4,4,4s4-1.791,4-4S4.209-1,2-1S-2,0.791-2,3z"/>
		</g>
	</g>
	<g>
		<path fill="#FFFFFF" d="M9.497-0.056L8.503,0.055c0.005,0.042,0.436,4.262-2.035,7.018C5.024,8.684,2.86,9.5,0.034,9.5
			c-2.828,0-5-0.818-6.455-2.43c-2.488-2.757-2.086-6.976-2.082-7.018l-0.995-0.104c-0.02,0.19-0.457,4.693,2.329,7.786
			C-5.515,9.569-3.092,10.5,0.034,10.5s5.543-0.93,7.184-2.765C9.985,4.641,9.519,0.135,9.497-0.056z"/>
	</g>
	<polygon fill="none" points="15,-15 -15,-15 -15,15 15,15 	"/>
</symbol>
<use xlink:href="#LandUseChanged"  width="30" height="30" id="XMLID_154_" x="-15" y="-15" transform="matrix(1 0 0 -1 15 15)" overflow="visible"/>
</svg>
