<?xml version="1.0" encoding="utf-8"?>
<!-- Generator: Adobe Illustrator 17.0.0, SVG Export Plug-In . SVG Version: 6.00 Build 0)  -->
<!DOCTYPE svg PUBLIC "-//W3C//DTD SVG 1.1//EN" "http://www.w3.org/Graphics/SVG/1.1/DTD/svg11.dtd">
<svg version="1.1" id="Layer_1" xmlns="http://www.w3.org/2000/svg" xmlns:xlink="http://www.w3.org/1999/xlink" x="0px" y="0px"
	 width="14px" height="17px" viewBox="8 5 14 17" enable-background="new 8 5 14 17" xml:space="preserve">
<symbol  id="Building_x5F_n_x5F_Loc_x5F_Report" viewBox="-15 -15 30 30">
	<polygon fill="none" points="15,-15 -15,-15 -15,15 15,15 	"/>
	<polygon fill="#FFFFFF" points="6,3.5 2,3.5 2,7 6,7 	"/>
	<polygon fill="#FFFFFF" points="5.5,7.5 2.5,7.5 4,10 	"/>
	<path fill="#FFFFFF" d="M1,3V2.443C2.19,1.75,3,0.474,3-1c0-1.198-1.081-3.232-2-4.747V-6h2.5v2h1v-2H7v9H1z"/>
	<g>
		<path fill="#FFFFFF" d="M-2,2.858V6l-5-2V2.562h4.219C-2.533,2.687-2.274,2.787-2,2.858z"/>
		<path fill="#FFFFFF" d="M-3.542,2.062H-7V0.5h2.298C-4.452,1.116-4.045,1.644-3.542,2.062z"/>
		<path fill="#FFFFFF" d="M-4.841-1.938H-7v-1.625h2.801C-4.471-2.995-4.699-2.438-4.841-1.938z"/>
		<path fill="#FFFFFF" d="M-5-1c0,0.347,0.058,0.679,0.142,1H-7v-1.438h2.043C-4.983-1.283-5-1.135-5-1z"/>
		<path fill="#FFFFFF" d="M-3.95-4.062H-7V-6h4C-3.27-5.547-3.694-4.558-3.95-4.062z"/>
	</g>
	<path fill="#FFFFFF" d="M-1,2c-1.657,0-3-1.343-3-3s3-6,3-6s3,4.343,3,6S0.657,2-1,2z M-1-2.5c-0.827,0-1.5,0.673-1.5,1.5
		S-1.827,0.5-1,0.5S0.5-0.173,0.5-1S-0.173-2.5-1-2.5z"/>
</symbol>
<use xlink:href="#Building_x5F_n_x5F_Loc_x5F_Report"  width="30" height="30" id="XMLID_1_" x="-15" y="-15" transform="matrix(1 0 0 -1 15 15)" overflow="visible"/>
</svg>
