<?xml version="1.0" encoding="utf-8"?>
<!-- Generator: Adobe Illustrator 17.0.0, SVG Export Plug-In . SVG Version: 6.00 Build 0)  -->
<!DOCTYPE svg PUBLIC "-//W3C//DTD SVG 1.1//EN" "http://www.w3.org/Graphics/SVG/1.1/DTD/svg11.dtd">
<svg version="1.1" id="Layer_1" xmlns="http://www.w3.org/2000/svg" xmlns:xlink="http://www.w3.org/1999/xlink" x="0px" y="0px"
	 width="14px" height="16px" viewBox="-1 -1 14 16" enable-background="new -1 -1 14 16" xml:space="preserve">
<g>
	<g>
		<g>
			<path fill="#FFFFFF" d="M12,14L12,14V0H0v10v4H12L12,14L12,14z M2,2h8v1H2V2z M2,4h8v3H2V4z M3,8h7v3H9l2,2h-0.5L3,8
				C2.83,8.481,2.44,8.74,2,8.886V8H3z M1.531,9C1.349,9.028,1.172,9.046,1,9.05V9H1.531z M1,13V9.435
				c1.87,0.79,5.946,2.477,8.578,3.565H1z"/>
		</g>
	</g>
</g>
</svg>
