<?xml version="1.0" encoding="utf-8"?>
<!-- Generator: Adobe Illustrator 17.0.0, SVG Export Plug-In . SVG Version: 6.00 Build 0)  -->
<!DOCTYPE svg PUBLIC "-//W3C//DTD SVG 1.1//EN" "http://www.w3.org/Graphics/SVG/1.1/DTD/svg11.dtd">
<svg version="1.1" id="Layer_1" xmlns="http://www.w3.org/2000/svg" xmlns:xlink="http://www.w3.org/1999/xlink" x="0px" y="0px"
	 width="14px" height="13px" viewBox="8 8 14 13" enable-background="new 8 8 14 13" xml:space="preserve">
<symbol  id="Portfolio_x5F_report" viewBox="-15 -15 30 30">
	<polygon fill="none" points="15,-15 -15,-15 -15,15 15,15 	"/>
	<path fill="#FFFFFF" d="M6-1.5H1.5V-3c0-0.276-0.224-0.5-0.5-0.5h-2c-0.276,0-0.5,0.224-0.5,0.5v1.5H-6c-0.386,0-0.734,0.15-1,0.39
		V-5c0-0.552,0.448-1,1-1H6c0.552,0,1,0.448,1,1v3.89C6.734-1.35,6.386-1.5,6-1.5z"/>
	<path fill="#FFFFFF" d="M-7,5V0c0-0.552,0.448-1,1-1h4.5v1c0,0.276,0.224,0.5,0.5,0.5h2c0.276,0,0.5-0.224,0.5-0.5v-1H6
		c0.552,0,1,0.448,1,1v5H-7z"/>
	<polygon fill="#FFFFFF" points="1,-3 -1,-3 -1,0 1,0 	"/>
	<path fill="#FFFFFF" d="M-2,7c-0.552,0-1-0.448-1-1V5h1v1h4V5h1v1c0,0.552-0.448,1-1,1H-2z"/>
</symbol>
<use xlink:href="#Portfolio_x5F_report"  width="30" height="30" id="XMLID_1_" x="-15" y="-15" transform="matrix(1 0 0 -1 15 15)" overflow="visible"/>
</svg>
