<?xml version="1.0" encoding="utf-8"?>
<!-- Generator: Adobe Illustrator 17.0.0, SVG Export Plug-In . SVG Version: 6.00 Build 0)  -->
<!DOCTYPE svg PUBLIC "-//W3C//DTD SVG 1.1//EN" "http://www.w3.org/Graphics/SVG/1.1/DTD/svg11.dtd">
<svg version="1.1" id="Layer_1" xmlns="http://www.w3.org/2000/svg" xmlns:xlink="http://www.w3.org/1999/xlink" x="0px" y="0px"
	 width="20.387px" height="23.482px" viewBox="4.613 4 20.387 23.482" enable-background="new 4.613 4 20.387 23.482"
	 xml:space="preserve">
<symbol  id="Scope2" viewBox="-15 -15 30 30">
	<g>
		<g>
			<polygon fill="#FFFFFF" points="-1,9 8,0 6,-2 5,-2 -3,6 -3,7 			"/>
		</g>
		<g>
			<polygon fill="#FFFFFF" points="-9,-4 -9,-5 -6,-8 -5,-8 			"/>
		</g>
		<g>
			<polygon fill="#FFFFFF" points="-7.5,-2.5 -8.5,-3.5 -4.5,-7.5 -3.5,-6.5 			"/>
		</g>
		<g>
			<polygon fill="#FFFFFF" points="-6,-1 -7,-2 -3,-6 -2,-5 			"/>
		</g>
		<g>
			<polygon fill="#FFFFFF" points="1,-5 4,-2 -3,5 -6,2 -6,-1 -2,-5 			"/>
		</g>
		<g>
			<path fill="#FFFFFF" d="M-9.913-12.482c-0.936,2.093-0.462,4.522,1.206,6.189l4,4l1.414-1.414l-4-4
				C-8.386-8.8-8.69-10.316-8.087-11.666L-9.913-12.482z"/>
		</g>
		<g>
			<path fill="#FFFFFF" d="M0,5c-0.256,0-0.512,0.098-0.707,0.293c-0.391,0.391-0.391,1.023,0,1.414l4,4
				c0.391,0.391,1.023,0.391,1.414,0s0.391-1.023,0-1.414l-4-4C0.512,5.098,0.256,5,0,5z"/>
		</g>
		<g>
			<path fill="#FFFFFF" d="M5,0C4.744,0,4.488,0.098,4.293,0.293c-0.391,0.391-0.391,1.023,0,1.414l4,4
				c0.391,0.391,1.023,0.391,1.414,0s0.391-1.023,0-1.414l-4-4C5.512,0.098,5.256,0,5,0z"/>
		</g>
	</g>
	<polygon fill="none" points="15,-15 -15,-15 -15,15 15,15 	"/>
</symbol>
<use xlink:href="#Scope2"  width="30" height="30" id="XMLID_160_" x="-15" y="-15" transform="matrix(1 0 0 -1 15 14.9998)" overflow="visible"/>
</svg>
