<?xml version="1.0" encoding="utf-8"?>
<!-- Generator: Adobe Illustrator 17.0.0, SVG Export Plug-In . SVG Version: 6.00 Build 0)  -->
<!DOCTYPE svg PUBLIC "-//W3C//DTD SVG 1.1//EN" "http://www.w3.org/Graphics/SVG/1.1/DTD/svg11.dtd">
<svg version="1.1" id="Layer_1" xmlns="http://www.w3.org/2000/svg" xmlns:xlink="http://www.w3.org/1999/xlink" x="0px" y="0px"
	 width="20.248px" height="20.248px" viewBox="4.876 4.876 20.248 20.248" enable-background="new 4.876 4.876 20.248 20.248"
	 xml:space="preserve">
<symbol  id="Scope3" viewBox="-15 -15 30 30">
	<g>
		<path fill="#FFFFFF" d="M-8.124-8.124h1l8,7l8,8c0,0,1.917,2.083,1,3s-3-1-3-1l-8-8l-7-8V-8.124z"/>
		<polygon fill="#FFFFFF" points="-9.124,8.876 2.876,5.876 5.876,2.876 7.876,-9.124 6.876,-10.124 2.876,-0.124 -0.124,2.876 
			-10.124,7.876 		"/>
		<polygon fill="#FFFFFF" points="-9.124,-4.124 -5.124,-4.124 -4.124,-5.124 -4.124,-9.124 -5.124,-10.124 -6.124,-6.124 
			-10.124,-5.124 		"/>
	</g>
	<polygon fill="none" points="15,-15 -15,-15 -15,15 15,15 	"/>
	<polygon fill="#FFFFFF" points="-8,6 -5,9 -4,8 -7,5 	"/>
	<polygon fill="#FFFFFF" points="6,-8 9,-5 8,-4 5,-7 	"/>
</symbol>
<use xlink:href="#Scope3"  width="30" height="30" id="XMLID_143_" x="-15" y="-15" transform="matrix(1 0 0 -1 15 15)" overflow="visible"/>
</svg>
