<?xml version="1.0" encoding="utf-8"?>
<!-- Generator: Adobe Illustrator 17.0.0, SVG Export Plug-In . SVG Version: 6.00 Build 0)  -->
<!DOCTYPE svg PUBLIC "-//W3C//DTD SVG 1.1//EN" "http://www.w3.org/Graphics/SVG/1.1/DTD/svg11.dtd">
<svg version="1.1" id="Layer_1" xmlns="http://www.w3.org/2000/svg" xmlns:xlink="http://www.w3.org/1999/xlink" x="0px" y="0px"
	 width="16px" height="16px" viewBox="7 7 16 16" enable-background="new 7 7 16 16" xml:space="preserve">
<symbol  id="StandardReport" viewBox="-15 -15 30 30">
	<polygon fill="none" points="15,-15 -15,-15 -15,15 15,15 	"/>
	<g>
		<path fill="#FFFFFF" d="M-2.279,2.351c-1.249,0.429-2.956,0.88-4.925,1.112C-7.709,2.414-8,1.242-8,0c0-0.87,0.143-1.706,0.4-2.49
			C-5.541,0.131-3.529,1.609-2.279,2.351z"/>
		<path fill="#FFFFFF" d="M0.051,3.273c-0.58,1.186-1.468,2.712-2.697,4.269C-4.6,6.857-6.204,5.439-7.131,3.613
			C-3.824,4.01-1.357,3.634,0.051,3.273z"/>
		<path fill="#FFFFFF" d="M2.351,2.279c0.429,1.249,0.88,2.956,1.112,4.925C2.413,7.708,1.242,8,0,8c-0.87,0-1.706-0.144-2.49-0.4
			C0.131,5.541,1.609,3.529,2.351,2.279z"/>
		<path fill="#FFFFFF" d="M3.273-0.051c1.186,0.58,2.713,1.468,4.269,2.697C6.857,4.6,5.439,6.204,3.613,7.131
			C4.01,3.824,3.633,1.357,3.273-0.051z"/>
		<path fill="#FFFFFF" d="M2.279-2.351c1.249-0.429,2.956-0.88,4.925-1.112C7.709-2.414,8-1.242,8,0c0,0.87-0.143,1.706-0.4,2.49
			C5.541-0.131,3.529-1.609,2.279-2.351z"/>
		<path fill="#FFFFFF" d="M-0.051-3.273c0.58-1.186,1.468-2.712,2.697-4.269C4.6-6.857,6.204-5.439,7.131-3.613
			C3.824-4.01,1.357-3.634-0.051-3.273z"/>
		<path fill="#FFFFFF" d="M-2.351-2.279c-0.429-1.249-0.88-2.956-1.112-4.925C-2.413-7.708-1.242-8,0-8c0.87,0,1.706,0.144,2.49,0.4
			C-0.131-5.541-1.609-3.529-2.351-2.279z"/>
		<path fill="#FFFFFF" d="M-3.273,0.051c-1.186-0.58-2.713-1.468-4.269-2.697C-6.857-4.6-5.439-6.204-3.613-7.131
			C-4.01-3.824-3.633-1.357-3.273,0.051z"/>
	</g>
</symbol>
<use xlink:href="#StandardReport"  width="30" height="30" id="XMLID_1_" x="-15" y="-15" transform="matrix(1 0 0 -1 15 15)" overflow="visible"/>
</svg>
