<?xml version="1.0" encoding="utf-8"?>
<!-- Generator: Adobe Illustrator 17.0.0, SVG Export Plug-In . SVG Version: 6.00 Build 0)  -->
<!DOCTYPE svg PUBLIC "-//W3C//DTD SVG 1.1//EN" "http://www.w3.org/Graphics/SVG/1.1/DTD/svg11.dtd">
<svg version="1.1" id="Layer_1" xmlns="http://www.w3.org/2000/svg" xmlns:xlink="http://www.w3.org/1999/xlink" x="0px" y="0px"
	 width="14px" height="13px" viewBox="8 9 14 13" enable-background="new 8 9 14 13" xml:space="preserve">
<symbol  id="UnitReport" viewBox="-15 -15 30 30">
	<polygon fill="none" points="15,-15 -15,-15 -15,15 15,15 	"/>
	<g>
		<g>
			<path fill="#FFFFFF" d="M3,3h-6c-0.552,0-1,0.448-1,1v1c0,0.552,0.448,1,1,1h6c0.552,0,1-0.448,1-1V4C4,3.448,3.552,3,3,3z"/>
		</g>
	</g>
	<g>
		<g>
			<path fill="#FFFFFF" d="M-4-2h-2c-0.552,0-1,0.448-1,1v1c0,0.552,0.448,1,1,1h2c0.552,0,1-0.448,1-1v-1C-3-1.552-3.448-2-4-2z"/>
		</g>
	</g>
	<g>
		<g>
			<path fill="#FFFFFF" d="M1.167-3h-2.333C-1.627-3-2-2.627-2-2.167v1.333C-2-0.373-1.627,0-1.167,0h2.333C1.627,0,2-0.373,2-0.833
				v-1.333C2-2.627,1.627-3,1.167-3z"/>
		</g>
	</g>
	<g>
		<g>
			<path fill="#FFFFFF" d="M6-2H4C3.448-2,3-1.552,3-1v1c0,0.552,0.448,1,1,1h2c0.552,0,1-0.448,1-1v-1C7-1.552,6.552-2,6-2z"/>
		</g>
	</g>
	<g>
		<polygon fill="#FFFFFF" points="-4.646,0.646 -5.354,1.354 -3.354,3.354 -2.646,2.646 		"/>
	</g>
	<g>
		<polygon fill="#FFFFFF" points="4.646,0.646 2.646,2.646 3.354,3.354 5.354,1.354 		"/>
	</g>
	<g>
		<polygon fill="#FFFFFF" points="0.5,0 -0.5,0 -0.5,3 0.5,3 		"/>
	</g>
	<g>
		<path fill="#FFFFFF" d="M6.5-4h-3C3.224-4,3-3.776,3-3.5l0,0C3-3.224,3.224-3,3.5-3h3C6.776-3,7-3.224,7-3.5l0,0
			C7-3.776,6.776-4,6.5-4z"/>
	</g>
	<g>
		<path fill="#FFFFFF" d="M6.5-6h-3C3.224-6,3-5.776,3-5.5l0,0C3-5.224,3.224-5,3.5-5h3C6.776-5,7-5.224,7-5.5l0,0
			C7-5.776,6.776-6,6.5-6z"/>
	</g>
	<g>
		<path fill="#FFFFFF" d="M1.5-5h-3C-1.776-5-2-4.776-2-4.5l0,0C-2-4.224-1.776-4-1.5-4h3C1.776-4,2-4.224,2-4.5l0,0
			C2-4.776,1.776-5,1.5-5z"/>
	</g>
	<g>
		<path fill="#FFFFFF" d="M1.5-7h-3C-1.776-7-2-6.776-2-6.5l0,0C-2-6.224-1.776-6-1.5-6h3C1.776-6,2-6.224,2-6.5l0,0
			C2-6.776,1.776-7,1.5-7z"/>
	</g>
	<g>
		<path fill="#FFFFFF" d="M-3.5-4h-3C-6.776-4-7-3.776-7-3.5l0,0C-7-3.224-6.776-3-6.5-3h3C-3.224-3-3-3.224-3-3.5l0,0
			C-3-3.776-3.224-4-3.5-4z"/>
	</g>
	<g>
		<path fill="#FFFFFF" d="M-3.5-6h-3C-6.776-6-7-5.776-7-5.5l0,0C-7-5.224-6.776-5-6.5-5h3C-3.224-5-3-5.224-3-5.5l0,0
			C-3-5.776-3.224-6-3.5-6z"/>
	</g>
</symbol>
<use xlink:href="#UnitReport"  width="30" height="30" id="XMLID_123_" x="-15" y="-15" transform="matrix(1 0 0 -1 15 15)" overflow="visible"/>
</svg>
