<?xml version="1.0" encoding="utf-8"?>
<!-- Generator: Adobe Illustrator 17.0.0, SVG Export Plug-In . SVG Version: 6.00 Build 0)  -->
<!DOCTYPE svg PUBLIC "-//W3C//DTD SVG 1.1//EN" "http://www.w3.org/Graphics/SVG/1.1/DTD/svg11.dtd">
<svg version="1.1" id="Layer_1" xmlns="http://www.w3.org/2000/svg" xmlns:xlink="http://www.w3.org/1999/xlink" x="0px" y="0px"
	 width="11px" height="16px" viewBox="9.5 6 11 16" enable-background="new 9.5 6 11 16" xml:space="preserve">
<symbol  id="WasteIcon" viewBox="-15 -15 30 30">
	<path fill="#FFFFFF" d="M-5,5V-6c0-0.552,0.448-1,1-1h8c0.552,0,1,0.448,1,1V5H-5z M-1-5h-1v8h1V-5z M-3.5-5H-4v8h0.5V-5z M4-5H3.5
		v8H4V-5z M2-5H1v8h1V-5z"/>
	<polygon fill="#FFFFFF" points="5.5,6 -5.5,6 -5.5,7 5.5,7 	"/>
	<path fill="#FFFFFF" d="M2,7H1v1h-2V7h-1v1c0,0.552,0.448,1,1,1h2c0.552,0,1-0.448,1-1V7z"/>
	<polygon fill="none" points="15,-15 -15,-15 -15,15 15,15 	"/>
</symbol>
<use xlink:href="#WasteIcon"  width="30" height="30" id="XMLID_2_" x="-15" y="-15" transform="matrix(1 0 0 -1 15 15)" overflow="visible"/>
</svg>
