<?xml version="1.0" encoding="utf-8"?>
<!-- Generator: Adobe Illustrator 17.0.0, SVG Export Plug-In . SVG Version: 6.00 Build 0)  -->
<!DOCTYPE svg PUBLIC "-//W3C//DTD SVG 1.1//EN" "http://www.w3.org/Graphics/SVG/1.1/DTD/svg11.dtd">
<svg version="1.1" id="Layer_1" xmlns="http://www.w3.org/2000/svg" xmlns:xlink="http://www.w3.org/1999/xlink" x="0px" y="0px"
	 width="14.317px" height="15.623px" viewBox="0 0 14.317 15.623" enable-background="new 0 0 14.317 15.623" xml:space="preserve">
<path fill="#FFFFFF" d="M5.281,9.102c0-1.736,1.522-4.159,2.755-5.84C6.746,1.419,5.533,0,5.533,0S0,6.472,0,9.728
	c0,3.256,2.477,5.895,5.533,5.895c1.32,0,2.53-0.494,3.481-1.316C6.861,13.652,5.281,11.569,5.281,9.102z"/>
<path fill="#FFFFFF" d="M6.583,9.102c0,2.276,1.732,4.12,3.867,4.12s3.867-1.845,3.867-4.12S10.45,2.303,10.45,2.303
	S6.583,6.826,6.583,9.102z"/>
</svg>
