<?xml version="1.0" encoding="utf-8"?>
<!-- Generator: Adobe Illustrator 17.0.0, SVG Export Plug-In . SVG Version: 6.00 Build 0)  -->
<!DOCTYPE svg PUBLIC "-//W3C//DTD SVG 1.1//EN" "http://www.w3.org/Graphics/SVG/1.1/DTD/svg11.dtd">
<svg version="1.1" id="Layer_1" xmlns="http://www.w3.org/2000/svg" xmlns:xlink="http://www.w3.org/1999/xlink" x="0px" y="0px"
	 width="12px" height="15px" viewBox="9 6 12 15" enable-background="new 9 6 12 15" xml:space="preserve">
<symbol  id="YearlyReport" viewBox="-15 -15 30 30">
	<polygon fill="none" points="15,-15 -15,-15 -15,15 15,15 	"/>
	<g>
		<path fill="#FFFFFF" d="M5,2v-7H-5v7H5 M6,3H-6v-8c0-0.552,0.448-1,1-1H5c0.552,0,1,0.448,1,1V3L6,3z"/>
	</g>
	<polygon fill="#FFFFFF" points="-3,2 -3,-5 -3.5,-5 -3.5,2 	"/>
	<polygon fill="#FFFFFF" points="-1,2 -1,-5 -1.5,-5 -1.5,2 	"/>
	<polygon fill="#FFFFFF" points="1,2 1,-5 0.5,-5 0.5,2 	"/>
	<polygon fill="#FFFFFF" points="3,2 3,-5 2.5,-5 2.5,2 	"/>
	<polygon fill="#FFFFFF" points="5,2 5,-5 4.5,-5 4.5,2 	"/>
	<polygon fill="#FFFFFF" points="5,0.5 -5,0.5 -5,1 5,1 	"/>
	<polygon fill="#FFFFFF" points="5,-1.5 -5,-1.5 -5,-1 5,-1 	"/>
	<polygon fill="#FFFFFF" points="5,-3.5 -5,-3.5 -5,-3 5,-3 	"/>
	<path fill="#FFFFFF" d="M-3.5,5L-3.5,5C-3.776,5-4,5.224-4,5.5v3C-4,8.776-3.776,9-3.5,9l0,0C-3.224,9-3,8.776-3,8.5v-3
		C-3,5.224-3.224,5-3.5,5z"/>
	<path fill="#FFFFFF" d="M5,7H4.5V5.536c0-0.561-0.449-1.018-1-1.018s-1,0.457-1,1.018V7h-5V5.536c0-0.561-0.449-1.018-1-1.018
		s-1,0.457-1,1.018V7H-5c-0.552,0-1-0.456-1-1.018V3.5H6v2.482C6,6.544,5.552,7,5,7z"/>
	<path fill="#FFFFFF" d="M3.5,5L3.5,5C3.224,5,3,5.224,3,5.5v3C3,8.776,3.224,9,3.5,9l0,0C3.776,9,4,8.776,4,8.5v-3
		C4,5.224,3.776,5,3.5,5z"/>
</symbol>
<use xlink:href="#YearlyReport"  width="30" height="30" id="XMLID_140_" x="-15" y="-15" transform="matrix(1 0 0 -1 15 15)" overflow="visible"/>
</svg>
