<?xml version="1.0" encoding="utf-8"?>
<!-- Generator: Adobe Illustrator 17.0.0, SVG Export Plug-In . SVG Version: 6.00 Build 0)  -->
<!DOCTYPE svg PUBLIC "-//W3C//DTD SVG 1.1//EN" "http://www.w3.org/Graphics/SVG/1.1/DTD/svg11.dtd">
<svg version="1.1" id="Layer_1" xmlns="http://www.w3.org/2000/svg" xmlns:xlink="http://www.w3.org/1999/xlink" x="0px" y="0px"
	 width="14px" height="18.186px" viewBox="0 0 14 18.186" enable-background="new 0 0 14 18.186" xml:space="preserve">
<symbol  id="Dashboard" viewBox="-31.792 0.314 14 18.186">
	<g>
		<polygon fill="#FFFFFF" points="-29.327,0.314 -30.255,0.686 -28.255,5.686 -27.327,5.314 		"/>
	</g>
	<g>
		<polygon fill="#FFFFFF" points="-20.255,0.314 -22.255,5.314 -21.327,5.686 -19.327,0.686 		"/>
	</g>
	<g>
		<polygon fill="#FFFFFF" points="-24.291,1.5 -25.291,1.5 -25.291,5.5 -24.291,5.5 		"/>
	</g>
	<g>
		<path fill="#FFFFFF" d="M-18.791,18.5h-12c-0.552,0-1-0.448-1-1v-11c0-0.552,0.448-1,1-1h12c0.552,0,1,0.448,1,1v11
			C-17.791,18.052-18.239,18.5-18.791,18.5z M-26.791,7.5h-2V10c0,0.276,0.224,0.5,0.5,0.5h1c0.276,0,0.5-0.224,0.5-0.5V7.5z
			 M-23.791,7.5h-2V13c0,0.276,0.224,0.5,0.5,0.5h1c0.276,0,0.5-0.224,0.5-0.5V7.5z M-20.791,7.5h-2V16c0,0.276,0.224,0.5,0.5,0.5h1
			c0.276,0,0.5-0.224,0.5-0.5V7.5z"/>
	</g>
</symbol>
<use xlink:href="#Dashboard"  width="14" height="18.186" id="XMLID_171_" x="-31.792" y="0.314" transform="matrix(1 0 0 -1 31.7915 18.5)" overflow="visible"/>
</svg>
