<?xml version="1.0" encoding="utf-8"?>
<!-- Generator: Adobe Illustrator 17.0.0, SVG Export Plug-In . SVG Version: 6.00 Build 0)  -->
<!DOCTYPE svg PUBLIC "-//W3C//DTD SVG 1.1//EN" "http://www.w3.org/Graphics/SVG/1.1/DTD/svg11.dtd">
<svg version="1.1" id="Layer_1" xmlns="http://www.w3.org/2000/svg" xmlns:xlink="http://www.w3.org/1999/xlink" x="0px" y="0px"
	 width="13.996px" height="17px" viewBox="0 0 13.996 17" enable-background="new 0 0 13.996 17" xml:space="preserve">
<symbol  id="TablesXl" viewBox="-33.185 6.062 13.996 17">
	<g>
		<polygon fill="#FFFFFF" points="-28.689,17.062 -28.689,15.562 -25.689,15.562 -25.689,17.062 		"/>
		<polygon fill="#FFFFFF" points="-31.689,17.062 -31.689,15.562 -29.189,15.562 -29.189,17.062 		"/>
		<polygon fill="#FFFFFF" points="-25.689,19.062 -28.689,19.062 -28.689,17.562 -25.689,17.562 		"/>
		<polygon fill="#FFFFFF" points="-25.189,15.562 -22.689,15.562 -22.689,17.062 -25.189,17.062 		"/>
		<polygon fill="#FFFFFF" points="-29.189,19.062 -31.689,19.062 -31.689,17.562 -29.189,17.562 		"/>
		<polygon fill="#FFFFFF" points="-29.189,19.562 -29.189,21.062 -31.689,21.062 -31.689,19.562 		"/>
		<polygon fill="#FFFFFF" points="-25.689,19.562 -25.689,21.062 -28.689,21.062 -28.689,19.562 		"/>
		<polygon fill="#FFFFFF" points="-22.689,19.562 -22.689,21.062 -25.189,21.062 -25.189,19.562 		"/>
		<polygon fill="#FFFFFF" points="-25.189,17.562 -22.689,17.562 -22.689,19.062 -25.189,19.062 		"/>
	</g>
	<path fill="#FFFFFF" d="M-32.982,12.562h3.793c0.276,0,0.5-0.224,0.5-0.5V8.269L-32.982,12.562z"/>
	<g>
		<path fill="#FFFFFF" d="M-28.185,8.062h1.871l1.5,2l-3.375,4.5h3.25l1.75-2.333l1.75,2.333h0.25v7.496
			c0.002,0.554-0.441,1.004-0.995,1.004c-2.261,0-7.751,0-10.007,0c-0.549,0-0.994-0.445-0.994-0.995v-9.005h4c0.552,0,1-0.448,1-1
			C-28.185,12.062-28.185,8.062-28.185,8.062z M-32.185,15.062v7h10v-7H-32.185z"/>
	</g>
	<polygon fill="#FFFFFF" points="-19.189,14.062 -21.189,14.062 -23.189,11.396 -25.189,14.062 -27.189,14.062 -24.189,10.062 
		-27.189,6.062 -22.189,6.062 -23.189,7.062 -24.439,7.062 -23.189,8.729 -21.189,6.062 -19.189,6.062 -22.189,10.062 	"/>
</symbol>
<use xlink:href="#TablesXl"  width="13.996" height="17" id="XMLID_173_" x="-33.185" y="6.062" transform="matrix(1 0 0 -1 33.1856 23.0625)" overflow="visible"/>
</svg>
