<?xml version="1.0" encoding="utf-8"?>
<!-- Generator: Adobe Illustrator 17.0.0, SVG Export Plug-In . SVG Version: 6.00 Build 0)  -->
<!DOCTYPE svg PUBLIC "-//W3C//DTD SVG 1.1//EN" "http://www.w3.org/Graphics/SVG/1.1/DTD/svg11.dtd">
<svg version="1.1" id="Layer_1" xmlns="http://www.w3.org/2000/svg" xmlns:xlink="http://www.w3.org/1999/xlink" x="0px" y="0px"
	 width="16px" height="16px" viewBox="0 0 16 16" enable-background="new 0 0 16 16" xml:space="preserve">
<symbol  id="MonthlyPDF" viewBox="-33.188 9.375 16 16">
	<path fill="#FFFFFF" d="M-30.688,21.375L-30.688,21.375c-0.276,0-0.5,0.224-0.5,0.5v3c0,0.276,0.224,0.5,0.5,0.5l0,0
		c0.276,0,0.5-0.224,0.5-0.5v-3C-30.188,21.599-30.411,21.375-30.688,21.375z"/>
	<path fill="#FFFFFF" d="M-22.188,23.375h-0.5v-1.464c0-0.561-0.449-1.018-1-1.018s-1,0.457-1,1.018v1.464h-5v-1.464
		c0-0.561-0.449-1.018-1-1.018s-1,0.457-1,1.018v1.464h-0.5c-0.552,0-1-0.456-1-1.018v-2.482h12v2.482
		C-21.188,22.919-21.635,23.375-22.188,23.375z"/>
	<path fill="#FFFFFF" d="M-23.688,21.375L-23.688,21.375c-0.276,0-0.5,0.224-0.5,0.5v3c0,0.276,0.224,0.5,0.5,0.5l0,0
		c0.276,0,0.5-0.224,0.5-0.5v-3C-23.188,21.599-23.411,21.375-23.688,21.375z"/>
	<g>
		<polygon fill="#FFFFFF" points="-24.188,11.375 -23.188,11.375 -23.188,14.375 -24.188,14.375 		"/>
		<path fill="#FFFFFF" d="M-18.188,16.375h-11c-0.552,0-1-0.448-1-1v-5c0-0.552,0.448-1,1-1h11c0.552,0,1,0.448,1,1v5
			C-17.188,15.927-17.635,16.375-18.188,16.375z M-26.188,13.125c0-0.414-0.336-0.75-0.75-0.75h-1.25v-2h-1v5h1h1.25
			c0.414,0,0.75-0.336,0.75-0.75V13.125z M-22.188,11.125c0-0.414-0.336-0.75-0.75-0.75h-2.75l0.5,1v3l-0.5,1h1.5h1.25
			c0.414,0,0.75-0.336,0.75-0.75V11.125z M-18.188,14.375h-2v-1h1v-1h-1v-2h-1v5h1h2V14.375z"/>
		<polygon fill="#FFFFFF" points="-28.188,13.375 -27.188,13.375 -27.188,14.375 -28.188,14.375 		"/>
	</g>
	<path fill="#FFFFFF" d="M-32.188,11.375v1.5h1.5v0.5h-1.5v1.5h1.5v0.5h-1.5v1.5h1.5v-1.5c0,0.442,0.195,0.835,0.5,1.11v0.39h1h0.5
		h0.5h1.5h0.5h1.5h0.5h1.5h1.5v2.5h-12v-8c0-0.552,0.448-1,1-1h1.5v1H-32.188z M-24.188,18.375h1.5v-1h-1.5V18.375z M-26.188,18.375
		h1.5v-1h-1.5V18.375z M-28.188,18.375h1.5v-1h-1.5V18.375z M-30.188,18.375h1.5v-1h-1.5V18.375z M-32.188,18.375h1.5v-1h-1.5
		V18.375z"/>
</symbol>
<use xlink:href="#MonthlyPDF"  width="16" height="16" id="XMLID_186_" x="-33.188" y="9.375" transform="matrix(1 0 0 -1 33.1875 25.375)" overflow="visible"/>
</svg>
