<?xml version="1.0" encoding="utf-8"?>
<!-- Generator: Adobe Illustrator 17.0.0, SVG Export Plug-In . SVG Version: 6.00 Build 0)  -->
<!DOCTYPE svg PUBLIC "-//W3C//DTD SVG 1.1//EN" "http://www.w3.org/Graphics/SVG/1.1/DTD/svg11.dtd">
<svg version="1.1" id="Layer_1" xmlns="http://www.w3.org/2000/svg" xmlns:xlink="http://www.w3.org/1999/xlink" x="0px" y="0px"
	 width="16px" height="16px" viewBox="-1 -1 16 16" enable-background="new -1 -1 16 16" xml:space="preserve">
<symbol  id="Health" viewBox="-7 -7 14 14">
	<path fill="#FFFFFF" d="M6,5H3v1c0,0.552-0.448,1-1,1h-4c-0.552,0-1-0.448-1-1V5h-3c-0.552,0-1-0.56-1-1.25v-9.5
		C-7-6.44-6.552-7-6-7H6c0.552,0,1,0.56,1,1.25v9.5C7,4.44,6.552,5,6,5z M-2,6h4V5h-4V6z M3-2H1v-2h-2v2h-2v2h2v2h2V0h2V-2z"/>
</symbol>
<use xlink:href="#Health"  width="14" height="14" id="XMLID_1_" x="-7" y="-7" transform="matrix(1 0 0 -1 7 7)" overflow="visible"/>
</svg>
