<?xml version="1.0" encoding="utf-8"?>
<!-- Generator: Adobe Illustrator 17.0.0, SVG Export Plug-In . SVG Version: 6.00 Build 0)  -->
<!DOCTYPE svg PUBLIC "-//W3C//DTD SVG 1.1//EN" "http://www.w3.org/Graphics/SVG/1.1/DTD/svg11.dtd">
<svg version="1.1" id="Layer_1" xmlns="http://www.w3.org/2000/svg" xmlns:xlink="http://www.w3.org/1999/xlink" x="0px" y="0px"
	 width="16px" height="16px" viewBox="0 0 16 16" enable-background="new 0 0 16 16" xml:space="preserve">
<symbol  id="Safety_x5D_" viewBox="-8 -8 16 16">
	<path fill="#FFFFFF" d="M0,8c-4.418,0-8-3.582-8-8s3.582-8,8-8s8,3.582,8,8S4.418,8,0,8z M6.729,1.909L4.816,1.272
		c-0.459,1.73-1.813,3.085-3.544,3.544l0.638,1.913C4.235,6.067,6.067,4.235,6.729,1.909z M0-4c-2.206,0-4,1.794-4,4s1.794,4,4,4
		s4-1.794,4-4S2.206-4,0-4z M-1.909,6.729l0.638-1.913c-1.73-0.459-3.085-1.813-3.544-3.544l-1.913,0.638
		C-6.067,4.235-4.235,6.067-1.909,6.729z M-6.729-1.909l1.913,0.638c0.459-1.73,1.813-3.085,3.544-3.544l-0.638-1.913
		C-4.235-6.067-6.067-4.235-6.729-1.909z M1.909-6.729L1.272-4.816c1.73,0.459,3.085,1.813,3.544,3.544l1.913-0.638
		C6.067-4.235,4.235-6.067,1.909-6.729z"/>
</symbol>
<use xlink:href="#Safety_x5D_"  width="16" height="16" id="XMLID_1_" x="-8" y="-8" transform="matrix(1 0 0 -1 8 8)" overflow="visible"/>
</svg>
