<?xml version="1.0" encoding="utf-8"?>
<!-- Generator: Adobe Illustrator 17.0.0, SVG Export Plug-In . SVG Version: 6.00 Build 0)  -->
<!DOCTYPE svg PUBLIC "-//W3C//DTD SVG 1.1//EN" "http://www.w3.org/Graphics/SVG/1.1/DTD/svg11.dtd">
<svg version="1.1" id="Layer_1" xmlns="http://www.w3.org/2000/svg" xmlns:xlink="http://www.w3.org/1999/xlink" x="0px" y="0px"
	 width="15.5px" height="14.5px" viewBox="0 0 15.5 14.5" enable-background="new 0 0 15.5 14.5" xml:space="preserve">
<symbol  id="CSREnviro" viewBox="-9 -7 15.5 14.5">
	<path fill="#FFFFFF" d="M0.707-4.707L-3-1v4h0.5C-2.224,3-2,3.224-2,3.5S-2.224,4-2.5,4h-3C-5.776,4-6,3.776-6,3.5S-5.776,3-5.5,3
		H-5v-4l-3.707-3.707C-8.895-4.895-9-5.149-9-5.414V-6c0-0.552,0.448-1,1-1h8c0.552,0,1,0.448,1,1v0.586
		C1-5.149,0.895-4.895,0.707-4.707z"/>
	<g>
		<g>
			<path fill="#FFFFFF" d="M-3,5V4.5h0.5c0.365,0,0.672-0.207,0.846-0.5H-1.5v-5.793l2.561-2.561C1.344-4.637,1.5-5.014,1.5-5.414
				V-6H5c0.552,0,1,0.448,1,1V5H-3z M2-4H1v8h1V-4z M5-4H4.5v8H5V-4z"/>
			<path fill="#FFFFFF" d="M-2.5-0.793l0.5-0.5v3.947C-2.149,2.565-2.314,2.5-2.5,2.5V-0.793z"/>
		</g>
		<path fill="#FFFFFF" d="M3,6v1c0,0.276-0.224,0.5-0.5,0.5h-2C0.224,7.5,0,7.276,0,7V6h-3.5V5.5h10V6H3z"/>
	</g>
</symbol>
<use xlink:href="#CSREnviro"  width="15.5" height="14.5" id="XMLID_1_" x="-9" y="-7" transform="matrix(1 0 0 -1 9 7.5)" overflow="visible"/>
</svg>
