<?xml version="1.0" encoding="utf-8"?>
<!-- Generator: Adobe Illustrator 17.0.0, SVG Export Plug-In . SVG Version: 6.00 Build 0)  -->
<!DOCTYPE svg PUBLIC "-//W3C//DTD SVG 1.1//EN" "http://www.w3.org/Graphics/SVG/1.1/DTD/svg11.dtd">
<svg version="1.1" id="Layer_1" xmlns="http://www.w3.org/2000/svg" xmlns:xlink="http://www.w3.org/1999/xlink" x="0px" y="0px"
	 width="12px" height="18px" viewBox="0 0 12 18" enable-background="new 0 0 12 18" xml:space="preserve">
<symbol  id="Customer" viewBox="-23.271 10.541 12 18">
	<polygon fill="#FFFFFF" points="-13.271,11.541 -21.271,11.541 -21.271,12.541 -13.271,12.541 	"/>
	<polygon fill="#FFFFFF" points="-16.271,12.541 -18.271,12.541 -18.271,15.041 -16.271,15.041 	"/>
	<path fill="#FFFFFF" d="M-13.271,15.541h-8v1c0,0.552,0.448,1,1,1h6c0.552,0,1-0.448,1-1V15.541z"/>
	<polygon fill="#FFFFFF" points="-13.771,18.041 -20.771,18.041 -20.271,25.541 -14.271,25.541 	"/>
	<polygon fill="#FFFFFF" points="-21.271,15.541 -22.271,15.541 -22.271,20.541 -21.271,20.541 	"/>
	<polygon fill="#FFFFFF" points="-12.271,15.541 -13.271,15.541 -13.271,20.541 -12.271,20.541 	"/>
	<polygon fill="#FFFFFF" points="-21.271,19.541 -23.271,19.541 -23.271,20.541 -21.271,20.541 	"/>
	<polygon fill="#FFFFFF" points="-11.271,19.541 -13.271,19.541 -13.271,20.541 -11.271,20.541 	"/>
	<path fill="#FFFFFF" d="M-14.271,26.041h-6v1.5c0,0.552,0.448,1,1,1h4c0.552,0,1-0.448,1-1V26.041z"/>
	<path fill="#FFFFFF" d="M-13.771,10.541L-13.771,10.541c-0.276,0-0.5,0.224-0.5,0.5l0,0c0,0.276,0.224,0.5,0.5,0.5l0,0
		c0.276,0,0.5-0.224,0.5-0.5l0,0C-13.271,10.765-13.495,10.541-13.771,10.541z"/>
	<path fill="#FFFFFF" d="M-15.771,10.541L-15.771,10.541c-0.276,0-0.5,0.224-0.5,0.5l0,0c0,0.276,0.224,0.5,0.5,0.5l0,0
		c0.276,0,0.5-0.224,0.5-0.5l0,0C-15.271,10.765-15.495,10.541-15.771,10.541z"/>
	<path fill="#FFFFFF" d="M-18.771,10.541L-18.771,10.541c-0.276,0-0.5,0.224-0.5,0.5l0,0c0,0.276,0.224,0.5,0.5,0.5l0,0
		c0.276,0,0.5-0.224,0.5-0.5l0,0C-18.271,10.765-18.495,10.541-18.771,10.541z"/>
	<path fill="#FFFFFF" d="M-20.771,10.541L-20.771,10.541c-0.276,0-0.5,0.224-0.5,0.5l0,0c0,0.276,0.224,0.5,0.5,0.5l0,0
		c0.276,0,0.5-0.224,0.5-0.5l0,0C-20.271,10.765-20.495,10.541-20.771,10.541z"/>
</symbol>
<use xlink:href="#Customer"  width="12" height="18" id="XMLID_1_" x="-23.271" y="10.541" transform="matrix(1 0 0 -1 23.271 28.542)" overflow="visible"/>
</svg>
