<?xml version="1.0" encoding="utf-8"?>
<!-- Generator: Adobe Illustrator 17.0.0, SVG Export Plug-In . SVG Version: 6.00 Build 0)  -->
<!DOCTYPE svg PUBLIC "-//W3C//DTD SVG 1.1//EN" "http://www.w3.org/Graphics/SVG/1.1/DTD/svg11.dtd">
<svg version="1.1" id="Layer_1" xmlns="http://www.w3.org/2000/svg" xmlns:xlink="http://www.w3.org/1999/xlink" x="0px" y="0px"
	 width="55.484px" height="50.096px" viewBox="0 0 55.484 50.096" enable-background="new 0 0 55.484 50.096" xml:space="preserve">
<g>
	<g>
		<path fill="#FFFFFF" d="M19.939,2.16c2.714,2.308,11.436,14.204,11.436,19.834c0,6.174-5.023,11.197-11.197,11.197
			S8.982,28.168,8.982,21.995C8.982,15.932,16.968,3.893,19.939,2.16 M20.178,0C16.879,0,6.982,14.706,6.982,21.995
			s5.908,13.197,13.197,13.197s13.197-5.908,13.197-13.197S21.828,0,20.178,0L20.178,0z"/>
	</g>
</g>
<g>
	<g>
		<path fill="#FFFFFF" d="M53.148,12.328c-4.607,3.386-14.372,3.632-25.093,9.669c-9.626,5.421-11.375,14.678-11.572,19.648
			c-0.018,0.451,0.037,0.89,0.124,1.32c1.262-0.402,2.509-0.852,3.723-1.384c5.113-2.236,8.353-5.391,12.503-8.899
			c0.157-0.132,0.319-0.203,0.48-0.234c-0.245,0.191-0.438,0.453-0.535,0.767c-0.142,0.461-2.873,8.726-15.3,11.845
			c-4.127,1.036-9.323,1.504-15.849,0.93c-0.828-0.073-1.55,0.453-1.623,1.282c-0.072,0.821,0.524,1.583,1.341,1.668
			c0.008,0.001,0.016,0.002,0.023,0.002c8.091,0.837,14.349-0.132,19.145-1.725c23.974,12.714,33.321-20,34.957-33.696
			C55.625,12.252,54.179,11.571,53.148,12.328z M34.323,32.128c-0.03-0.002-0.061,0.001-0.091,0.001
			C34.262,32.13,34.292,32.127,34.323,32.128z M33.647,32.253c-0.018,0.008-0.037,0.015-0.054,0.024
			C33.611,32.268,33.629,32.261,33.647,32.253z M33.983,32.15c-0.028,0.005-0.056,0.012-0.084,0.019
			C33.927,32.162,33.955,32.156,33.983,32.15z"/>
	</g>
</g>
</svg>
