<?xml version="1.0" encoding="utf-8"?>
<!-- Generator: Adobe Illustrator 17.0.0, SVG Export Plug-In . SVG Version: 6.00 Build 0)  -->
<!DOCTYPE svg PUBLIC "-//W3C//DTD SVG 1.1//EN" "http://www.w3.org/Graphics/SVG/1.1/DTD/svg11.dtd">
<svg version="1.1" id="Layer_1" xmlns="http://www.w3.org/2000/svg" xmlns:xlink="http://www.w3.org/1999/xlink" x="0px" y="0px"
	 width="12.001px" height="12.001px" viewBox="0 0 12.001 12.001" enable-background="new 0 0 12.001 12.001" xml:space="preserve">
<g opacity="0.2">
	<path fill="#010101" d="M11.731,10.153l-2.87-2.87c0.433-0.711,0.682-1.546,0.682-2.439C9.543,2.249,7.294,0,4.699,0
		C2.104,0,0,2.104,0,4.699s2.249,4.844,4.844,4.844c0.863,0,1.671-0.234,2.366-0.64l2.886,2.886c0.282,0.282,0.74,0.282,1.022,0
		l0.716-0.716C12.116,10.791,12.014,10.435,11.731,10.153z M1.446,4.699c0-1.797,1.456-3.253,3.253-3.253
		c1.797,0,3.398,1.601,3.398,3.398c0,1.797-1.456,3.253-3.253,3.253C3.047,8.097,1.446,6.496,1.446,4.699z"/>
</g>
</svg>
