<?xml version="1.0" encoding="utf-8"?>
<!-- Generator: Adobe Illustrator 17.0.0, SVG Export Plug-In . SVG Version: 6.00 Build 0)  -->
<!DOCTYPE svg PUBLIC "-//W3C//DTD SVG 1.1//EN" "http://www.w3.org/Graphics/SVG/1.1/DTD/svg11.dtd">
<svg version="1.1" id="Layer_1" xmlns="http://www.w3.org/2000/svg" xmlns:xlink="http://www.w3.org/1999/xlink" x="0px" y="0px"
	 width="25px" height="25px" viewBox="0 0 25 25" enable-background="new 0 0 25 25" xml:space="preserve">
<g>
	<path fill="#656170" d="M12.5,2C13.328,2,14,2.672,14,3.5v7c0,0.276,0.224,0.5,0.5,0.5h7c0.828,0,1.5,0.672,1.5,1.5
		S22.328,14,21.5,14h-7c-0.276,0-0.5,0.224-0.5,0.5v7c0,0.828-0.672,1.5-1.5,1.5h0c-0.828,0-1.5-0.672-1.5-1.5v-7
		c0-0.276-0.224-0.5-0.5-0.5h-7C2.672,14,2,13.328,2,12.5S2.672,11,3.5,11h7c0.276,0,0.5-0.224,0.5-0.5v-7C11,2.672,11.671,2,12.5,2
		L12.5,2 M12.5,0C10.57,0,9,1.57,9,3.5V9H3.5C1.57,9,0,10.57,0,12.5S1.57,16,3.5,16H9v5.5c0,1.93,1.57,3.5,3.5,3.5
		c1.93,0,3.5-1.57,3.5-3.5V16h5.5c1.93,0,3.5-1.57,3.5-3.5S23.43,9,21.5,9H16V3.5C16,1.57,14.43,0,12.5,0L12.5,0z"/>
</g>
</svg>
