<?xml version="1.0" encoding="utf-8"?>
<!-- Generator: Adobe Illustrator 17.0.0, SVG Export Plug-In . SVG Version: 6.00 Build 0)  -->
<!DOCTYPE svg PUBLIC "-//W3C//DTD SVG 1.1//EN" "http://www.w3.org/Graphics/SVG/1.1/DTD/svg11.dtd">
<svg version="1.1" id="Layer_1" xmlns="http://www.w3.org/2000/svg" xmlns:xlink="http://www.w3.org/1999/xlink" x="0px" y="0px"
	 width="18px" height="18px" viewBox="0 0 18 18" enable-background="new 0 0 18 18" xml:space="preserve">
<path fill="#D9D9D8" d="M8,0.721C8,0.323,7.677,0,7.279,0H5.721C5.323,0,5,0.323,5,0.721v1.558C5,2.677,5.323,3,5.721,3h1.558
	C7.677,3,8,2.677,8,2.279V0.721z"/>
<path fill="#D9D9D8" d="M13,0.721C13,0.323,12.677,0,12.279,0h-1.558C10.323,0,10,0.323,10,0.721v1.558C10,2.677,10.323,3,10.721,3
	h1.558C12.677,3,13,2.677,13,2.279V0.721z"/>
<path fill="#D9D9D8" d="M18,0.721C18,0.323,17.677,0,17.279,0h-1.558C15.323,0,15,0.323,15,0.721v1.558C15,2.677,15.323,3,15.721,3
	h1.558C17.677,3,18,2.677,18,2.279V0.721z"/>
<path fill="#D9D9D8" d="M3,5.721C3,5.323,2.677,5,2.279,5H0.721C0.323,5,0,5.323,0,5.721v1.558C0,7.677,0.323,8,0.721,8h1.558
	C2.677,8,3,7.677,3,7.279V5.721z"/>
<path fill="#D9D9D8" d="M8,5.721C8,5.323,7.677,5,7.279,5H5.721C5.323,5,5,5.323,5,5.721v1.558C5,7.677,5.323,8,5.721,8h1.558
	C7.677,8,8,7.677,8,7.279V5.721z"/>
<path fill="#D9D9D8" d="M13,5.721C13,5.323,12.677,5,12.279,5h-1.558C10.323,5,10,5.323,10,5.721v1.558C10,7.677,10.323,8,10.721,8
	h1.558C12.677,8,13,7.677,13,7.279V5.721z"/>
<path fill="#D9D9D8" d="M18,5.721C18,5.323,17.677,5,17.279,5h-1.558C15.323,5,15,5.323,15,5.721v1.558C15,7.677,15.323,8,15.721,8
	h1.558C17.677,8,18,7.677,18,7.279V5.721z"/>
<path fill="#D9D9D8" d="M3,10.721C3,10.323,2.677,10,2.279,10H0.721C0.323,10,0,10.323,0,10.721v1.558C0,12.677,0.323,13,0.721,13
	h1.558C2.677,13,3,12.677,3,12.279V10.721z"/>
<path fill="#D9D9D8" d="M8,10.721C8,10.323,7.677,10,7.279,10H5.721C5.323,10,5,10.323,5,10.721v1.558C5,12.677,5.323,13,5.721,13
	h1.558C7.677,13,8,12.677,8,12.279V10.721z"/>
<path fill="#D9D9D8" d="M13,10.721C13,10.323,12.677,10,12.279,10h-1.558C10.323,10,10,10.323,10,10.721v1.558
	C10,12.677,10.323,13,10.721,13h1.558C12.677,13,13,12.677,13,12.279V10.721z"/>
<path fill="#D9D9D8" d="M18,10.721C18,10.323,17.677,10,17.279,10h-1.558C15.323,10,15,10.323,15,10.721v1.558
	C15,12.677,15.323,13,15.721,13h1.558C17.677,13,18,12.677,18,12.279V10.721z"/>
<path fill="#D9D9D8" d="M3,15.721C3,15.323,2.677,15,2.279,15H0.721C0.323,15,0,15.323,0,15.721v1.558C0,17.677,0.323,18,0.721,18
	h1.558C2.677,18,3,17.677,3,17.279V15.721z"/>
<path fill="#D9D9D8" d="M8,15.721C8,15.323,7.677,15,7.279,15H5.721C5.323,15,5,15.323,5,15.721v1.558C5,17.677,5.323,18,5.721,18
	h1.558C7.677,18,8,17.677,8,17.279V15.721z"/>
<path fill="#D9D9D8" d="M13,15.721C13,15.323,12.677,15,12.279,15h-1.558C10.323,15,10,15.323,10,15.721v1.558
	C10,17.677,10.323,18,10.721,18h1.558C12.677,18,13,17.677,13,17.279V15.721z"/>
</svg>
