<?xml version="1.0" encoding="utf-8"?>
<!-- Generator: Adobe Illustrator 17.0.0, SVG Export Plug-In . SVG Version: 6.00 Build 0)  -->
<!DOCTYPE svg PUBLIC "-//W3C//DTD SVG 1.1//EN" "http://www.w3.org/Graphics/SVG/1.1/DTD/svg11.dtd">
<svg version="1.1" id="Layer_1" xmlns="http://www.w3.org/2000/svg" xmlns:xlink="http://www.w3.org/1999/xlink" x="0px" y="0px"
	 width="12.495px" height="17.234px" viewBox="0 0 12.495 17.234" enable-background="new 0 0 12.495 17.234" xml:space="preserve">
<g>
	<path fill="#FFFFFF" d="M4.585,2.167l5.951,5.243c0.432,0.381,1.151,0.254,1.606-0.284l0,0c0.455-0.538,0.473-1.282,0.04-1.663
		L6.231,0.22C5.799-0.161,5.08-0.034,4.625,0.504l0,0C4.171,1.041,4.153,1.786,4.585,2.167z"/>
</g>
<g>
	<g>
		<path fill="#FFFFFF" d="M4.991,10.674c1.417-0.108,2.671,0.626,3.322,1.751l3.058-5.169L4.434,3.961
			C3.765,3.643,2.968,3.969,2.712,4.663l-2.553,6.933c-0.46,1.249,0.109,2.642,1.311,3.213l0.367,0.174
			c-0.162-0.7-0.14-1.474,0.268-2.29C2.658,11.583,3.752,10.768,4.991,10.674z"/>
	</g>
</g>
<g>
	<g>
		<path fill="#FFFFFF" d="M5.265,12.145c-1.405,0-2.544,1.139-2.544,2.544s1.139,2.544,2.544,2.544S7.81,16.095,7.81,14.69
			S6.67,12.145,5.265,12.145z M5.265,16.199c-0.834,0-1.51-0.676-1.51-1.51s0.676-1.51,1.51-1.51s1.51,0.676,1.51,1.51
			S6.099,16.199,5.265,16.199z"/>
	</g>
</g>
</svg>
