<?xml version="1.0" encoding="utf-8"?>
<!-- Generator: Adobe Illustrator 17.0.0, SVG Export Plug-In . SVG Version: 6.00 Build 0)  -->
<!DOCTYPE svg PUBLIC "-//W3C//DTD SVG 1.1//EN" "http://www.w3.org/Graphics/SVG/1.1/DTD/svg11.dtd">
<svg version="1.1" id="Layer_1" xmlns="http://www.w3.org/2000/svg" xmlns:xlink="http://www.w3.org/1999/xlink" x="0px" y="0px"
	 width="61.044px" height="58.227px" viewBox="0 0 61.044 58.227" enable-background="new 0 0 61.044 58.227" xml:space="preserve">
<symbol  id="New_Symbol_16" viewBox="-30.522 -29.114 61.044 58.227">
	<g>
		<path fill="#FFFFFF" d="M-12.392-18.951l-6.652,0.981c-1.378,0.203-2.531-1.039-2.226-2.398l1.314-5.854
			c0.334-1.487,2.149-2.059,3.275-1.031l5.338,4.873C-10.107-21.252-10.736-19.195-12.392-18.951z"/>
	</g>
	<g>
		<path fill="#FFFFFF" d="M0.03-29.114c-6.092,0-12.022,1.992-16.854,5.69l1.216,1.588c4.874-3.73,10.956-5.586,17.125-5.236
			C14.262-26.34,24.865-15.789,25.656-3.05c0.446,7.187-2.011,14.021-6.92,19.244C13.823,21.42,7.17,24.298,0,24.298
			c-14.175,0-25.707-11.532-25.707-25.707h-2c0,15.277,12.429,27.707,27.707,27.707c7.615,0,14.975-3.184,20.193-8.735
			c5.291-5.629,7.939-12.994,7.459-20.737c-0.867-13.96-12.053-25.092-26.02-25.894C1.097-29.099,0.563-29.114,0.03-29.114z"/>
	</g>
	<g>
		<path fill="#FFFFFF" d="M-23.612-3.771c2.396,3.822-1.635,7.853-5.457,5.457c-0.295-0.185-0.547-0.437-0.732-0.732
			c-2.396-3.822,1.635-7.853,5.457-5.457C-24.05-4.318-23.797-4.065-23.612-3.771z"/>
	</g>
	<g>
		<path fill="#FFFFFF" d="M29.801-3.771c2.396,3.822-1.635,7.853-5.457,5.457c-0.295-0.185-0.547-0.437-0.732-0.732
			c-2.396-3.822,1.635-7.853,5.457-5.457C29.364-4.318,29.616-4.065,29.801-3.771z"/>
	</g>
	<g>
		<path fill="#FFFFFF" d="M3.095,22.936c2.396,3.822-1.635,7.853-5.457,5.457c-0.295-0.185-0.547-0.437-0.732-0.732
			c-2.396-3.822,1.635-7.853,5.457-5.457C2.657,22.388,2.91,22.641,3.095,22.936z"/>
	</g>
	<g>
		<g>
			<path fill="#FFFFFF" stroke="#FFFFFF" stroke-width="2" stroke-miterlimit="10" d="M0-18.419"/>
		</g>
	</g>
	<g>
		<path fill="#FFFFFF" d="M-2.685-1.305L-13.47,5.103C-13.812,4.279-14,3.386-14,2.465v-8.277c0-2.509,1.38-4.825,3.562-6.065
			l7.48-4.233c0.619-0.352,1.281-0.589,1.958-0.737v14.92C-1.585-1.816-2.157-1.616-2.685-1.305z"/>
	</g>
	<g>
		<path fill="#FFFFFF" d="M1.626,1.418l11.248,7.016c-0.432,0.421-0.92,0.792-1.456,1.097l-7.5,4.233
			c-2.138,1.215-4.764,1.215-6.901,0l-7.461-4.233c-0.781-0.444-1.454-1.03-2.002-1.71l10.779-6.405
			C-0.653,0.819,0.61,0.821,1.626,1.418z"/>
	</g>
	<g>
		<path fill="#FFFFFF" d="M2.663-1.292C2.138-1.6,1.575-1.8,1-1.915v-15.073c1.022,0.074,2.031,0.357,2.949,0.879l7.472,4.233
			C13.603-10.637,15-8.321,15-5.811v8.277c0,1.203-0.329,2.357-0.904,3.373L2.663-1.292z"/>
	</g>
</symbol>
<use xlink:href="#New_Symbol_16"  width="61.044" height="58.227" x="-30.522" y="-29.114" transform="matrix(1 0 0 -1 30.5218 29.1136)" overflow="visible"/>
</svg>
