<?xml version="1.0" encoding="utf-8"?>
<!-- Generator: Adobe Illustrator 17.0.0, SVG Export Plug-In . SVG Version: 6.00 Build 0)  -->
<!DOCTYPE svg PUBLIC "-//W3C//DTD SVG 1.1//EN" "http://www.w3.org/Graphics/SVG/1.1/DTD/svg11.dtd">
<svg version="1.1" id="Layer_1" xmlns="http://www.w3.org/2000/svg" xmlns:xlink="http://www.w3.org/1999/xlink" x="0px" y="0px"
	 width="16.616px" height="17.858px" viewBox="0 0 16.616 17.858" enable-background="new 0 0 16.616 17.858" xml:space="preserve">
<g>
	<path fill="#FFFFFF" d="M15.149,5.426L9.763,0.514C9.089-0.1,8.082-0.163,7.455,0.321L6.617,0.968
		c-0.206,0.159-0.241,0.458-0.07,0.68l1.751,2.274c0.341-0.137,0.713-0.217,1.104-0.217c1.637,0,2.964,1.327,2.964,2.964
		c0,0.664-0.226,1.27-0.595,1.765l0.616,0.8c0.79,1.026,1.924,1.653,2.428,1.264l1.205-0.93C17.116,8.719,16.628,6.775,15.149,5.426
		z"/>
</g>
<path fill="#FFFFFF" d="M9.279,5.067c-0.9,0-1.63,0.706-1.682,1.594l-7.133,3.423C-0.03,10.32-0.15,10.922,0.203,11.39l0.854,1.132
	c0.353,0.468,1.029,0.603,1.468,0.295l6.302-4.435C8.972,8.422,9.121,8.45,9.279,8.45c0.935,0,1.692-0.758,1.692-1.692
	S10.214,5.067,9.279,5.067z"/>
<path fill="#FFFFFF" d="M4.871,17.858c-0.028,0-0.057-0.001-0.086-0.004c-0.465-0.047-0.804-0.461-0.757-0.926l0.85-8.459
	c0.047-0.465,0.461-0.803,0.926-0.757C6.27,7.758,6.609,8.173,6.562,8.637l-0.85,8.459C5.668,17.533,5.3,17.858,4.871,17.858z"/>
<path fill="#FFFFFF" d="M9.099,17.858c-0.433,0-0.802-0.33-0.841-0.769L7.412,7.783C7.369,7.318,7.712,6.907,8.177,6.864
	c0.465-0.046,0.877,0.3,0.919,0.766l0.846,9.305c0.042,0.465-0.301,0.877-0.766,0.919C9.151,17.857,9.125,17.858,9.099,17.858z"/>
</svg>
