<?xml version="1.0" encoding="utf-8"?>
<!-- Generator: Adobe Illustrator 17.0.0, SVG Export Plug-In . SVG Version: 6.00 Build 0)  -->
<!DOCTYPE svg PUBLIC "-//W3C//DTD SVG 1.1//EN" "http://www.w3.org/Graphics/SVG/1.1/DTD/svg11.dtd">
<svg version="1.1" id="Layer_1" xmlns="http://www.w3.org/2000/svg" xmlns:xlink="http://www.w3.org/1999/xlink" x="0px" y="0px"
	 width="16px" height="26px" viewBox="0 0 16 26" enable-background="new 0 0 16 26" xml:space="preserve">
<g>
	<g>
		<rect x="7" y="-1460" fill="#939292" width="3" height="7"/>
	</g>
	<g>
		<g>
			<path fill="none" stroke="#939292" stroke-width="2" stroke-miterlimit="10" d="M8.816-1466.4
				c0.729-0.781,1.184-1.822,1.184-2.975c0-2.299-1.779-4.163-4.033-4.341c0.038-0.262,0.065-0.528,0.065-0.8
				c0-3.046-2.469-5.516-5.516-5.516c-3.046,0-5.516,2.469-5.516,5.516c0,0.452,0.06,0.889,0.163,1.309
				c-0.715,0.857-1.163,1.946-1.163,3.15c0,2.73,2.213,4.943,4.943,4.943c1.327,0,2.525-0.529,3.413-1.38
				c0.673,0.763,1.6,1.283,2.657,1.432c-0.052,0.199-0.089,0.404-0.089,0.619c0,1.349,1.094,2.443,2.443,2.443
				c1.349,0,2.443-1.094,2.443-2.443C9.81-1465.247,9.416-1465.955,8.816-1466.4z"/>
		</g>
	</g>
</g>
<path fill="none" stroke="#939292" stroke-width="2" stroke-linecap="round" stroke-linejoin="round" stroke-miterlimit="10" d="
	M6.148-1397C4.88-1397.621,2-1400.556,2-1403.097c0-6.492,5.242-8.976,5.53-14.903c4.839,4.29,5.53,10.161,5.53,10.161
	c0.576-1.016,1.383-3.387,1.383-3.387c1.21,2.484,1.901,6.153,1.383,8.129c-0.785,2.993-2.42,5.081-4.148,6.097
	c1.383-4.968-3.456-8.806-3.456-8.806S5.226-1401.742,6.148-1397z"/>
<path fill="none" stroke="#939292" stroke-width="2" stroke-miterlimit="10" d="M4.782-1174c0,0,7.476-0.732,10.686-7.398
	c3.562-7.398,1.644-14.796,1.644-14.796s-8.089,1.151-11.508,9.042C2.042-1178.932,4.782-1174,4.782-1174z"/>
<polygon fill="none" stroke="#939292" stroke-width="2" stroke-linecap="round" stroke-linejoin="round" stroke-miterlimit="10" points="
	5.4,-1132 13.067,-1132 10.383,-1124.908 17.667,-1126.633 6.167,-1109 8.467,-1120.5 2.333,-1118.2 "/>
<g>
	<path fill="none" stroke="#939292" stroke-width="2" stroke-miterlimit="10" d="M0-95L0-95c-1.105,0-2-0.895-2-2v-10
		c0-1.105,0.895-2,2-2h0c1.105,0,2,0.895,2,2v10C2-95.895,1.105-95,0-95z"/>
	<path fill="none" stroke="#939292" stroke-width="2" stroke-miterlimit="10" d="M5-95L5-95c-1.105,0-2-0.895-2-2v-10
		c0-1.105,0.895-2,2-2h0c1.105,0,2,0.895,2,2v10C7-95.895,6.105-95,5-95z"/>
	<path fill="none" stroke="#939292" stroke-width="2" stroke-miterlimit="10" d="M10-95L10-95c-1.105,0-2-0.895-2-2v-10
		c0-1.105,0.895-2,2-2h0c1.105,0,2,0.895,2,2v10C12-95.895,11.105-95,10-95z"/>
	<path fill="none" stroke="#939292" stroke-width="2" stroke-miterlimit="10" d="M15-95L15-95c-1.105,0-2-0.895-2-2v-10
		c0-1.105,0.895-2,2-2h0c1.105,0,2,0.895,2,2v10C17-95.895,16.105-95,15-95z"/>
</g>
<path fill="none" stroke="#939292" stroke-width="2" stroke-linecap="round" stroke-linejoin="round" stroke-miterlimit="10" d="
	M1.153-112c0,0-1.906-1.832,0-3.5s0-3.5,0-3.5"/>
<path fill="none" stroke="#939292" stroke-width="2" stroke-linecap="round" stroke-linejoin="round" stroke-miterlimit="10" d="
	M13.847-112c0,0-1.906-1.832,0-3.5s0-3.5,0-3.5"/>
<path fill="none" stroke="#939292" stroke-width="2" stroke-linecap="round" stroke-linejoin="round" stroke-miterlimit="10" d="
	M7.694-112c0,0-1.906-1.832,0-3.5s0-3.5,0-3.5"/>
<g>
	<path fill="none" stroke="#939292" stroke-width="2" stroke-miterlimit="10" d="M14-35H2c-1.105,0-2-0.895-2-2v-13
		c0-1.105,0.895-2,2-2h6l2-2h6v17C16-35.895,15.105-35,14-35z"/>
	<g>
		<rect x="9" y="-59" fill="#939292" width="8" height="3"/>
	</g>
	<g>
		<path fill="#939292" d="M4.8-43c0-1.657,3.2-5,3.2-5s3.2,3.343,3.2,5S9.767-40,8-40S4.8-41.343,4.8-43z"/>
	</g>
</g>
<g>
	<path fill="none" stroke="#939292" stroke-width="2" stroke-linecap="round" stroke-linejoin="round" stroke-miterlimit="10" d="
		M13,22H3c-1.105,0-2-0.895-2-2V10c0-2.761,2.239-5,5-5h4c2.761,0,5,2.239,5,5v10C15,21.105,14.105,22,13,22z"/>
	
		<rect x="3" y="22" fill="none" stroke="#939292" stroke-width="2" stroke-linecap="round" stroke-linejoin="round" stroke-miterlimit="10" width="10" height="3"/>
	
		<rect x="5" y="1" fill="none" stroke="#939292" stroke-width="2" stroke-linecap="round" stroke-linejoin="round" stroke-miterlimit="10" width="6" height="4"/>
	
		<line fill="none" stroke="#939292" stroke-width="2" stroke-linecap="round" stroke-linejoin="round" stroke-miterlimit="10" x1="1" y1="14" x2="15" y2="14"/>
</g>
<g>
	<polygon fill="#61933F" points="9,1356 7,1356 7,1348.6 8,1347.6 9,1348.6 	"/>
</g>
<g>
	<g>
		<path fill="#61933F" d="M8.335,1334c1.756,0,3.185,1.429,3.185,3.185c0,0.253-0.047,0.534-0.149,0.883l-0.501,1.723l1.658,0.685
			c1.587,0.656,2.613,2.187,2.613,3.903c0,2.328-1.894,4.222-4.222,4.222c-0.741,0-1.445-0.188-2.093-0.56l-1.052-0.604
			l-1.021,0.654c-0.52,0.333-1.111,0.509-1.709,0.509c-1.756,0-3.185-1.429-3.185-3.185c0-0.799,0.309-1.569,0.87-2.168l1.122-1.198
			l-0.955-1.334c-0.142-0.198-0.214-0.417-0.214-0.649c0-0.531,0.376-0.995,0.895-1.103l1.536-0.32l0.055-1.568
			C5.228,1335.35,6.619,1334,8.335,1334 M8.335,1332c-2.802,0-5.07,2.227-5.167,5.004c-1.42,0.296-2.487,1.553-2.487,3.061
			c0,0.678,0.221,1.302,0.588,1.814c-0.869,0.927-1.411,2.165-1.411,3.536c0,2.864,2.321,5.185,5.185,5.185
			c1.029,0,1.982-0.309,2.788-0.825c0.911,0.522,1.963,0.825,3.088,0.825c3.436,0,6.222-2.786,6.222-6.222
			c0-2.596-1.591-4.818-3.85-5.751c0.134-0.461,0.229-0.938,0.229-1.442C13.52,1334.321,11.199,1332,8.335,1332L8.335,1332z"/>
	</g>
</g>
<path fill="#939292" d="M2.359-1181.324c0,0-0.346-3.225,0.707-6.056c0.823-2.21,1.975-3.365,1.975-3.365
	c-3.028-3.925-7.655-4.255-7.655-4.255s-1,5.397,1.925,10.516C0.139-1183.034,1.239-1182.026,2.359-1181.324"/>
<g>
	<path fill="none" stroke="#939292" stroke-width="2" stroke-linecap="round" stroke-linejoin="round" stroke-miterlimit="10" d="
		M18-1341H2c-0.552,0-1-0.448-1-1l0-4c0-1.105,0.895-2,2-2h0l0.839-4.196c0.093-0.467,0.504-0.804,0.981-0.804h10.36
		c0.477,0,0.887,0.336,0.981,0.804L17-1348l0,0c1.105,0,2,0.895,2,2v4C19-1341.448,18.552-1341,18-1341z"/>
	
		<line fill="none" stroke="#939292" stroke-width="2" stroke-linecap="round" stroke-linejoin="round" stroke-miterlimit="10" x1="3" y1="-1348" x2="17" y2="-1348"/>
	<path fill="#939292" d="M4-1338H3c-0.552,0-1-0.448-1-1v-3h3v3C5-1338.448,4.552-1338,4-1338z"/>
	<path fill="#939292" d="M17-1338h-1c-0.552,0-1-0.448-1-1v-3h3v3C18-1338.448,17.552-1338,17-1338z"/>
	<path fill="#939292" d="M15.5-1346L15.5-1346c0.828,0,1.5,0.672,1.5,1.5l0,0c0,0.828-0.672,1.5-1.5,1.5h0
		c-0.828,0-1.5-0.672-1.5-1.5l0,0C14-1345.328,14.672-1346,15.5-1346z"/>
	<path fill="#939292" d="M4.5-1346L4.5-1346c0.828,0,1.5,0.672,1.5,1.5l0,0c0,0.828-0.672,1.5-1.5,1.5h0c-0.828,0-1.5-0.672-1.5-1.5
		l0,0C3-1345.328,3.672-1346,4.5-1346z"/>
</g>
<g>
	<path fill="none" stroke="#61933F" stroke-width="2" stroke-miterlimit="10" d="M16,1229H0c-0.552,0-1-0.448-1-1l0-4
		c0-1.105,0.895-2,2-2h0l0.839-4.196c0.093-0.467,0.504-0.804,0.981-0.804h10.36c0.477,0,0.887,0.336,0.981,0.804L15,1222l0,0
		c1.105,0,2,0.895,2,2v4C17,1228.552,16.552,1229,16,1229z"/>
	<line fill="none" stroke="#61933F" stroke-width="2" stroke-miterlimit="10" x1="1" y1="1222" x2="15" y2="1222"/>
	<path fill="#61933F" d="M2,1232H1c-0.552,0-1-0.448-1-1v-3h3v3C3,1231.552,2.552,1232,2,1232z"/>
	<path fill="#61933F" d="M15,1232h-1c-0.552,0-1-0.448-1-1v-3h3v3C16,1231.552,15.552,1232,15,1232z"/>
	<path fill="#61933F" d="M13.5,1224L13.5,1224c0.828,0,1.5,0.672,1.5,1.5l0,0c0,0.828-0.672,1.5-1.5,1.5h0
		c-0.828,0-1.5-0.672-1.5-1.5l0,0C12,1224.672,12.672,1224,13.5,1224z"/>
	<path fill="#61933F" d="M2.5,1224L2.5,1224c0.828,0,1.5,0.672,1.5,1.5l0,0c0,0.828-0.672,1.5-1.5,1.5h0c-0.828,0-1.5-0.672-1.5-1.5
		l0,0C1,1224.672,1.672,1224,2.5,1224z"/>
</g>
<path fill="none" stroke="#61933F" stroke-width="2" stroke-linecap="round" stroke-linejoin="round" stroke-miterlimit="10" d="
	M5.148,1294.585C3.88,1293.964,1,1291.444,1,1288.903c0-6.492,5.242-8.976,5.53-14.903c4.839,4.29,5.53,10.161,5.53,10.161
	c0.576-1.016,1.383-3.387,1.383-3.387c1.21,2.484,1.901,6.153,1.383,8.129c-0.785,2.993-2.42,5.081-4.148,6.097
	c1.383-4.968-3.456-8.806-3.456-8.806S4.226,1289.843,5.148,1294.585z"/>
</svg>
