<?xml version="1.0" encoding="utf-8"?>
<!-- Generator: Adobe Illustrator 17.0.0, SVG Export Plug-In . SVG Version: 6.00 Build 0)  -->
<!DOCTYPE svg PUBLIC "-//W3C//DTD SVG 1.1//EN" "http://www.w3.org/Graphics/SVG/1.1/DTD/svg11.dtd">
<svg version="1.1" id="Layer_1" xmlns="http://www.w3.org/2000/svg" xmlns:xlink="http://www.w3.org/1999/xlink" x="0px" y="0px"
	 width="61.044px" height="58.228px" viewBox="0 0 61.044 58.228" enable-background="new 0 0 61.044 58.228" xml:space="preserve">
<path fill="#F8971D" d="M18.13,48.064l-6.652-0.981c-1.378-0.203-2.531,1.039-2.226,2.398l1.314,5.854
	c0.334,1.487,2.149,2.059,3.275,1.031l5.338-4.873C20.414,50.366,19.785,48.308,18.13,48.064z"/>
<path fill="none" stroke="#F8971D" stroke-width="2" stroke-miterlimit="10" d="M14.306,51.743c4.88,3.735,11.087,5.824,17.79,5.44
	c13.352-0.766,24.251-11.609,25.079-24.957c0.963-15.522-11.34-28.411-26.654-28.411c-14.75,0-26.707,11.957-26.707,26.707"/>
<path fill="#F8971D" d="M6.91,32.884c2.396-3.822-1.635-7.853-5.457-5.457c-0.295,0.185-0.547,0.437-0.732,0.732
	c-2.396,3.822,1.635,7.853,5.457,5.457C6.472,33.432,6.725,33.179,6.91,32.884z"/>
<path fill="#F8971D" d="M60.323,32.884c2.396-3.822-1.635-7.853-5.457-5.457c-0.295,0.185-0.547,0.437-0.732,0.732
	c-2.396,3.822,1.635,7.853,5.457,5.457C59.885,33.432,60.138,33.179,60.323,32.884z"/>
<path fill="#F8971D" d="M33.616,6.178c2.396-3.822-1.635-7.853-5.457-5.457c-0.295,0.185-0.547,0.437-0.732,0.732
	c-2.396,3.822,1.635,7.853,5.457,5.457C33.179,6.725,33.432,6.472,33.616,6.178z"/>
<path fill="#F8971D" stroke="#FFFFFF" stroke-width="2" stroke-miterlimit="10" d="M30.522,47.532"/>
<path fill="#EA8624" d="M27.837,30.418L17.052,24.01c-0.342,0.825-0.53,1.718-0.53,2.638v8.277c0,2.509,1.38,4.825,3.562,6.065
	l7.48,4.233c0.619,0.352,1.281,0.589,1.958,0.737V31.04C28.937,30.93,28.365,30.73,27.837,30.418z"/>
<path fill="#EA8624" d="M32.148,27.696l11.248-7.016c-0.432-0.421-0.92-0.792-1.456-1.097l-7.5-4.233
	c-2.138-1.215-4.764-1.215-6.901,0l-7.461,4.233c-0.781,0.444-1.454,1.03-2.002,1.71l10.779,6.405
	C29.869,28.294,31.132,28.292,32.148,27.696z"/>
<path fill="#EA8624" d="M33.184,30.406c-0.524,0.308-1.088,0.508-1.663,0.623v15.073c1.022-0.074,2.031-0.357,2.949-0.879
	l7.472-4.233c2.182-1.24,3.579-3.556,3.579-6.065v-8.277c0-1.203-0.329-2.357-0.904-3.373L33.184,30.406z"/>
</svg>
