<?xml version="1.0" encoding="utf-8"?>
<!-- Generator: Adobe Illustrator 17.0.0, SVG Export Plug-In . SVG Version: 6.00 Build 0)  -->
<!DOCTYPE svg PUBLIC "-//W3C//DTD SVG 1.1//EN" "http://www.w3.org/Graphics/SVG/1.1/DTD/svg11.dtd">
<svg version="1.1" id="Layer_1" xmlns="http://www.w3.org/2000/svg" xmlns:xlink="http://www.w3.org/1999/xlink" x="0px" y="0px"
	 width="18px" height="20px" viewBox="0 0 18 20" enable-background="new 0 0 18 20" xml:space="preserve">
<g>
	<path fill="none" stroke="#656170" stroke-linecap="round" stroke-miterlimit="10" d="M1,5.5h4.266C5.648,5.5,5.5,5.19,5.5,4.808V2
		"/>
	<g>
		<path fill="none" stroke="#656170" stroke-width="2" stroke-linecap="round" stroke-miterlimit="10" d="M11.843,9.308
			l-2.524,2.524c-0.135,0.135-0.135,0.354,0,0.49l2.524,2.524"/>
		
			<line fill="none" stroke="#656170" stroke-width="2" stroke-linecap="round" stroke-miterlimit="10" x1="10" y1="12" x2="17" y2="12"/>
	</g>
	<path fill="none" stroke="#656170" stroke-width="2" stroke-linecap="round" stroke-miterlimit="10" d="M15.304,10.692"/>
	<path fill="none" stroke="#656170" stroke-width="2" stroke-linecap="round" stroke-miterlimit="10" d="M15,9V2.385
		C15,1.62,14.684,1,13.92,1H5.35C5.074,1,4.81,1.109,4.616,1.304L1.533,4.157C1.338,4.352,1,4.616,1,4.892v12.724
		C1,18.38,2.078,19,2.843,19H13.92c0.765,0,1.08-0.62,1.08-1.385V16"/>
</g>
</svg>
