<?xml version="1.0" encoding="utf-8"?>
<!-- Generator: Adobe Illustrator 17.0.0, SVG Export Plug-In . SVG Version: 6.00 Build 0)  -->
<!DOCTYPE svg PUBLIC "-//W3C//DTD SVG 1.1//EN" "http://www.w3.org/Graphics/SVG/1.1/DTD/svg11.dtd">
<svg version="1.1" id="Layer_1" xmlns="http://www.w3.org/2000/svg" xmlns:xlink="http://www.w3.org/1999/xlink" x="0px" y="0px"
	 width="48.5px" height="48.5px" viewBox="0 0 48.5 48.5" enable-background="new 0 0 48.5 48.5" xml:space="preserve">
<g opacity="0.7">
	<g>
		<path fill="#FFFFFF" stroke="#2C6CB5" stroke-width="1.5" stroke-miterlimit="10" d="M44.75,20.75c0-11.046-8.954-20-20-20
			s-20,8.954-20,20"/>
		<path fill="#FFFFFF" stroke="#2C6CB5" stroke-width="1.5" stroke-miterlimit="10" d="M44.75,27.75c0,9.334-7.893,17.008-18,17.911
			"/>
		<path fill="#FFFFFF" stroke="#2C6CB5" stroke-width="1.5" stroke-miterlimit="10" d="M4.75,20.75c-1.933,0-4,1.567-4,3.5
			s1.567,3.5,3.5,3.5"/>
		<path fill="#FFFFFF" stroke="#2C6CB5" stroke-width="1.5" stroke-miterlimit="10" d="M43.751,27.751
			c1.933-0.001,3.999-1.568,3.999-3.501s-1.567-3.499-3.499-3.499"/>
		<circle fill="#FFFFFF" stroke="#2C6CB5" stroke-width="1.5" stroke-miterlimit="10" cx="24.75" cy="45.75" r="2"/>
		<ellipse fill="#FFFFFF" stroke="#2C6CB5" stroke-width="1.5" stroke-miterlimit="10" cx="24.75" cy="22.25" rx="16" ry="16.5"/>
		<path fill="#FFFFFF" stroke="#2C6CB5" stroke-width="1.5" stroke-miterlimit="10" d="M14.75,29.131
			c2.739,2.265,6.216,3.619,10,3.619c3.992,0,7.642-1.507,10.444-4"/>
	</g>
</g>
</svg>
