<?xml version="1.0" encoding="utf-8"?>
<!-- Generator: Adobe Illustrator 17.0.0, SVG Export Plug-In . SVG Version: 6.00 Build 0)  -->
<!DOCTYPE svg PUBLIC "-//W3C//DTD SVG 1.1//EN" "http://www.w3.org/Graphics/SVG/1.1/DTD/svg11.dtd">
<svg version="1.1" id="Layer_1" xmlns="http://www.w3.org/2000/svg" xmlns:xlink="http://www.w3.org/1999/xlink" x="0px" y="0px"
	 width="21px" height="21px" viewBox="0 0 21 21" enable-background="new 0 0 21 21" xml:space="preserve">
<g>
	<path fill="#FFFFFF" d="M19.5,9H12V1.5C12,0.672,11.328,0,10.5,0h0C9.671,0,9,0.672,9,1.5V9H1.5C0.672,9,0,9.672,0,10.5l0,0
		C0,11.328,0.672,12,1.5,12H9v7.5c0,0.828,0.672,1.5,1.5,1.5h0c0.828,0,1.5-0.672,1.5-1.5V12h7.5c0.828,0,1.5-0.672,1.5-1.5l0,0
		C21,9.672,20.328,9,19.5,9z"/>
</g>
</svg>
