<?xml version="1.0" encoding="utf-8"?>
<!-- Generator: Adobe Illustrator 17.0.0, SVG Export Plug-In . SVG Version: 6.00 Build 0)  -->
<!DOCTYPE svg PUBLIC "-//W3C//DTD SVG 1.1//EN" "http://www.w3.org/Graphics/SVG/1.1/DTD/svg11.dtd">
<svg version="1.1" id="Layer_1" xmlns="http://www.w3.org/2000/svg" xmlns:xlink="http://www.w3.org/1999/xlink" x="0px" y="0px"
	 width="24px" height="24px" viewBox="0 0 24 24" enable-background="new 0 0 24 24" xml:space="preserve">
<g opacity="0.3">
	<path fill="#38481F" d="M12,8.734c0.388,0,0.753,0.151,1.027,0.425l4.421,4.421c0.386,0.386,0.386,1.011,0,1.397
		c-0.386,0.386-1.011,0.386-1.397,0L12,10.926l-4.051,4.051c-0.386,0.386-1.011,0.386-1.397,0s-0.386-1.011,0-1.397l4.421-4.421
		C11.247,8.885,11.612,8.734,12,8.734z"/>
	<g>
		<g>
			<path fill="#38481F" d="M12,2c5.514,0,10,4.486,10,10s-4.486,10-10,10S2,17.514,2,12S6.486,2,12,2 M12,0C5.373,0,0,5.373,0,12
				s5.373,12,12,12s12-5.373,12-12S18.627,0,12,0L12,0z"/>
		</g>
	</g>
</g>
</svg>
