<?xml version="1.0" encoding="utf-8"?>
<!-- Generator: Adobe Illustrator 17.0.0, SVG Export Plug-In . SVG Version: 6.00 Build 0)  -->
<!DOCTYPE svg PUBLIC "-//W3C//DTD SVG 1.1//EN" "http://www.w3.org/Graphics/SVG/1.1/DTD/svg11.dtd">
<svg version="1.1" id="Layer_1" xmlns="http://www.w3.org/2000/svg" xmlns:xlink="http://www.w3.org/1999/xlink" x="0px" y="0px"
	 width="17.61px" height="16.334px" viewBox="0 0 17.61 16.334" enable-background="new 0 0 17.61 16.334" xml:space="preserve">
<path fill="#A0C74E" d="M16.83,3.514c-1.224,0.994-3.682,1.321-6.465,2.679C9.618,3.706,6.34-0.023,5.855,0
	c-1.079,0.052-4.085,5.018-3.97,7.402c0.101,2.097,1.68,3.771,3.681,4.066C5.351,12.311,5.295,13.09,5.3,13.68
	c0.001,0.148,0.026,0.291,0.061,0.43c0.406-0.151,0.807-0.318,1.196-0.511c1.637-0.812,2.647-1.895,3.949-3.107
	c0.049-0.046,0.101-0.071,0.153-0.084c-0.077,0.066-0.136,0.155-0.163,0.259c-0.039,0.153-0.803,2.899-4.817,4.115
	c-1.333,0.404-3.025,0.639-5.168,0.554C0.239,15.324,0.011,15.507,0,15.78c-0.011,0.269,0.196,0.51,0.465,0.524
	c0.003,0,0.005,0,0.008,0c2.659,0.147,4.69-0.269,6.234-0.866c8.039,3.781,10.582-7.066,10.903-11.571
	C17.639,3.45,17.155,3.25,16.83,3.514z M2.539,7.37C2.444,5.387,4.867,1.324,5.811,0.71C6.655,1.361,9.259,4.548,9.77,6.498
	C9.441,6.674,9.11,6.861,8.776,7.071C7.099,8.125,6.215,9.518,5.758,10.83C4.018,10.619,2.626,9.18,2.539,7.37z"/>
</svg>
