<?xml version="1.0" encoding="utf-8"?>
<!-- Generator: Adobe Illustrator 17.0.0, SVG Export Plug-In . SVG Version: 6.00 Build 0)  -->
<!DOCTYPE svg PUBLIC "-//W3C//DTD SVG 1.1//EN" "http://www.w3.org/Graphics/SVG/1.1/DTD/svg11.dtd">
<svg version="1.1" id="Layer_1" xmlns="http://www.w3.org/2000/svg" xmlns:xlink="http://www.w3.org/1999/xlink" x="0px" y="0px"
	 width="57.978px" height="46px" viewBox="0 0 57.978 46" enable-background="new 0 0 57.978 46" xml:space="preserve">
<symbol  id="New_Symbol_12" viewBox="-29 -23 57.978 46">
	<path fill="none" stroke="#FFFFFF" stroke-width="2" stroke-miterlimit="10" d="M5,16.5v1C5,19.502,3.7,22,0.5,22h-23
		c-3.9,0-5.5-2.498-5.5-4.5v-34.375C-28-18.877-24.877-22-22.875-22H2.5"/>
	<path fill="#CF405D" d="M6.5-22.5"/>
	<g>
		<polygon fill="none" points="-14.022,12.032 -14.022,10.032 23.978,10.032 23.978,12.032 		"/>
		<path fill="none" d="M4.5-14.5c-1.202,0-1.95-0.883-1.965-1.973c-0.011-0.78,0.443-1.448,1.443-1.768v-1.727h2v1.777
			c0,0.337,0.901,0.976,0.911,1.718C6.904-15.383,5.702-14.5,4.5-14.5z"/>
		<path fill="#FFFFFF" d="M25.978,10.317V-3.5c0-4.879-4.463-9.468-9.178-9.468h-24.6c-4.716,0-8.222,4.589-8.222,9.468v13.818
			c-2-0.54-3-2.333-3-4.484V-15.5c0-2.577,0.236-7.468,6.522-7.468h33c6.857,0,8.478,4.89,8.478,7.468V5.833
			C28.978,7.985,26.978,9.778,25.978,10.317z M5.978-18.191v-1.777h-2v1.727c-1,0.32-1.454,0.988-1.443,1.768
			c0.015,1.09,0.882,1.973,2.085,1.973c1.203,0,2.345-0.883,2.33-1.973C6.939-17.216,5.978-17.855,5.978-18.191z"/>
		<path fill="#FFFFFF" d="M-14.022-3.5c0-3.794,2.59-7.468,6.222-7.468h24.6c3.632,0,7.178,3.674,7.178,7.468v13.532h-38V-3.5z"/>
	</g>
	<path fill="#FFFFFF" d="M1.224,11.487c0.16,0.481,0.609,0.545,1.116,0.545h6.17c0.507,0,0.956-0.064,1.116-0.545l1.351-2.455h3.001
		c-0.016,0-0.026,0.074-0.044,0.13l-1.597,3.282c-0.549,1.647-2.09,2.588-3.827,2.588H2.34c-1.736,0-3.278-0.959-3.827-2.606
		l-1.597-3.34c-0.018-0.055-0.028-0.054-0.044-0.054h3.001L1.224,11.487z"/>
</symbol>
<use xlink:href="#New_Symbol_12"  width="57.978" height="46" id="XMLID_1_" x="-29" y="-23" transform="matrix(1 0 0 -1 29.0004 22.9997)" overflow="visible"/>
</svg>
