<?xml version="1.0" encoding="utf-8"?>
<!-- Generator: Adobe Illustrator 17.0.0, SVG Export Plug-In . SVG Version: 6.00 Build 0)  -->
<!DOCTYPE svg PUBLIC "-//W3C//DTD SVG 1.1//EN" "http://www.w3.org/Graphics/SVG/1.1/DTD/svg11.dtd">
<svg version="1.1" id="Layer_1" xmlns="http://www.w3.org/2000/svg" xmlns:xlink="http://www.w3.org/1999/xlink" x="0px" y="0px"
	 width="23px" height="28px" viewBox="0 0 23 28" enable-background="new 0 0 23 28" xml:space="preserve">
<g>
	<path fill="#3DB54A" d="M10.5,16h11.4c0.608,0,1.1,0.492,1.1,1.1v4.8c0,0.608-0.492,1.1-1.1,1.1H10.5C9.672,23,9,22.328,9,21.5v-4
		C9,16.672,9.672,16,10.5,16z"/>
	<g>
		<g>
			<path fill="none" stroke="#3DB54A" stroke-linecap="round" stroke-miterlimit="10" d="M1,7.5h5.5c0.552,0,1-0.448,1-1V2"/>
			<path fill="none" stroke="#3DB54A" stroke-width="2" stroke-linecap="round" stroke-miterlimit="10" d="M21,11V3
				c0-1.105-0.896-2-2-2H6.621C6.223,1,5.842,1.158,5.561,1.439L1.439,5.561C1.158,5.842,1,6.224,1,6.621V25c0,1.105,0.895,2,2,2h16
				c1.105,0,2-0.896,2-2v-2V11z"/>
		</g>
		<g>
			<path fill="none" stroke="#3DB54A" stroke-linecap="round" stroke-miterlimit="10" d="M1,7.5h5.5c0.552,0,1-0.448,1-1V2"/>
			<path fill="none" stroke="#3DB54A" stroke-width="2" stroke-linecap="round" stroke-miterlimit="10" d="M21,11V3
				c0-1.105-0.896-2-2-2H6.621C6.223,1,5.842,1.158,5.561,1.439L1.439,5.561C1.158,5.842,1,6.224,1,6.621V25c0,1.105,0.895,2,2,2h16
				c1.105,0,2-0.896,2-2v-2V11z"/>
		</g>
	</g>
	<rect x="11" y="17" fill="#FFFFFF" width="1" height="1"/>
	<rect x="11" y="21" fill="#FFFFFF" width="1" height="1"/>
	<rect x="12" y="18" fill="#FFFFFF" width="1" height="1"/>
	<rect x="13" y="17" fill="#FFFFFF" width="1" height="1"/>
	<rect x="12" y="20" fill="#FFFFFF" width="1" height="1"/>
	<rect x="13" y="21" fill="#FFFFFF" width="1" height="1"/>
	<rect x="15" y="17" fill="#FFFFFF" width="1" height="5"/>
	<rect x="21" y="17" fill="#FFFFFF" width="1" height="1"/>
	<rect x="20" y="17" fill="#FFFFFF" width="1" height="1"/>
	<rect x="19" y="18" fill="#FFFFFF" width="1" height="1"/>
	<rect x="20" y="19" fill="#FFFFFF" width="1" height="1"/>
	<rect x="21" y="20" fill="#FFFFFF" width="1" height="1"/>
	<rect x="20" y="21" fill="#FFFFFF" width="1" height="1"/>
	<rect x="19" y="21" fill="#FFFFFF" width="1" height="1"/>
	<rect x="12" y="19" fill="#FFFFFF" width="1" height="1"/>
	<rect x="16" y="21" fill="#FFFFFF" width="2" height="1"/>
</g>
</svg>
