<?xml version="1.0" encoding="utf-8"?>
<!-- Generator: Adobe Illustrator 17.0.0, SVG Export Plug-In . SVG Version: 6.00 Build 0)  -->
<!DOCTYPE svg PUBLIC "-//W3C//DTD SVG 1.1//EN" "http://www.w3.org/Graphics/SVG/1.1/DTD/svg11.dtd">
<svg version="1.1" id="Layer_1" xmlns="http://www.w3.org/2000/svg" xmlns:xlink="http://www.w3.org/1999/xlink" x="0px" y="0px"
	 width="16px" height="20px" viewBox="0 0 16 20" enable-background="new 0 0 16 20" xml:space="preserve">
<g>
	<path fill="none" stroke="#656170" stroke-linecap="round" stroke-miterlimit="10" d="M1,5.5h3.958C5.34,5.5,5.5,5.19,5.5,4.808V2"
		/>
	<g>
		<path fill="none" stroke="#656170" stroke-width="2" stroke-linecap="round" stroke-miterlimit="10" d="M12.371,9.308l2.524,2.524
			c0.135,0.135,0.135,0.354,0,0.49l-2.524,2.524"/>
		
			<line fill="none" stroke="#656170" stroke-width="2" stroke-linecap="round" stroke-miterlimit="10" x1="15" y1="12" x2="7" y2="12"/>
	</g>
	<path fill="none" stroke="#656170" stroke-width="2" stroke-linecap="round" stroke-miterlimit="10" d="M14.997,10.692"/>
	<path fill="none" stroke="#656170" stroke-width="2" stroke-linecap="round" stroke-miterlimit="10" d="M15,8V2.385
		C15,1.62,14.377,1,13.612,1h-8.57c-0.275,0-0.54,0.109-0.734,0.304L1.379,4.157C1.185,4.352,1,4.616,1,4.892v12.724
		C1,18.38,1.77,19,2.535,19h11.077C14.377,19,15,18.38,15,17.615V16"/>
</g>
</svg>
