<?xml version="1.0" encoding="utf-8"?>
<!-- Generator: Adobe Illustrator 17.0.0, SVG Export Plug-In . SVG Version: 6.00 Build 0)  -->
<!DOCTYPE svg PUBLIC "-//W3C//DTD SVG 1.1//EN" "http://www.w3.org/Graphics/SVG/1.1/DTD/svg11.dtd">
<svg version="1.1" id="Layer_1" xmlns="http://www.w3.org/2000/svg" xmlns:xlink="http://www.w3.org/1999/xlink" x="0px" y="0px"
	 width="71.407px" height="38.471px" viewBox="0 0 71.407 38.471" enable-background="new 0 0 71.407 38.471" xml:space="preserve">
<symbol  id="New_Symbol_15" viewBox="-35.704 -19.235 71.407 38.471">
	<g>
		<path fill="#FFFFFF" d="M6.343,15.893c0.29,1.537-0.843,3.035-2.539,3.302s-3.234-0.812-3.43-2.363
			c-0.19-1.505,0.96-2.895,2.563-3.148S6.062,14.403,6.343,15.893z"/>
	</g>
	<g>
		<g>
			<path fill="#FFFFFF" d="M12.968-13.397C14.951-3.586,9.278,0.93,8.886,9c-0.147,3.031-2.391,5.6-5.503,6.09
				s-6.036-1.267-7.107-4.107C-6.573,3.423-13.358,0.865-14.482-9.08c2.588,1.284,8.53,1.155,14.108,0.278
				C5.204-9.68,10.899-11.381,12.968-13.397z"/>
		</g>
	</g>
	<g>
		<g>
			<path fill="#FFFFFF" d="M1.189-13.597l-0.573,2.515c-0.393,0.071-0.789,0.14-1.194,0.204c-7.363,1.158-13.393,0.504-13.467-1.401
				c-0.071-1.842,5.49-4.175,12.419-5.264c0.499-0.078,0.991-0.146,1.479-0.208c-0.114,0.224-0.21,0.458-0.269,0.714
				C-0.738-15.628-0.038-14.232,1.189-13.597z"/>
		</g>
		<g>
			<path fill="#FFFFFF" d="M2.286-11.415l0.419-1.837c1.382-0.04,2.618-0.994,2.939-2.405c0.202-0.885-0.004-1.762-0.482-2.453
				c3.691,0,6.326,0.616,6.648,1.765C12.254-14.756,8.164-12.693,2.286-11.415z"/>
		</g>
	</g>
	<g>
		<path fill="#FFFFFF" d="M-26.111-19.235c-6.006,4.272-9.592,11.201-9.592,18.537c0,7.335,3.586,14.264,9.592,18.537l1.159-1.63
			c-5.48-3.898-8.751-10.218-8.751-16.907c0-6.689,3.271-13.009,8.751-16.907L-26.111-19.235z"/>
	</g>
	<g>
		<path fill="#FFFFFF" d="M-20.804-14.047c-4.721,2.779-7.654,7.893-7.654,13.348s2.933,10.57,7.654,13.348l1.015-1.724
			c-4.113-2.421-6.668-6.875-6.668-11.625c0-4.749,2.555-9.204,6.668-11.625L-20.804-14.047z"/>
	</g>
	<g>
		<path fill="#FFFFFF" d="M26.111-19.235l-1.159,1.63c5.48,3.897,8.751,10.218,8.752,16.907c0,6.689-3.271,13.009-8.751,16.907
			l1.159,1.63c6.006-4.272,9.592-11.202,9.592-18.537C35.704-8.034,32.118-14.963,26.111-19.235z"/>
	</g>
	<g>
		<path fill="#FFFFFF" d="M20.804-14.047l-1.015,1.724c4.113,2.421,6.668,6.875,6.668,11.625c0,4.749-2.555,9.203-6.668,11.624
			l1.015,1.724c4.721-2.779,7.654-7.893,7.653-13.348C28.457-6.154,25.525-11.268,20.804-14.047z"/>
	</g>
</symbol>
<use xlink:href="#New_Symbol_15"  width="71.407" height="38.471" x="-35.704" y="-19.235" transform="matrix(1 0 0 -1 35.7036 19.2353)" overflow="visible"/>
</svg>
