<?xml version="1.0" encoding="utf-8"?>
<!-- Generator: Adobe Illustrator 17.0.0, SVG Export Plug-In . SVG Version: 6.00 Build 0)  -->
<!DOCTYPE svg PUBLIC "-//W3C//DTD SVG 1.1//EN" "http://www.w3.org/Graphics/SVG/1.1/DTD/svg11.dtd">
<svg version="1.1" id="Layer_1" xmlns="http://www.w3.org/2000/svg" xmlns:xlink="http://www.w3.org/1999/xlink" x="0px" y="0px"
	 width="16px" height="23px" viewBox="0 0 16 23" enable-background="new 0 0 16 23" xml:space="preserve">
<g>
	<g>
		<rect x="6" y="-41" fill="#939292" width="3" height="7"/>
	</g>
	<g>
		<g>
			<path fill="none" stroke="#939292" stroke-width="2" stroke-miterlimit="10" d="M7.816-47.4C8.545-48.182,9-49.222,9-50.375
				c0-2.299-1.779-4.163-4.033-4.341c0.038-0.262,0.065-0.528,0.065-0.8c0-3.046-2.469-5.516-5.516-5.516
				C-3.53-61.032-6-58.562-6-55.516c0,0.452,0.06,0.889,0.163,1.309C-6.552-53.35-7-52.261-7-51.057c0,2.73,2.213,4.943,4.943,4.943
				c1.327,0,2.525-0.529,3.413-1.38c0.673,0.763,1.6,1.283,2.657,1.432c-0.052,0.199-0.089,0.404-0.089,0.619
				C3.924-44.094,5.018-43,6.367-43c1.349,0,2.443-1.094,2.443-2.443C8.81-46.247,8.416-46.955,7.816-47.4z"/>
		</g>
	</g>
</g>
<path fill="none" stroke="#939292" stroke-width="2" stroke-linecap="round" stroke-linejoin="round" stroke-miterlimit="10" d="
	M5.148,22C3.88,21.379,1,18.444,1,15.903C1,9.411,6.242,6.927,6.53,1c4.839,4.29,5.53,10.161,5.53,10.161
	c0.576-1.016,1.383-3.387,1.383-3.387c1.21,2.484,1.901,6.153,1.383,8.129c-0.785,2.993-2.42,5.081-4.148,6.097
	c1.383-4.968-3.456-8.806-3.456-8.806S4.226,17.258,5.148,22z"/>
<path fill="none" stroke="#939292" stroke-width="2" stroke-miterlimit="10" d="M3.782,245c0,0,7.476-0.732,10.686-7.398
	c3.562-7.398,1.644-14.796,1.644-14.796s-8.089,1.152-11.508,9.042C1.042,240.068,3.782,245,3.782,245z"/>
<polygon fill="none" stroke="#939292" stroke-width="2" stroke-linecap="round" stroke-linejoin="round" stroke-miterlimit="10" points="
	4.4,287 12.067,287 9.383,294.092 16.667,292.367 5.167,310 7.467,298.5 1.333,300.8 "/>
<g>
	<path fill="none" stroke="#939292" stroke-width="2" stroke-miterlimit="10" d="M-1,1324L-1,1324c-1.105,0-2-0.895-2-2v-10
		c0-1.105,0.895-2,2-2h0c1.105,0,2,0.895,2,2v10C1,1323.105,0.105,1324-1,1324z"/>
	<path fill="none" stroke="#939292" stroke-width="2" stroke-miterlimit="10" d="M4,1324L4,1324c-1.105,0-2-0.895-2-2v-10
		c0-1.105,0.895-2,2-2h0c1.105,0,2,0.895,2,2v10C6,1323.105,5.105,1324,4,1324z"/>
	<path fill="none" stroke="#939292" stroke-width="2" stroke-miterlimit="10" d="M9,1324L9,1324c-1.105,0-2-0.895-2-2v-10
		c0-1.105,0.895-2,2-2h0c1.105,0,2,0.895,2,2v10C11,1323.105,10.105,1324,9,1324z"/>
	<path fill="none" stroke="#939292" stroke-width="2" stroke-miterlimit="10" d="M14,1324L14,1324c-1.105,0-2-0.895-2-2v-10
		c0-1.105,0.895-2,2-2h0c1.105,0,2,0.895,2,2v10C16,1323.105,15.105,1324,14,1324z"/>
</g>
<path fill="none" stroke="#939292" stroke-width="2" stroke-linecap="round" stroke-linejoin="round" stroke-miterlimit="10" d="
	M0.153,1307c0,0-1.906-1.832,0-3.5s0-3.5,0-3.5"/>
<path fill="none" stroke="#939292" stroke-width="2" stroke-linecap="round" stroke-linejoin="round" stroke-miterlimit="10" d="
	M12.847,1307c0,0-1.906-1.832,0-3.5s0-3.5,0-3.5"/>
<path fill="none" stroke="#939292" stroke-width="2" stroke-linecap="round" stroke-linejoin="round" stroke-miterlimit="10" d="
	M6.694,1307c0,0-1.906-1.832,0-3.5s0-3.5,0-3.5"/>
<g>
	<path fill="none" stroke="#939292" stroke-width="2" stroke-miterlimit="10" d="M13,1384H1c-1.105,0-2-0.895-2-2v-13
		c0-1.105,0.895-2,2-2h6l2-2h6v17C15,1383.105,14.105,1384,13,1384z"/>
	<g>
		<rect x="8" y="1360" fill="#939292" width="8" height="3"/>
	</g>
	<g>
		<path fill="#939292" d="M3.8,1376c0-1.657,3.2-5,3.2-5s3.2,3.343,3.2,5s-1.433,3-3.2,3S3.8,1377.657,3.8,1376z"/>
	</g>
</g>
<g>
	<path fill="none" stroke="#939292" stroke-width="2" stroke-linecap="round" stroke-linejoin="round" stroke-miterlimit="10" d="
		M12,1441H2c-1.105,0-2-0.895-2-2v-10c0-2.761,2.239-5,5-5h4c2.761,0,5,2.239,5,5v10C14,1440.105,13.105,1441,12,1441z"/>
	
		<rect x="2" y="1441" fill="none" stroke="#939292" stroke-width="2" stroke-linecap="round" stroke-linejoin="round" stroke-miterlimit="10" width="10" height="3"/>
	
		<rect x="4" y="1420" fill="none" stroke="#939292" stroke-width="2" stroke-linecap="round" stroke-linejoin="round" stroke-miterlimit="10" width="6" height="4"/>
	
		<line fill="none" stroke="#939292" stroke-width="2" stroke-linecap="round" stroke-linejoin="round" stroke-miterlimit="10" x1="0" y1="1433" x2="14" y2="1433"/>
</g>
<g>
	<polygon fill="#61933F" points="8,2775 6,2775 6,2767.6 7,2766.6 8,2767.6 	"/>
</g>
<g>
	<g>
		<path fill="#61933F" d="M7.335,2753c1.756,0,3.185,1.429,3.185,3.185c0,0.253-0.047,0.534-0.149,0.883l-0.501,1.723l1.658,0.685
			c1.587,0.656,2.613,2.187,2.613,3.903c0,2.328-1.894,4.222-4.222,4.222c-0.741,0-1.445-0.188-2.093-0.56l-1.052-0.604
			l-1.021,0.654c-0.52,0.333-1.111,0.509-1.709,0.509c-1.756,0-3.185-1.429-3.185-3.185c0-0.799,0.309-1.569,0.87-2.168l1.122-1.198
			l-0.955-1.334c-0.142-0.198-0.214-0.417-0.214-0.649c0-0.531,0.376-0.995,0.895-1.103l1.536-0.32l0.055-1.568
			C4.228,2754.35,5.619,2753,7.335,2753 M7.335,2751c-2.802,0-5.07,2.227-5.167,5.004c-1.42,0.296-2.487,1.553-2.487,3.061
			c0,0.678,0.221,1.302,0.588,1.814c-0.869,0.927-1.411,2.165-1.411,3.536c0,2.864,2.321,5.185,5.185,5.185
			c1.029,0,1.982-0.309,2.788-0.825c0.911,0.522,1.963,0.825,3.088,0.825c3.436,0,6.222-2.786,6.222-6.222
			c0-2.596-1.591-4.818-3.85-5.751c0.134-0.461,0.229-0.938,0.229-1.442C12.52,2753.321,10.199,2751,7.335,2751L7.335,2751z"/>
	</g>
</g>
<path fill="#939292" d="M1.359,237.676c0,0-0.346-3.225,0.707-6.056c0.823-2.21,1.975-3.365,1.975-3.365
	C1.014,224.329-3.614,224-3.614,224s-1,5.397,1.925,10.516C-0.861,235.966,0.239,236.974,1.359,237.676"/>
<g>
	<path fill="none" stroke="#939292" stroke-width="2" stroke-linecap="round" stroke-linejoin="round" stroke-miterlimit="10" d="
		M17,78H1c-0.552,0-1-0.448-1-1l0-4c0-1.105,0.895-2,2-2h0l0.839-4.196C2.933,66.336,3.343,66,3.82,66h10.36
		c0.477,0,0.887,0.336,0.981,0.804L16,71l0,0c1.105,0,2,0.895,2,2v4C18,77.552,17.552,78,17,78z"/>
	
		<line fill="none" stroke="#939292" stroke-width="2" stroke-linecap="round" stroke-linejoin="round" stroke-miterlimit="10" x1="2" y1="71" x2="16" y2="71"/>
	<path fill="#939292" d="M3,81H2c-0.552,0-1-0.448-1-1v-3h3v3C4,80.552,3.552,81,3,81z"/>
	<path fill="#939292" d="M16,81h-1c-0.552,0-1-0.448-1-1v-3h3v3C17,80.552,16.552,81,16,81z"/>
	<path fill="#939292" d="M14.5,73L14.5,73c0.828,0,1.5,0.672,1.5,1.5l0,0c0,0.828-0.672,1.5-1.5,1.5h0c-0.828,0-1.5-0.672-1.5-1.5
		l0,0C13,73.672,13.672,73,14.5,73z"/>
	<path fill="#939292" d="M3.5,73L3.5,73C4.328,73,5,73.672,5,74.5l0,0C5,75.328,4.328,76,3.5,76h0C2.672,76,2,75.328,2,74.5l0,0
		C2,73.672,2.672,73,3.5,73z"/>
</g>
<g>
	<path fill="none" stroke="#61933F" stroke-width="2" stroke-miterlimit="10" d="M15,2648H-1c-0.552,0-1-0.448-1-1l0-4
		c0-1.104,0.895-2,2-2h0l0.839-4.196c0.093-0.468,0.504-0.804,0.981-0.804h10.36c0.477,0,0.887,0.336,0.981,0.804L14,2641l0,0
		c1.105,0,2,0.896,2,2v4C16,2647.552,15.552,2648,15,2648z"/>
	<line fill="none" stroke="#61933F" stroke-width="2" stroke-miterlimit="10" x1="0" y1="2641" x2="14" y2="2641"/>
	<path fill="#61933F" d="M1,2651H0c-0.552,0-1-0.448-1-1v-3h3v3C2,2650.552,1.552,2651,1,2651z"/>
	<path fill="#61933F" d="M14,2651h-1c-0.552,0-1-0.448-1-1v-3h3v3C15,2650.552,14.552,2651,14,2651z"/>
	<path fill="#61933F" d="M12.5,2643L12.5,2643c0.828,0,1.5,0.672,1.5,1.5l0,0c0,0.828-0.672,1.5-1.5,1.5h0
		c-0.828,0-1.5-0.672-1.5-1.5l0,0C11,2643.672,11.672,2643,12.5,2643z"/>
	<path fill="#61933F" d="M1.5,2643L1.5,2643c0.828,0,1.5,0.672,1.5,1.5l0,0c0,0.828-0.672,1.5-1.5,1.5h0c-0.828,0-1.5-0.672-1.5-1.5
		l0,0C0,2643.672,0.672,2643,1.5,2643z"/>
</g>
<path fill="none" stroke="#61933F" stroke-width="2" stroke-linecap="round" stroke-linejoin="round" stroke-miterlimit="10" d="
	M4.148,2713.585C2.88,2712.964,0,2710.444,0,2707.903c0-6.492,5.242-8.976,5.53-14.903c4.839,4.29,5.53,10.161,5.53,10.161
	c0.576-1.016,1.383-3.387,1.383-3.387c1.21,2.484,1.901,6.153,1.383,8.129c-0.785,2.993-2.42,5.081-4.148,6.097
	c1.383-4.968-3.456-8.806-3.456-8.806S3.226,2708.843,4.148,2713.585z"/>
</svg>
