<?xml version="1.0" encoding="utf-8"?>
<!-- Generator: Adobe Illustrator 17.0.0, SVG Export Plug-In . SVG Version: 6.00 Build 0)  -->
<!DOCTYPE svg PUBLIC "-//W3C//DTD SVG 1.1//EN" "http://www.w3.org/Graphics/SVG/1.1/DTD/svg11.dtd">
<svg version="1.1" id="Layer_1" xmlns="http://www.w3.org/2000/svg" xmlns:xlink="http://www.w3.org/1999/xlink" x="0px" y="0px"
	 width="18px" height="25px" viewBox="0 0 18 25" enable-background="new 0 0 18 25" xml:space="preserve">
<g>
	<g>
		<rect x="8" y="-1401" fill="#939292" width="3" height="7"/>
	</g>
	<g>
		<g>
			<path fill="none" stroke="#939292" stroke-width="2" stroke-miterlimit="10" d="M9.816-1407.4
				c0.729-0.781,1.184-1.822,1.184-2.975c0-2.299-1.779-4.163-4.033-4.341c0.038-0.262,0.065-0.528,0.065-0.8
				c0-3.046-2.469-5.516-5.516-5.516c-3.046,0-5.516,2.469-5.516,5.516c0,0.452,0.06,0.889,0.163,1.309
				c-0.715,0.857-1.163,1.946-1.163,3.15c0,2.73,2.213,4.943,4.943,4.943c1.327,0,2.525-0.529,3.413-1.38
				c0.673,0.763,1.6,1.283,2.657,1.432c-0.052,0.199-0.089,0.404-0.089,0.619c0,1.349,1.094,2.443,2.443,2.443
				c1.349,0,2.443-1.094,2.443-2.443C10.81-1406.247,10.416-1406.955,9.816-1407.4z"/>
		</g>
	</g>
</g>
<path fill="none" stroke="#939292" stroke-width="2" stroke-linecap="round" stroke-linejoin="round" stroke-miterlimit="10" d="
	M7.148-1338C5.88-1338.621,3-1341.556,3-1344.097c0-6.492,5.242-8.976,5.53-14.903c4.839,4.29,5.53,10.161,5.53,10.161
	c0.576-1.016,1.383-3.387,1.383-3.387c1.21,2.484,1.901,6.153,1.383,8.129c-0.785,2.993-2.42,5.081-4.148,6.097
	c1.383-4.968-3.456-8.806-3.456-8.806S6.226-1342.742,7.148-1338z"/>
<path fill="none" stroke="#939292" stroke-width="2" stroke-miterlimit="10" d="M5.782-1115c0,0,7.476-0.732,10.686-7.398
	c3.562-7.398,1.644-14.796,1.644-14.796s-8.089,1.151-11.508,9.042C3.042-1119.932,5.782-1115,5.782-1115z"/>
<polygon fill="none" stroke="#939292" stroke-width="2" stroke-linecap="round" stroke-linejoin="round" stroke-miterlimit="10" points="
	6.4,-1073 14.067,-1073 11.383,-1065.908 18.667,-1067.633 7.167,-1050 9.467,-1061.5 3.333,-1059.2 "/>
<g>
	<path fill="none" stroke="#939292" stroke-width="2" stroke-miterlimit="10" d="M1-36L1-36c-1.105,0-2-0.895-2-2v-10
		c0-1.105,0.895-2,2-2h0c1.105,0,2,0.895,2,2v10C3-36.895,2.105-36,1-36z"/>
	<path fill="none" stroke="#939292" stroke-width="2" stroke-miterlimit="10" d="M6-36L6-36c-1.105,0-2-0.895-2-2v-10
		c0-1.105,0.895-2,2-2h0c1.105,0,2,0.895,2,2v10C8-36.895,7.105-36,6-36z"/>
	<path fill="none" stroke="#939292" stroke-width="2" stroke-miterlimit="10" d="M11-36L11-36c-1.105,0-2-0.895-2-2v-10
		c0-1.105,0.895-2,2-2h0c1.105,0,2,0.895,2,2v10C13-36.895,12.105-36,11-36z"/>
	<path fill="none" stroke="#939292" stroke-width="2" stroke-miterlimit="10" d="M16-36L16-36c-1.105,0-2-0.895-2-2v-10
		c0-1.105,0.895-2,2-2h0c1.105,0,2,0.895,2,2v10C18-36.895,17.105-36,16-36z"/>
</g>
<path fill="none" stroke="#939292" stroke-width="2" stroke-linecap="round" stroke-linejoin="round" stroke-miterlimit="10" d="
	M2.153-53c0,0-1.906-1.832,0-3.5s0-3.5,0-3.5"/>
<path fill="none" stroke="#939292" stroke-width="2" stroke-linecap="round" stroke-linejoin="round" stroke-miterlimit="10" d="
	M14.847-53c0,0-1.906-1.832,0-3.5s0-3.5,0-3.5"/>
<path fill="none" stroke="#939292" stroke-width="2" stroke-linecap="round" stroke-linejoin="round" stroke-miterlimit="10" d="
	M8.694-53c0,0-1.906-1.832,0-3.5s0-3.5,0-3.5"/>
<g>
	<path fill="none" stroke="#939292" stroke-width="2" stroke-miterlimit="10" d="M15,24H3c-1.105,0-2-0.895-2-2V9
		c0-1.105,0.895-2,2-2h6l2-2h6v17C17,23.105,16.105,24,15,24z"/>
	<g>
		<rect x="10" y="0" fill="#939292" width="8" height="3"/>
	</g>
	<g>
		<path fill="#939292" d="M5.8,16c0-1.657,3.2-5,3.2-5s3.2,3.343,3.2,5s-1.433,3-3.2,3S5.8,17.657,5.8,16z"/>
	</g>
</g>
<g>
	<path fill="none" stroke="#939292" stroke-width="2" stroke-linecap="round" stroke-linejoin="round" stroke-miterlimit="10" d="
		M14,81H4c-1.105,0-2-0.895-2-2V69c0-2.761,2.239-5,5-5h4c2.761,0,5,2.239,5,5v10C16,80.105,15.105,81,14,81z"/>
	
		<rect x="4" y="81" fill="none" stroke="#939292" stroke-width="2" stroke-linecap="round" stroke-linejoin="round" stroke-miterlimit="10" width="10" height="3"/>
	
		<rect x="6" y="60" fill="none" stroke="#939292" stroke-width="2" stroke-linecap="round" stroke-linejoin="round" stroke-miterlimit="10" width="6" height="4"/>
	
		<line fill="none" stroke="#939292" stroke-width="2" stroke-linecap="round" stroke-linejoin="round" stroke-miterlimit="10" x1="2" y1="73" x2="16" y2="73"/>
</g>
<g>
	<polygon fill="#61933F" points="10,1415 8,1415 8,1407.6 9,1406.6 10,1407.6 	"/>
</g>
<g>
	<g>
		<path fill="#61933F" d="M9.335,1393c1.756,0,3.185,1.429,3.185,3.185c0,0.253-0.047,0.534-0.149,0.883l-0.501,1.723l1.658,0.685
			c1.587,0.656,2.613,2.187,2.613,3.903c0,2.328-1.894,4.222-4.222,4.222c-0.741,0-1.445-0.188-2.093-0.56l-1.052-0.604
			l-1.021,0.654c-0.52,0.333-1.111,0.509-1.709,0.509c-1.756,0-3.185-1.429-3.185-3.185c0-0.799,0.309-1.569,0.87-2.168l1.122-1.198
			l-0.955-1.334c-0.142-0.198-0.214-0.417-0.214-0.649c0-0.531,0.376-0.995,0.895-1.103l1.536-0.32l0.055-1.568
			C6.228,1394.35,7.619,1393,9.335,1393 M9.335,1391c-2.802,0-5.07,2.227-5.167,5.004c-1.42,0.296-2.487,1.553-2.487,3.061
			c0,0.678,0.221,1.302,0.588,1.814c-0.869,0.927-1.411,2.165-1.411,3.536c0,2.864,2.321,5.185,5.185,5.185
			c1.029,0,1.982-0.309,2.788-0.825c0.911,0.522,1.963,0.825,3.088,0.825c3.436,0,6.222-2.786,6.222-6.222
			c0-2.596-1.591-4.818-3.85-5.751c0.134-0.461,0.229-0.938,0.229-1.442C14.52,1393.321,12.199,1391,9.335,1391L9.335,1391z"/>
	</g>
</g>
<path fill="#939292" d="M3.359-1122.324c0,0-0.346-3.225,0.707-6.056c0.823-2.21,1.975-3.365,1.975-3.365
	c-3.028-3.925-7.655-4.255-7.655-4.255s-1,5.397,1.925,10.516C1.139-1124.034,2.239-1123.026,3.359-1122.324"/>
<g>
	<path fill="none" stroke="#939292" stroke-width="2" stroke-linecap="round" stroke-linejoin="round" stroke-miterlimit="10" d="
		M19-1282H3c-0.552,0-1-0.448-1-1l0-4c0-1.105,0.895-2,2-2h0l0.839-4.196c0.093-0.467,0.504-0.804,0.981-0.804h10.36
		c0.477,0,0.887,0.336,0.981,0.804L18-1289l0,0c1.105,0,2,0.895,2,2v4C20-1282.448,19.552-1282,19-1282z"/>
	
		<line fill="none" stroke="#939292" stroke-width="2" stroke-linecap="round" stroke-linejoin="round" stroke-miterlimit="10" x1="4" y1="-1289" x2="18" y2="-1289"/>
	<path fill="#939292" d="M5-1279H4c-0.552,0-1-0.448-1-1v-3h3v3C6-1279.448,5.552-1279,5-1279z"/>
	<path fill="#939292" d="M18-1279h-1c-0.552,0-1-0.448-1-1v-3h3v3C19-1279.448,18.552-1279,18-1279z"/>
	<path fill="#939292" d="M16.5-1287L16.5-1287c0.828,0,1.5,0.672,1.5,1.5l0,0c0,0.828-0.672,1.5-1.5,1.5h0
		c-0.828,0-1.5-0.672-1.5-1.5l0,0C15-1286.328,15.672-1287,16.5-1287z"/>
	<path fill="#939292" d="M5.5-1287L5.5-1287c0.828,0,1.5,0.672,1.5,1.5l0,0c0,0.828-0.672,1.5-1.5,1.5h0c-0.828,0-1.5-0.672-1.5-1.5
		l0,0C4-1286.328,4.672-1287,5.5-1287z"/>
</g>
<g>
	<path fill="none" stroke="#61933F" stroke-width="2" stroke-miterlimit="10" d="M17,1288H1c-0.552,0-1-0.448-1-1l0-4
		c0-1.105,0.895-2,2-2h0l0.839-4.196c0.093-0.467,0.504-0.804,0.981-0.804h10.36c0.477,0,0.887,0.336,0.981,0.804L16,1281l0,0
		c1.105,0,2,0.895,2,2v4C18,1287.552,17.552,1288,17,1288z"/>
	<line fill="none" stroke="#61933F" stroke-width="2" stroke-miterlimit="10" x1="2" y1="1281" x2="16" y2="1281"/>
	<path fill="#61933F" d="M3,1291H2c-0.552,0-1-0.448-1-1v-3h3v3C4,1290.552,3.552,1291,3,1291z"/>
	<path fill="#61933F" d="M16,1291h-1c-0.552,0-1-0.448-1-1v-3h3v3C17,1290.552,16.552,1291,16,1291z"/>
	<path fill="#61933F" d="M14.5,1283L14.5,1283c0.828,0,1.5,0.672,1.5,1.5l0,0c0,0.828-0.672,1.5-1.5,1.5h0
		c-0.828,0-1.5-0.672-1.5-1.5l0,0C13,1283.672,13.672,1283,14.5,1283z"/>
	<path fill="#61933F" d="M3.5,1283L3.5,1283c0.828,0,1.5,0.672,1.5,1.5l0,0c0,0.828-0.672,1.5-1.5,1.5h0c-0.828,0-1.5-0.672-1.5-1.5
		l0,0C2,1283.672,2.672,1283,3.5,1283z"/>
</g>
<path fill="none" stroke="#61933F" stroke-width="2" stroke-linecap="round" stroke-linejoin="round" stroke-miterlimit="10" d="
	M6.148,1353.585C4.88,1352.964,2,1350.444,2,1347.903c0-6.492,5.242-8.976,5.53-14.903c4.839,4.29,5.53,10.161,5.53,10.161
	c0.576-1.016,1.383-3.387,1.383-3.387c1.21,2.484,1.901,6.153,1.383,8.129c-0.785,2.993-2.42,5.081-4.148,6.097
	c1.383-4.968-3.456-8.806-3.456-8.806S5.226,1348.843,6.148,1353.585z"/>
</svg>
