<?xml version="1.0" encoding="utf-8"?>
<!-- Generator: Adobe Illustrator 17.0.0, SVG Export Plug-In . SVG Version: 6.00 Build 0)  -->
<!DOCTYPE svg PUBLIC "-//W3C//DTD SVG 1.1//EN" "http://www.w3.org/Graphics/SVG/1.1/DTD/svg11.dtd">
<svg version="1.1" id="Layer_1" xmlns="http://www.w3.org/2000/svg" xmlns:xlink="http://www.w3.org/1999/xlink" x="0px" y="0px"
	 width="20px" height="16px" viewBox="0 0 20 16" enable-background="new 0 0 20 16" xml:space="preserve">
<g>
	<g>
		<rect x="7" y="-106" fill="#939292" width="3" height="7"/>
	</g>
	<g>
		<g>
			<path fill="none" stroke="#939292" stroke-width="2" stroke-miterlimit="10" d="M8.816-112.4
				c0.729-0.781,1.184-1.822,1.184-2.975c0-2.299-1.779-4.163-4.033-4.341c0.038-0.262,0.065-0.528,0.065-0.8
				c0-3.046-2.469-5.516-5.516-5.516c-3.046,0-5.516,2.469-5.516,5.516c0,0.452,0.06,0.889,0.163,1.309
				C-5.552-118.35-6-117.261-6-116.057c0,2.73,2.213,4.943,4.943,4.943c1.327,0,2.525-0.529,3.413-1.38
				c0.673,0.763,1.6,1.283,2.657,1.432c-0.052,0.199-0.089,0.404-0.089,0.619c0,1.349,1.094,2.443,2.443,2.443
				c1.349,0,2.443-1.094,2.443-2.443C9.81-111.247,9.416-111.955,8.816-112.4z"/>
		</g>
	</g>
</g>
<path fill="none" stroke="#939292" stroke-width="2" stroke-linecap="round" stroke-linejoin="round" stroke-miterlimit="10" d="
	M6.148-43C4.88-43.621,2-46.556,2-49.097C2-55.589,7.242-58.073,7.53-64c4.839,4.29,5.53,10.161,5.53,10.161
	c0.576-1.016,1.383-3.387,1.383-3.387c1.21,2.484,1.901,6.153,1.383,8.129c-0.785,2.993-2.42,5.081-4.148,6.097
	c1.383-4.968-3.456-8.806-3.456-8.806S5.226-47.742,6.148-43z"/>
<path fill="none" stroke="#939292" stroke-width="2" stroke-miterlimit="10" d="M4.782,180c0,0,7.476-0.732,10.686-7.398
	c3.562-7.398,1.644-14.796,1.644-14.796s-8.089,1.152-11.508,9.042C2.042,175.068,4.782,180,4.782,180z"/>
<polygon fill="none" stroke="#939292" stroke-width="2" stroke-linecap="round" stroke-linejoin="round" stroke-miterlimit="10" points="
	5.4,222 13.067,222 10.383,229.092 17.667,227.367 6.167,245 8.467,233.5 2.333,235.8 "/>
<g>
	<path fill="none" stroke="#939292" stroke-width="2" stroke-miterlimit="10" d="M0,1259L0,1259c-1.105,0-2-0.895-2-2v-10
		c0-1.105,0.895-2,2-2h0c1.105,0,2,0.895,2,2v10C2,1258.105,1.105,1259,0,1259z"/>
	<path fill="none" stroke="#939292" stroke-width="2" stroke-miterlimit="10" d="M5,1259L5,1259c-1.105,0-2-0.895-2-2v-10
		c0-1.105,0.895-2,2-2h0c1.105,0,2,0.895,2,2v10C7,1258.105,6.105,1259,5,1259z"/>
	<path fill="none" stroke="#939292" stroke-width="2" stroke-miterlimit="10" d="M10,1259L10,1259c-1.105,0-2-0.895-2-2v-10
		c0-1.105,0.895-2,2-2h0c1.105,0,2,0.895,2,2v10C12,1258.105,11.105,1259,10,1259z"/>
	<path fill="none" stroke="#939292" stroke-width="2" stroke-miterlimit="10" d="M15,1259L15,1259c-1.105,0-2-0.895-2-2v-10
		c0-1.105,0.895-2,2-2h0c1.105,0,2,0.895,2,2v10C17,1258.105,16.105,1259,15,1259z"/>
</g>
<path fill="none" stroke="#939292" stroke-width="2" stroke-linecap="round" stroke-linejoin="round" stroke-miterlimit="10" d="
	M1.153,1242c0,0-1.906-1.832,0-3.5s0-3.5,0-3.5"/>
<path fill="none" stroke="#939292" stroke-width="2" stroke-linecap="round" stroke-linejoin="round" stroke-miterlimit="10" d="
	M13.847,1242c0,0-1.906-1.832,0-3.5s0-3.5,0-3.5"/>
<path fill="none" stroke="#939292" stroke-width="2" stroke-linecap="round" stroke-linejoin="round" stroke-miterlimit="10" d="
	M7.694,1242c0,0-1.906-1.832,0-3.5s0-3.5,0-3.5"/>
<g>
	<path fill="none" stroke="#939292" stroke-width="2" stroke-miterlimit="10" d="M14,1319H2c-1.105,0-2-0.895-2-2v-13
		c0-1.105,0.895-2,2-2h6l2-2h6v17C16,1318.105,15.105,1319,14,1319z"/>
	<g>
		<rect x="9" y="1295" fill="#939292" width="8" height="3"/>
	</g>
	<g>
		<path fill="#939292" d="M4.8,1311c0-1.657,3.2-5,3.2-5s3.2,3.343,3.2,5s-1.433,3-3.2,3S4.8,1312.657,4.8,1311z"/>
	</g>
</g>
<g>
	<path fill="none" stroke="#939292" stroke-width="2" stroke-linecap="round" stroke-linejoin="round" stroke-miterlimit="10" d="
		M13,1376H3c-1.105,0-2-0.895-2-2v-10c0-2.761,2.239-5,5-5h4c2.761,0,5,2.239,5,5v10C15,1375.105,14.105,1376,13,1376z"/>
	
		<rect x="3" y="1376" fill="none" stroke="#939292" stroke-width="2" stroke-linecap="round" stroke-linejoin="round" stroke-miterlimit="10" width="10" height="3"/>
	
		<rect x="5" y="1355" fill="none" stroke="#939292" stroke-width="2" stroke-linecap="round" stroke-linejoin="round" stroke-miterlimit="10" width="6" height="4"/>
	
		<line fill="none" stroke="#939292" stroke-width="2" stroke-linecap="round" stroke-linejoin="round" stroke-miterlimit="10" x1="1" y1="1368" x2="15" y2="1368"/>
</g>
<g>
	<polygon fill="#61933F" points="9,2710 7,2710 7,2702.6 8,2701.6 9,2702.6 	"/>
</g>
<g>
	<g>
		<path fill="#61933F" d="M8.335,2688c1.756,0,3.185,1.429,3.185,3.185c0,0.253-0.047,0.534-0.149,0.883l-0.501,1.723l1.658,0.685
			c1.587,0.656,2.613,2.187,2.613,3.903c0,2.328-1.894,4.222-4.222,4.222c-0.741,0-1.445-0.188-2.093-0.56l-1.052-0.604
			l-1.021,0.654c-0.52,0.333-1.111,0.509-1.709,0.509c-1.756,0-3.185-1.429-3.185-3.185c0-0.799,0.309-1.569,0.87-2.168l1.122-1.198
			l-0.955-1.334c-0.142-0.198-0.214-0.417-0.214-0.649c0-0.531,0.376-0.995,0.895-1.103l1.536-0.32l0.055-1.568
			C5.228,2689.35,6.619,2688,8.335,2688 M8.335,2686c-2.802,0-5.07,2.227-5.167,5.004c-1.42,0.296-2.487,1.553-2.487,3.061
			c0,0.678,0.221,1.302,0.588,1.814c-0.869,0.927-1.411,2.165-1.411,3.536c0,2.864,2.321,5.185,5.185,5.185
			c1.029,0,1.982-0.309,2.788-0.825c0.911,0.522,1.963,0.825,3.088,0.825c3.436,0,6.222-2.786,6.222-6.222
			c0-2.596-1.591-4.818-3.85-5.751c0.134-0.461,0.229-0.938,0.229-1.442C13.52,2688.321,11.199,2686,8.335,2686L8.335,2686z"/>
	</g>
</g>
<path fill="#939292" d="M2.359,172.676c0,0-0.346-3.225,0.707-6.056c0.823-2.21,1.975-3.365,1.975-3.365
	C2.014,159.329-2.614,159-2.614,159s-1,5.397,1.925,10.516C0.139,170.966,1.239,171.974,2.359,172.676"/>
<g>
	<path fill="none" stroke="#939292" stroke-width="2" stroke-linecap="round" stroke-linejoin="round" stroke-miterlimit="10" d="
		M18,13H2c-0.552,0-1-0.448-1-1l0-4c0-1.105,0.895-2,2-2h0l0.839-4.196C3.933,1.336,4.343,1,4.82,1h10.36
		c0.477,0,0.887,0.336,0.981,0.804L17,6l0,0c1.105,0,2,0.895,2,2v4C19,12.552,18.552,13,18,13z"/>
	
		<line fill="none" stroke="#939292" stroke-width="2" stroke-linecap="round" stroke-linejoin="round" stroke-miterlimit="10" x1="3" y1="6" x2="17" y2="6"/>
	<path fill="#939292" d="M4,16H3c-0.552,0-1-0.448-1-1v-3h3v3C5,15.552,4.552,16,4,16z"/>
	<path fill="#939292" d="M17,16h-1c-0.552,0-1-0.448-1-1v-3h3v3C18,15.552,17.552,16,17,16z"/>
	<path fill="#939292" d="M15.5,8L15.5,8C16.328,8,17,8.672,17,9.5v0c0,0.828-0.672,1.5-1.5,1.5h0c-0.828,0-1.5-0.672-1.5-1.5v0
		C14,8.672,14.672,8,15.5,8z"/>
	<path fill="#939292" d="M4.5,8L4.5,8C5.328,8,6,8.672,6,9.5v0C6,10.328,5.328,11,4.5,11h0C3.672,11,3,10.328,3,9.5v0
		C3,8.672,3.672,8,4.5,8z"/>
</g>
<g>
	<path fill="none" stroke="#61933F" stroke-width="2" stroke-miterlimit="10" d="M16,2583H0c-0.552,0-1-0.448-1-1l0-4
		c0-1.104,0.895-2,2-2h0l0.839-4.196c0.093-0.468,0.504-0.804,0.981-0.804h10.36c0.477,0,0.887,0.336,0.981,0.804L15,2576l0,0
		c1.105,0,2,0.896,2,2v4C17,2582.552,16.552,2583,16,2583z"/>
	<line fill="none" stroke="#61933F" stroke-width="2" stroke-miterlimit="10" x1="1" y1="2576" x2="15" y2="2576"/>
	<path fill="#61933F" d="M2,2586H1c-0.552,0-1-0.448-1-1v-3h3v3C3,2585.552,2.552,2586,2,2586z"/>
	<path fill="#61933F" d="M15,2586h-1c-0.552,0-1-0.448-1-1v-3h3v3C16,2585.552,15.552,2586,15,2586z"/>
	<path fill="#61933F" d="M13.5,2578L13.5,2578c0.828,0,1.5,0.672,1.5,1.5l0,0c0,0.828-0.672,1.5-1.5,1.5h0
		c-0.828,0-1.5-0.672-1.5-1.5l0,0C12,2578.672,12.672,2578,13.5,2578z"/>
	<path fill="#61933F" d="M2.5,2578L2.5,2578c0.828,0,1.5,0.672,1.5,1.5l0,0c0,0.828-0.672,1.5-1.5,1.5h0c-0.828,0-1.5-0.672-1.5-1.5
		l0,0C1,2578.672,1.672,2578,2.5,2578z"/>
</g>
<path fill="none" stroke="#61933F" stroke-width="2" stroke-linecap="round" stroke-linejoin="round" stroke-miterlimit="10" d="
	M5.148,2648.585C3.88,2647.964,1,2645.444,1,2642.903c0-6.492,5.242-8.976,5.53-14.903c4.839,4.29,5.53,10.161,5.53,10.161
	c0.576-1.016,1.383-3.387,1.383-3.387c1.21,2.484,1.901,6.153,1.383,8.129c-0.785,2.993-2.42,5.081-4.148,6.097
	c1.383-4.968-3.456-8.806-3.456-8.806S4.226,2643.843,5.148,2648.585z"/>
</svg>
