<?xml version="1.0" encoding="utf-8"?>
<!-- Generator: Adobe Illustrator 17.0.0, SVG Export Plug-In . SVG Version: 6.00 Build 0)  -->
<!DOCTYPE svg PUBLIC "-//W3C//DTD SVG 1.1//EN" "http://www.w3.org/Graphics/SVG/1.1/DTD/svg11.dtd">
<svg version="1.1" id="Layer_1" xmlns="http://www.w3.org/2000/svg" xmlns:xlink="http://www.w3.org/1999/xlink" x="0px" y="0px"
	 width="15.882px" height="20.055px" viewBox="0 0 15.882 20.055" enable-background="new 0 0 15.882 20.055" xml:space="preserve">
<g>
	<g>
		<polygon fill="#FFFFFF" points="14.875,8.231 9.907,8.231 9.688,10.583 15.095,10.583 		"/>
		<path fill="#FFFFFF" d="M9.539,11.759l-0.788,8.295c0.53-0.063,1.06-0.016,1.589-0.106c1.875-0.322,3.831-0.694,5.543-1.486
			l-0.638-6.703H9.539z"/>
		<g>
			<path fill="#FFFFFF" d="M10.457,2.352c-0.013,0-0.024,0-0.037,0c0.018,0,0.025-0.113,0.018-0.212
				c-0.055-0.818-0.937-1.471-1.901-1.471c-0.587,0-1.039,0.281-1.251,0.661C7.112,1.268,6.932,1.239,6.75,1.235
				C6.033,1.22,5.576,1.697,5.626,2.294C5.403,2.34,5.205,2.414,5.032,2.512C4.891,2.409,4.745,2.317,4.59,2.249
				C4.379,1.902,3.997,1.644,3.627,1.628c-0.464-0.02-0.72,0.348-0.593,0.81C3.036,2.445,3.04,2.452,3.042,2.459
				c-0.168,0.236-0.216,0.563-0.11,0.934c0.197,0.691,0.884,1.331,1.612,1.518c0.475,0.905,1.511,1.73,2.675,2.02
				c1.504,0.376,2.774-0.243,2.76-1.519c0.214,0.092,0.444,0.166,0.688,0.208c1.166,0.202,2.184-0.389,2.184-1.286
				C12.851,3.387,11.73,2.352,10.457,2.352z"/>
			<circle fill="#FFFFFF" cx="1.336" cy="1.336" r="1.336"/>
		</g>
	</g>
</g>
</svg>
