<?xml version="1.0" encoding="utf-8"?>
<!-- Generator: Adobe Illustrator 17.0.0, SVG Export Plug-In . SVG Version: 6.00 Build 0)  -->
<!DOCTYPE svg PUBLIC "-//W3C//DTD SVG 1.1//EN" "http://www.w3.org/Graphics/SVG/1.1/DTD/svg11.dtd">
<svg version="1.1" id="Layer_1" xmlns="http://www.w3.org/2000/svg" xmlns:xlink="http://www.w3.org/1999/xlink" x="0px" y="0px"
	 width="20px" height="20px" viewBox="0 0 20 20" enable-background="new 0 0 20 20" xml:space="preserve">
<g>
	<path fill="none" stroke="#656170" stroke-width="2" stroke-linecap="round" stroke-miterlimit="10" d="M19,7v10.166
		C19,18.05,18.193,19,17.309,19H2.85C1.966,19,1,18.05,1,17.166V2.707C1,1.823,1.966,1,2.85,1H12"/>
	<g>
		<g>
			<g>
				<path fill="#656170" d="M16.59,2L16.59,2l1.426,1.426l-0.858,0.858l-1.426-1.426L16.59,2C16.589,2,16.589,2,16.59,2 M16.59,1
					c-0.256,0-0.512,0.098-0.707,0.293l-0.858,0.858c-0.391,0.391-0.391,1.024,0,1.414l1.426,1.426
					c0.195,0.195,0.451,0.293,0.707,0.293s0.512-0.098,0.707-0.293l0.858-0.858c0.391-0.391,0.391-1.024,0-1.414l-1.426-1.426
					C17.102,1.098,16.846,1,16.59,1L16.59,1z"/>
			</g>
		</g>
		<g>
			<path fill="#656170" d="M14,5V4.843l1.294,1.429l-8.381,8.319c-0.198,0.089-0.823,0.288-2.054,0.597
				c0.309-1.231,0.616-1.825,0.705-2.023L14,4.837 M13.723,3.822c-0.229,0-0.452,0.082-0.619,0.25l-8.46,8.46
				c-0.249,0.249-0.718,2.106-0.978,3.201c-0.076,0.319,0.194,0.63,0.507,0.63c0.036,0,0.073-0.004,0.109-0.013
				c1.095-0.26,2.952-0.729,3.201-0.978l8.46-8.46c0.357-0.357,0.328-0.964-0.064-1.356l-1.42-1.42
				C14.252,3.928,13.983,3.822,13.723,3.822L13.723,3.822z"/>
		</g>
	</g>
</g>
</svg>
