<?xml version="1.0" encoding="utf-8"?>
<!-- Generator: Adobe Illustrator 17.0.0, SVG Export Plug-In . SVG Version: 6.00 Build 0)  -->
<!DOCTYPE svg PUBLIC "-//W3C//DTD SVG 1.1//EN" "http://www.w3.org/Graphics/SVG/1.1/DTD/svg11.dtd">
<svg version="1.1" id="Layer_1" xmlns="http://www.w3.org/2000/svg" xmlns:xlink="http://www.w3.org/1999/xlink" x="0px" y="0px"
	 width="71.407px" height="38.471px" viewBox="0 0 71.407 38.471" enable-background="new 0 0 71.407 38.471" xml:space="preserve">
<g>
	<path fill="#7D9BA3" d="M42.047,3.343c0.29-1.537-0.843-3.035-2.539-3.302s-3.234,0.812-3.43,2.363
		c-0.19,1.505,0.96,2.895,2.563,3.148C40.245,5.804,41.766,4.833,42.047,3.343z"/>
	<path fill="#7D9BA3" d="M48.672,32.632c1.982-9.81-3.69-14.327-4.082-22.397c-0.147-3.031-2.391-5.6-5.503-6.09
		S33.05,5.413,31.98,8.253c-2.849,7.56-9.634,10.118-10.759,20.063c2.588-1.284,8.53-1.155,14.108-0.278
		C40.908,28.915,46.603,30.616,48.672,32.632z"/>
	<path fill="#7D9BA3" d="M36.893,32.832l-0.573-2.515c-0.393-0.071-0.789-0.14-1.194-0.204c-7.363-1.158-13.393-0.504-13.467,1.401
		c-0.071,1.842,5.49,4.175,12.419,5.264c0.499,0.078,0.991,0.146,1.479,0.208c-0.114-0.224-0.21-0.458-0.269-0.714
		C34.965,34.863,35.666,33.468,36.893,32.832z"/>
	<path fill="#7D9BA3" d="M37.989,30.65l0.419,1.837c1.382,0.04,2.618,0.994,2.939,2.405c0.202,0.885-0.004,1.762-0.482,2.453
		c3.691,0,6.326-0.616,6.648-1.765C47.958,33.992,43.868,31.928,37.989,30.65z"/>
	<path fill="none" stroke="#647A81" stroke-width="2" stroke-miterlimit="10" d="M10.172,2.212C4.627,6.156,1,12.627,1,19.934
		s3.627,13.778,9.172,17.722"/>
	<path fill="none" stroke="#647A81" stroke-width="2" stroke-miterlimit="10" d="M15.407,7.448
		c-4.28,2.519-7.161,7.161-7.161,12.486c0,5.325,2.881,9.967,7.161,12.486"/>
	<path fill="none" stroke="#647A81" stroke-width="2" stroke-miterlimit="10" d="M61.235,37.656
		c5.545-3.944,9.172-10.415,9.172-17.722S66.78,6.156,61.236,2.212"/>
	<path fill="none" stroke="#647A81" stroke-width="2" stroke-miterlimit="10" d="M56,32.42c4.28-2.519,7.161-7.161,7.161-12.486
		c0-5.325-2.881-9.967-7.161-12.486"/>
</g>
</svg>
