<?xml version="1.0" encoding="utf-8"?>
<!-- Generator: Adobe Illustrator 17.0.0, SVG Export Plug-In . SVG Version: 6.00 Build 0)  -->
<!DOCTYPE svg PUBLIC "-//W3C//DTD SVG 1.1//EN" "http://www.w3.org/Graphics/SVG/1.1/DTD/svg11.dtd">
<svg version="1.1" id="Layer_1" xmlns="http://www.w3.org/2000/svg" xmlns:xlink="http://www.w3.org/1999/xlink" x="0px" y="0px"
	 width="21.406px" height="24.369px" viewBox="0 0 21.406 24.369" enable-background="new 0 0 21.406 24.369" xml:space="preserve">
<g>
	<g>
		<rect x="9.779" y="-262.691" fill="#939292" width="3" height="7"/>
	</g>
	<g>
		<g>
			<path fill="none" stroke="#939292" stroke-width="2" stroke-miterlimit="10" d="M11.595-269.091
				c0.729-0.781,1.184-1.822,1.184-2.975c0-2.299-1.779-4.163-4.033-4.341c0.038-0.262,0.065-0.528,0.065-0.8
				c0-3.046-2.469-5.516-5.516-5.516c-3.046,0-5.516,2.469-5.516,5.516c0,0.452,0.06,0.889,0.163,1.309
				c-0.715,0.857-1.163,1.946-1.163,3.15c0,2.73,2.213,4.943,4.943,4.943c1.327,0,2.525-0.529,3.413-1.38
				c0.673,0.763,1.6,1.283,2.657,1.432c-0.052,0.199-0.089,0.404-0.089,0.619c0,1.349,1.094,2.443,2.443,2.443
				c1.349,0,2.443-1.094,2.443-2.443C12.589-267.938,12.195-268.646,11.595-269.091z"/>
		</g>
	</g>
</g>
<path fill="none" stroke="#939292" stroke-width="2" stroke-linecap="round" stroke-linejoin="round" stroke-miterlimit="10" d="
	M8.927-199.691c-1.267-0.621-4.148-3.556-4.148-6.097c0-6.492,5.242-8.976,5.53-14.903c4.839,4.29,5.53,10.161,5.53,10.161
	c0.576-1.016,1.383-3.387,1.383-3.387c1.21,2.484,1.901,6.153,1.383,8.129c-0.785,2.993-2.42,5.081-4.148,6.097
	c1.383-4.968-3.456-8.806-3.456-8.806S8.005-204.433,8.927-199.691z"/>
<path fill="none" stroke="#939292" stroke-width="2" stroke-miterlimit="10" d="M7.561,23.309c0,0,7.476-0.732,10.686-7.398
	C21.808,8.514,19.89,1.116,19.89,1.116s-8.089,1.152-11.508,9.042C4.821,18.377,7.561,23.309,7.561,23.309z"/>
<polygon fill="none" stroke="#939292" stroke-width="2" stroke-linecap="round" stroke-linejoin="round" stroke-miterlimit="10" points="
	8.179,65.309 15.845,65.309 13.162,72.401 20.445,70.676 8.945,88.309 11.245,76.809 5.112,79.109 "/>
<g>
	<path fill="none" stroke="#939292" stroke-width="2" stroke-miterlimit="10" d="M2.779,1102.309L2.779,1102.309
		c-1.105,0-2-0.895-2-2v-10c0-1.105,0.895-2,2-2h0c1.105,0,2,0.895,2,2v10C4.779,1101.414,3.883,1102.309,2.779,1102.309z"/>
	<path fill="none" stroke="#939292" stroke-width="2" stroke-miterlimit="10" d="M7.779,1102.309L7.779,1102.309
		c-1.105,0-2-0.895-2-2v-10c0-1.105,0.895-2,2-2h0c1.105,0,2,0.895,2,2v10C9.779,1101.414,8.883,1102.309,7.779,1102.309z"/>
	<path fill="none" stroke="#939292" stroke-width="2" stroke-miterlimit="10" d="M12.779,1102.309L12.779,1102.309
		c-1.105,0-2-0.895-2-2v-10c0-1.105,0.895-2,2-2h0c1.105,0,2,0.895,2,2v10C14.779,1101.414,13.883,1102.309,12.779,1102.309z"/>
	<path fill="none" stroke="#939292" stroke-width="2" stroke-miterlimit="10" d="M17.779,1102.309L17.779,1102.309
		c-1.105,0-2-0.895-2-2v-10c0-1.105,0.895-2,2-2h0c1.105,0,2,0.895,2,2v10C19.779,1101.414,18.883,1102.309,17.779,1102.309z"/>
</g>
<path fill="none" stroke="#939292" stroke-width="2" stroke-linecap="round" stroke-linejoin="round" stroke-miterlimit="10" d="
	M3.932,1085.309c0,0-1.906-1.832,0-3.5s0-3.5,0-3.5"/>
<path fill="none" stroke="#939292" stroke-width="2" stroke-linecap="round" stroke-linejoin="round" stroke-miterlimit="10" d="
	M16.626,1085.309c0,0-1.906-1.832,0-3.5s0-3.5,0-3.5"/>
<path fill="none" stroke="#939292" stroke-width="2" stroke-linecap="round" stroke-linejoin="round" stroke-miterlimit="10" d="
	M10.473,1085.309c0,0-1.906-1.832,0-3.5s0-3.5,0-3.5"/>
<g>
	<path fill="none" stroke="#939292" stroke-width="2" stroke-miterlimit="10" d="M16.779,1162.309h-12c-1.105,0-2-0.895-2-2v-13
		c0-1.105,0.895-2,2-2h6l2-2h6v17C18.779,1161.414,17.883,1162.309,16.779,1162.309z"/>
	<g>
		<rect x="11.779" y="1138.309" fill="#939292" width="8" height="3"/>
	</g>
	<g>
		<path fill="#939292" d="M7.579,1154.309c0-1.657,3.2-5,3.2-5s3.2,3.343,3.2,5s-1.433,3-3.2,3S7.579,1155.966,7.579,1154.309z"/>
	</g>
</g>
<g>
	<path fill="none" stroke="#939292" stroke-width="2" stroke-linecap="round" stroke-linejoin="round" stroke-miterlimit="10" d="
		M15.779,1219.309h-10c-1.105,0-2-0.895-2-2v-10c0-2.761,2.239-5,5-5h4c2.761,0,5,2.239,5,5v10
		C17.779,1218.414,16.883,1219.309,15.779,1219.309z"/>
	
		<rect x="5.779" y="1219.309" fill="none" stroke="#939292" stroke-width="2" stroke-linecap="round" stroke-linejoin="round" stroke-miterlimit="10" width="10" height="3"/>
	
		<rect x="7.779" y="1198.309" fill="none" stroke="#939292" stroke-width="2" stroke-linecap="round" stroke-linejoin="round" stroke-miterlimit="10" width="6" height="4"/>
	
		<line fill="none" stroke="#939292" stroke-width="2" stroke-linecap="round" stroke-linejoin="round" stroke-miterlimit="10" x1="3.779" y1="1211.309" x2="17.779" y2="1211.309"/>
</g>
<g>
	<polygon fill="#61933F" points="11.779,2553.309 9.779,2553.309 9.779,2545.909 10.779,2544.909 11.779,2545.909 	"/>
</g>
<g>
	<g>
		<path fill="#61933F" d="M11.114,2531.309c1.756,0,3.185,1.429,3.185,3.185c0,0.253-0.047,0.534-0.149,0.883l-0.501,1.723
			l1.658,0.685c1.587,0.656,2.613,2.187,2.613,3.903c0,2.328-1.894,4.222-4.222,4.222c-0.741,0-1.445-0.188-2.093-0.56l-1.052-0.604
			l-1.021,0.654c-0.52,0.333-1.111,0.509-1.709,0.509c-1.756,0-3.185-1.429-3.185-3.185c0-0.799,0.309-1.569,0.87-2.168l1.122-1.198
			l-0.955-1.334c-0.142-0.198-0.214-0.417-0.214-0.649c0-0.531,0.376-0.995,0.895-1.103l1.536-0.32l0.055-1.568
			C8.006,2532.66,9.398,2531.309,11.114,2531.309 M11.114,2529.309c-2.802,0-5.07,2.227-5.167,5.004
			c-1.42,0.296-2.487,1.553-2.487,3.061c0,0.678,0.221,1.302,0.588,1.814c-0.869,0.927-1.411,2.165-1.411,3.536
			c0,2.864,2.321,5.185,5.185,5.185c1.029,0,1.982-0.309,2.788-0.825c0.911,0.522,1.963,0.825,3.088,0.825
			c3.436,0,6.222-2.786,6.222-6.222c0-2.596-1.591-4.818-3.85-5.751c0.134-0.461,0.229-0.938,0.229-1.442
			C16.299,2531.631,13.978,2529.309,11.114,2529.309L11.114,2529.309z"/>
	</g>
</g>
<path fill="#939292" d="M5.138,15.985c0,0-0.346-3.225,0.707-6.056C6.668,7.718,7.82,6.564,7.82,6.564
	C4.792,2.639,0.165,2.309,0.165,2.309s-1,5.397,1.925,10.516C2.918,14.275,4.018,15.284,5.138,15.985"/>
<g>
	<path fill="none" stroke="#939292" stroke-width="2" stroke-linecap="round" stroke-linejoin="round" stroke-miterlimit="10" d="
		M20.779-143.691h-16c-0.552,0-1-0.448-1-1l0-4c0-1.105,0.895-2,2-2h0l0.839-4.196c0.093-0.467,0.504-0.804,0.981-0.804h10.36
		c0.477,0,0.887,0.336,0.981,0.804l0.839,4.196l0,0c1.105,0,2,0.895,2,2v4C21.779-144.138,21.331-143.691,20.779-143.691z"/>
	
		<line fill="none" stroke="#939292" stroke-width="2" stroke-linecap="round" stroke-linejoin="round" stroke-miterlimit="10" x1="5.779" y1="-150.691" x2="19.779" y2="-150.691"/>
	<path fill="#939292" d="M6.779-140.691h-1c-0.552,0-1-0.448-1-1v-3h3v3C7.779-141.138,7.331-140.691,6.779-140.691z"/>
	<path fill="#939292" d="M19.779-140.691h-1c-0.552,0-1-0.448-1-1v-3h3v3C20.779-141.138,20.331-140.691,19.779-140.691z"/>
	<path fill="#939292" d="M18.279-148.691L18.279-148.691c0.828,0,1.5,0.672,1.5,1.5l0,0c0,0.828-0.672,1.5-1.5,1.5h0
		c-0.828,0-1.5-0.672-1.5-1.5l0,0C16.779-148.019,17.45-148.691,18.279-148.691z"/>
	<path fill="#939292" d="M7.279-148.691L7.279-148.691c0.828,0,1.5,0.672,1.5,1.5l0,0c0,0.828-0.672,1.5-1.5,1.5h0
		c-0.828,0-1.5-0.672-1.5-1.5l0,0C5.779-148.019,6.45-148.691,7.279-148.691z"/>
</g>
<g>
	<path fill="none" stroke="#61933F" stroke-width="2" stroke-miterlimit="10" d="M18.779,2426.309h-16c-0.552,0-1-0.448-1-1l0-4
		c0-1.104,0.895-2,2-2h0l0.839-4.196c0.093-0.468,0.504-0.804,0.981-0.804h10.36c0.477,0,0.887,0.336,0.981,0.804l0.839,4.196l0,0
		c1.105,0,2,0.896,2,2v4C19.779,2425.862,19.331,2426.309,18.779,2426.309z"/>
	<line fill="none" stroke="#61933F" stroke-width="2" stroke-miterlimit="10" x1="3.779" y1="2419.309" x2="17.779" y2="2419.309"/>
	<path fill="#61933F" d="M4.779,2429.309h-1c-0.552,0-1-0.448-1-1v-3h3v3C5.779,2428.862,5.331,2429.309,4.779,2429.309z"/>
	<path fill="#61933F" d="M17.779,2429.309h-1c-0.552,0-1-0.448-1-1v-3h3v3C18.779,2428.862,18.331,2429.309,17.779,2429.309z"/>
	<path fill="#61933F" d="M16.279,2421.309L16.279,2421.309c0.828,0,1.5,0.672,1.5,1.5l0,0c0,0.828-0.672,1.5-1.5,1.5h0
		c-0.828,0-1.5-0.672-1.5-1.5l0,0C14.779,2421.981,15.45,2421.309,16.279,2421.309z"/>
	<path fill="#61933F" d="M5.279,2421.309L5.279,2421.309c0.828,0,1.5,0.672,1.5,1.5l0,0c0,0.828-0.672,1.5-1.5,1.5h0
		c-0.828,0-1.5-0.672-1.5-1.5l0,0C3.779,2421.981,4.45,2421.309,5.279,2421.309z"/>
</g>
<path fill="none" stroke="#61933F" stroke-width="2" stroke-linecap="round" stroke-linejoin="round" stroke-miterlimit="10" d="
	M7.927,2491.894c-1.267-0.621-4.148-3.141-4.148-5.682c0-6.492,5.242-8.976,5.53-14.903c4.839,4.29,5.53,10.161,5.53,10.161
	c0.576-1.016,1.383-3.387,1.383-3.387c1.21,2.484,1.901,6.153,1.383,8.129c-0.785,2.993-2.42,5.081-4.148,6.097
	c1.383-4.968-3.456-8.806-3.456-8.806S7.005,2487.152,7.927,2491.894z"/>
</svg>
