<?xml version="1.0" encoding="utf-8"?>
<!-- Generator: Adobe Illustrator 17.0.0, SVG Export Plug-In . SVG Version: 6.00 Build 0)  -->
<!DOCTYPE svg PUBLIC "-//W3C//DTD SVG 1.1//EN" "http://www.w3.org/Graphics/SVG/1.1/DTD/svg11.dtd">
<svg version="1.1" id="Layer_1" xmlns="http://www.w3.org/2000/svg" xmlns:xlink="http://www.w3.org/1999/xlink" x="0px" y="0px"
	 width="19.728px" height="19.728px" viewBox="0 0 19.728 19.728" enable-background="new 0 0 19.728 19.728" xml:space="preserve">
<g>
	<path fill="#656170" d="M3.5,2c0.384,0,0.768,0.146,1.061,0.439l4.95,4.95c0.098,0.098,0.226,0.146,0.354,0.146
		s0.256-0.049,0.354-0.146l4.95-4.95C15.46,2.147,15.844,2,16.228,2s0.768,0.146,1.061,0.439c0.586,0.586,0.586,1.536,0,2.121
		l-4.95,4.95c-0.195,0.195-0.195,0.512,0,0.707l4.95,4.95c0.586,0.586,0.586,1.536,0,2.121l0,0
		c-0.293,0.293-0.677,0.439-1.061,0.439s-0.768-0.146-1.061-0.439l-4.95-4.95c-0.098-0.098-0.226-0.146-0.354-0.146
		s-0.256,0.049-0.354,0.146l-4.95,4.95c-0.293,0.293-0.677,0.439-1.061,0.439s-0.768-0.146-1.061-0.439
		c-0.586-0.586-0.586-1.536,0-2.121l4.95-4.95c0.195-0.195,0.195-0.512,0-0.707l-4.95-4.95c-0.586-0.586-0.586-1.536,0-2.121l0,0
		C2.732,2.146,3.116,2,3.5,2 M3.5,0C2.565,0,1.686,0.364,1.025,1.025C0.364,1.686,0,2.565,0,3.5c0,0.935,0.364,1.814,1.025,2.475
		l3.889,3.889l-3.889,3.889C0.364,14.414,0,15.293,0,16.228c0,0.935,0.364,1.814,1.025,2.475c0.661,0.661,1.54,1.025,2.475,1.025
		s1.814-0.364,2.475-1.025l3.889-3.889l3.889,3.889c0.661,0.661,1.54,1.025,2.475,1.025s1.814-0.364,2.475-1.025
		c0.661-0.661,1.025-1.54,1.025-2.475c0-0.935-0.364-1.814-1.025-2.475l-3.889-3.889l3.889-3.889c1.365-1.365,1.365-3.585,0-4.95
		C18.042,0.364,17.163,0,16.228,0c-0.935,0-1.814,0.364-2.475,1.025L9.864,4.914L5.975,1.025C5.314,0.364,4.435,0,3.5,0L3.5,0z"/>
</g>
</svg>
