<?xml version="1.0" encoding="utf-8"?>
<!-- Generator: Adobe Illustrator 17.0.0, SVG Export Plug-In . SVG Version: 6.00 Build 0)  -->
<!DOCTYPE svg PUBLIC "-//W3C//DTD SVG 1.1//EN" "http://www.w3.org/Graphics/SVG/1.1/DTD/svg11.dtd">
<svg version="1.1" id="Layer_1" xmlns="http://www.w3.org/2000/svg" xmlns:xlink="http://www.w3.org/1999/xlink" x="0px" y="0px"
	 width="29.173px" height="34.072px" viewBox="0 0 29.173 34.072" enable-background="new 0 0 29.173 34.072" xml:space="preserve">
<g opacity="0.5">
	<path fill="#FFFFFF" stroke="#656170" stroke-width="2" stroke-linecap="round" stroke-miterlimit="10" d="M27.222,16.447
		l0.938-8.44c0.13-1.165-0.759-2.191-1.925-2.321L13.177,4.234c-0.42-0.047-0.839,0.061-1.169,0.325L7.155,8.413
		c-0.33,0.264-0.563,0.638-0.61,1.058L4.389,28.86c-0.13,1.165,0.759,2.191,1.924,2.321l16.879,1.878
		c1.165,0.13,2.258-0.676,2.387-1.841l0.235-2.11L27.222,16.447z"/>
	<g>
		<path fill="#FFFFFF" stroke="#656170" stroke-width="2" stroke-linecap="round" stroke-miterlimit="10" d="M22,11.649V3.157
			C22,1.985,21.325,1,20.152,1H7.013C6.591,1,6.186,1.185,5.887,1.483L1.489,5.867C1.191,6.165,1,6.579,1,7.001v19.508
			C1,27.682,1.996,29,3.169,29h16.983C21.325,29,22,27.682,22,26.509v-2.123V11.649z"/>
		<path fill="none" stroke="#656170" stroke-linecap="round" stroke-miterlimit="10" d="M1,8.5h5.884C7.47,8.5,7.5,7.458,7.5,6.872
			V1"/>
	</g>
</g>
</svg>
