<?xml version="1.0" encoding="utf-8"?>
<!-- Generator: Adobe Illustrator 17.0.0, SVG Export Plug-In . SVG Version: 6.00 Build 0)  -->
<!DOCTYPE svg PUBLIC "-//W3C//DTD SVG 1.1//EN" "http://www.w3.org/Graphics/SVG/1.1/DTD/svg11.dtd">
<svg version="1.1" id="Layer_1" xmlns="http://www.w3.org/2000/svg" xmlns:xlink="http://www.w3.org/1999/xlink" x="0px" y="0px"
	 width="216.577px" height="243.918px" viewBox="0 0 216.577 243.918" enable-background="new 0 0 216.577 243.918"
	 xml:space="preserve">
<g opacity="0.1">
	<g>
	</g>
	<g>
	</g>
	<g>
		<path fill="#FFFFFF" d="M190.474,136.201l18.733-52.728c2.587-7.28-1.57-15.202-8.85-17.789l-81.583-28.989
			c-2.622-0.932-5.475-0.873-7.987,0.322l-36.94,17.417c-2.513,1.195-4.574,3.244-5.506,5.867L25.305,181.434
			c-2.586,7.28,1.567,15.201,8.847,17.788l105.45,37.469c7.28,2.587,15.502-0.937,18.089-8.217l4.683-13.182L190.474,136.201z"/>
		<path fill="#656170" d="M139.719,243.486c-0.002,0-0.002,0-0.002,0c-0.758,0-1.544-0.36-2.292-0.628L31.961,205.409
			c-5.151-1.828-9.349-5.502-11.804-10.359c-2.531-5-2.908-10.619-1.057-15.826L62.134,58.096c1.484-4.183,4.64-7.595,8.885-9.615
			l36.96-17.424c3.966-1.885,8.701-2.098,13.006-0.568l81.579,28.988c5.151,1.828,9.342,5.509,11.799,10.366
			c2.53,5.003,2.905,10.627,1.054,15.834L163.931,230.64C160.458,240.417,150.067,245.486,139.719,243.486z M116.702,41.092
			c-0.993-0.233-2.041,0.606-2.88,1.007l-37.062,17.86c-1.029,0.489-1.855,1.48-2.157,2.331l-43.062,121.24
			c-0.632,1.778-0.505,3.776,0.381,5.528c0.922,1.823,2.494,3.235,4.442,3.927l105.449,37.483c4.044,1.435,8.358-0.506,9.67-4.207
			l51.516-144.999c0.632-1.778,0.492-3.72-0.396-5.472c-0.922-1.823-2.297-4.081-4.245-4.773l-81.379-29.861
			C116.885,41.135,116.793,41.113,116.702,41.092z"/>
	</g>
	<g>
		<g>
			<path fill="#FFFFFF" d="M164.342,97.584l12.791-54.475c1.766-7.522-1.174-15.086-8.696-16.852L84.147,6.465
				c-2.709-0.636-5.609,0.039-7.974,1.505L41.458,29.54c-2.365,1.466-4.112,3.907-4.749,6.616L7.325,161.302
				c-1.766,7.521,2.433,17.368,9.954,19.134l108.949,25.582c7.521,1.766,13.964-5.582,15.73-13.103l3.198-13.619L164.342,97.584z"/>
			<path fill="#656170" d="M124.639,212.788L15.689,187.205c-11.635-2.732-17.616-16.921-15.134-27.493L29.941,34.566
				c1.014-4.316,3.918-8.175,7.856-10.619L72.631,2.552c3.895-2.414,8.618-3.117,12.93-2.104l84.29,19.792
				c10.586,2.486,16.055,12.546,13.299,24.283l-35.175,149.804C145.39,205.335,136.073,215.473,124.639,212.788z M82.558,13.235
				c-0.918-0.216-2.011-0.072-2.955,0.513L44.7,35.191c-0.949,0.587-1.759,1.466-1.973,2.378L13.342,162.715
				c-1.05,4.47,1.847,10.881,5.35,11.704l108.949,25.582c3.112,0.731,6.487-4.162,7.547-8.676l35.175-149.804
				c0.291-1.24,1.661-7.279-3.515-8.495L82.558,13.235z"/>
		</g>
		<g>
			<path fill="#656170" d="M71.311,57.417l-37.746-8.863c-1.771-0.416-2.917-1.989-2.501-3.762s2.143-2.671,3.914-2.255
				l37.746,8.863c-0.075-0.018,1.161-1.197,2.539-7.064l8.845-37.67c0.416-1.773,1.99-2.917,3.762-2.501
				c1.771,0.416,2.672,2.141,2.255,3.914l-8.845,37.67C80.403,49.482,78.47,59.098,71.311,57.417z"/>
		</g>
	</g>
</g>
</svg>
