<?xml version="1.0" encoding="utf-8"?>
<!-- Generator: Adobe Illustrator 17.0.0, SVG Export Plug-In . SVG Version: 6.00 Build 0)  -->
<!DOCTYPE svg PUBLIC "-//W3C//DTD SVG 1.1//EN" "http://www.w3.org/Graphics/SVG/1.1/DTD/svg11.dtd">
<svg version="1.1" id="Layer_1" xmlns="http://www.w3.org/2000/svg" xmlns:xlink="http://www.w3.org/1999/xlink" x="0px" y="0px"
	 width="16.446px" height="14px" viewBox="0 0 16.446 14" enable-background="new 0 0 16.446 14" xml:space="preserve">
<g>
	<g>
		<g>
			<g>
				<path fill="#FFFFFF" d="M107.714,20.22l-4.222,4.695C102.468,26.02,103.217,28,104.665,28h8.852c1.448,0,2.094-1.99,1.07-3.095
					l-4.546-4.757"/>
			</g>
			<g>
				<path fill="#FFFFFF" d="M109.74,23v-7.288c0-0.064,0.372-0.712,0.362-0.712h0.482c0.258,0,0.466-0.193,0.466-0.5
					s-0.209-0.5-0.466-0.5h-3.509c-0.258,0-0.466,0.193-0.466,0.5s0.209,0.5,0.466,0.5h0.665c0,0,0,0.648,0,0.712V23"/>
			</g>
		</g>
	</g>
</g>
<path fill="#FFFFFF" d="M119.464,23.412c0-2.493-2.021-4.514-4.514-4.514c-1.265,0-2.408,0.523-3.227,1.362l0.645-0.024l4.546,4.744
	c0.651,0.702,0.625,1.749,0.15,2.42C118.492,26.642,119.465,25.141,119.464,23.412z"/>
</svg>
