<?xml version="1.0" encoding="utf-8"?>
<!-- Generator: Adobe Illustrator 17.0.0, SVG Export Plug-In . SVG Version: 6.00 Build 0)  -->
<!DOCTYPE svg PUBLIC "-//W3C//DTD SVG 1.1//EN" "http://www.w3.org/Graphics/SVG/1.1/DTD/svg11.dtd">
<svg version="1.1" id="Layer_1" xmlns="http://www.w3.org/2000/svg" xmlns:xlink="http://www.w3.org/1999/xlink" x="0px" y="0px"
	 width="57.5px" height="46px" viewBox="0 0 57.5 46" enable-background="new 0 0 57.5 46" xml:space="preserve">
<g>
	<path fill="none" stroke="#CF405D" stroke-width="2" stroke-miterlimit="10" d="M34,7V6c0-2.002-1.3-5-4.5-5h-23C2.6,1,1,3.998,1,6
		v34.375C1,42.377,4.123,45,6.125,45H31"/>
	<path fill="#CF405D" d="M35.5,46"/>
	<g>
		<path fill="#CF405D" d="M53.435,13H13.564C11.32,13,9.5,15.089,9.5,17.667V39c0,2.577,0.714,7,7,7h33c6.857,0,8-4.423,8-7V17.667
			C57.5,15.089,55.68,13,53.435,13z M34.5,41.691V43h-2v-1.259c-0.721-0.32-1.215-0.988-1.204-1.768C31.31,38.883,32.297,38,33.5,38
			s2.165,0.883,2.15,1.973C35.64,40.715,35.173,41.354,34.5,41.691z"/>
	</g>
	<path fill="#B13750" d="M21.2,35h24.6c4.253,0,7.2-3.747,7.2-8V13H13v14C13,31.253,16.947,35,21.2,35z"/>
	<g>
		<path fill="#CF405D" d="M28.541,10.545C28.701,10.064,29.15,10,29.657,10h6.17c0.507,0,0.956,0.064,1.116,0.545L38.294,13h3.001
			c-0.016,0-0.026-0.074-0.044-0.13l-1.597-3.282C39.104,7.941,37.563,7,35.827,7h-6.17c-1.736,0-3.278,0.959-3.827,2.606
			l-1.597,3.34C24.215,13.001,24.205,13,24.189,13h3.001L28.541,10.545z"/>
		<linearGradient id="SVGID_1_" gradientUnits="userSpaceOnUse" x1="32.742" y1="11.2064" x2="32.742" y2="13.5093">
			<stop  offset="0.0095" style="stop-color:#5F1E2B;stop-opacity:0"/>
			<stop  offset="1" style="stop-color:#5F1E2B"/>
		</linearGradient>
		<path opacity="0.4" fill="url(#SVGID_1_)" d="M28.541,10.545C28.701,10.064,29.15,10,29.657,10h6.17
			c0.507,0,0.956,0.064,1.116,0.545L38.294,13h3.001c-0.016,0-0.026-0.074-0.044-0.13l-1.597-3.282C39.104,7.941,37.563,7,35.827,7
			h-6.17c-1.736,0-3.278,0.959-3.827,2.606l-1.597,3.34C24.215,13.001,24.205,13,24.189,13h3.001L28.541,10.545z"/>
	</g>
	<path fill="#CF405D" d="M36.5,40c-1.203,0-2.44,0.883-2.454,1.973C34.035,42.753,35,43.421,35,43.741V43h2v0.691
		c1-0.337,1.39-0.976,1.4-1.718C38.415,40.883,37.703,40,36.5,40z"/>
	<g>
		<g>
			<g>
				<g>
					<g>
						<path fill="none" d="M13,4v8.005c1,0,0.543-0.005,0.564-0.005H52V4H13z"/>
						<path fill="none" d="M33.5,38c-1.203,0-2.439,0.883-2.455,1.973C31.035,40.753,32,41.421,32,41.741V43h2v-1.309
							c1-0.336,1.39-0.976,1.4-1.718C35.416,38.883,34.703,38,33.5,38z"/>
					</g>
				</g>
			</g>
		</g>
	</g>
</g>
</svg>
