<?xml version="1.0" encoding="utf-8"?>
<!-- Generator: Adobe Illustrator 17.0.0, SVG Export Plug-In . SVG Version: 6.00 Build 0)  -->
<!DOCTYPE svg PUBLIC "-//W3C//DTD SVG 1.1//EN" "http://www.w3.org/Graphics/SVG/1.1/DTD/svg11.dtd">
<svg version="1.1" id="Layer_1" xmlns="http://www.w3.org/2000/svg" xmlns:xlink="http://www.w3.org/1999/xlink" x="0px" y="0px"
	 width="21px" height="26px" viewBox="0 0 21 26" enable-background="new 0 0 21 26" xml:space="preserve">
<g>
	<g>
		<rect x="10" y="-1340" fill="#939292" width="3" height="7"/>
	</g>
	<g>
		<g>
			<path fill="none" stroke="#939292" stroke-width="2" stroke-miterlimit="10" d="M11.816-1346.4
				c0.729-0.781,1.184-1.822,1.184-2.975c0-2.299-1.779-4.163-4.033-4.341c0.038-0.262,0.065-0.528,0.065-0.8
				c0-3.046-2.469-5.516-5.516-5.516c-3.046,0-5.516,2.469-5.516,5.516c0,0.452,0.06,0.889,0.163,1.309
				c-0.715,0.857-1.163,1.946-1.163,3.15c0,2.73,2.213,4.943,4.943,4.943c1.327,0,2.525-0.529,3.413-1.38
				c0.673,0.763,1.6,1.283,2.657,1.432c-0.052,0.199-0.089,0.404-0.089,0.619c0,1.349,1.094,2.443,2.443,2.443
				c1.349,0,2.443-1.094,2.443-2.443C12.81-1345.247,12.416-1345.955,11.816-1346.4z"/>
		</g>
	</g>
</g>
<path fill="none" stroke="#939292" stroke-width="2" stroke-linecap="round" stroke-linejoin="round" stroke-miterlimit="10" d="
	M9.148-1277C7.88-1277.621,5-1280.556,5-1283.097c0-6.492,5.242-8.976,5.53-14.903c4.839,4.29,5.53,10.161,5.53,10.161
	c0.576-1.016,1.383-3.387,1.383-3.387c1.21,2.484,1.901,6.153,1.383,8.129c-0.785,2.993-2.42,5.081-4.148,6.097
	c1.383-4.968-3.456-8.806-3.456-8.806S8.226-1281.742,9.148-1277z"/>
<path fill="none" stroke="#939292" stroke-width="2" stroke-miterlimit="10" d="M7.782-1054c0,0,7.476-0.732,10.686-7.398
	c3.562-7.398,1.644-14.796,1.644-14.796s-8.089,1.151-11.508,9.042C5.042-1058.932,7.782-1054,7.782-1054z"/>
<polygon fill="none" stroke="#939292" stroke-width="2" stroke-linecap="round" stroke-linejoin="round" stroke-miterlimit="10" points="
	8.4,-1012 16.067,-1012 13.383,-1004.908 20.667,-1006.633 9.167,-989 11.467,-1000.5 5.333,-998.2 "/>
<g>
	<path fill="none" stroke="#939292" stroke-width="2" stroke-miterlimit="10" d="M3,25L3,25c-1.105,0-2-0.895-2-2V13
		c0-1.105,0.895-2,2-2h0c1.105,0,2,0.895,2,2v10C5,24.105,4.105,25,3,25z"/>
	<path fill="none" stroke="#939292" stroke-width="2" stroke-miterlimit="10" d="M8,25L8,25c-1.105,0-2-0.895-2-2V13
		c0-1.105,0.895-2,2-2h0c1.105,0,2,0.895,2,2v10C10,24.105,9.105,25,8,25z"/>
	<path fill="none" stroke="#939292" stroke-width="2" stroke-miterlimit="10" d="M13,25L13,25c-1.105,0-2-0.895-2-2V13
		c0-1.105,0.895-2,2-2h0c1.105,0,2,0.895,2,2v10C15,24.105,14.105,25,13,25z"/>
	<path fill="none" stroke="#939292" stroke-width="2" stroke-miterlimit="10" d="M18,25L18,25c-1.105,0-2-0.895-2-2V13
		c0-1.105,0.895-2,2-2h0c1.105,0,2,0.895,2,2v10C20,24.105,19.105,25,18,25z"/>
</g>
<path fill="none" stroke="#939292" stroke-width="2" stroke-linecap="round" stroke-linejoin="round" stroke-miterlimit="10" d="
	M4.153,8c0,0-1.906-1.832,0-3.5s0-3.5,0-3.5"/>
<path fill="none" stroke="#939292" stroke-width="2" stroke-linecap="round" stroke-linejoin="round" stroke-miterlimit="10" d="
	M16.847,8c0,0-1.906-1.832,0-3.5s0-3.5,0-3.5"/>
<path fill="none" stroke="#939292" stroke-width="2" stroke-linecap="round" stroke-linejoin="round" stroke-miterlimit="10" d="
	M10.694,8c0,0-1.906-1.832,0-3.5s0-3.5,0-3.5"/>
<g>
	<path fill="none" stroke="#939292" stroke-width="2" stroke-miterlimit="10" d="M17,85H5c-1.105,0-2-0.895-2-2V70
		c0-1.105,0.895-2,2-2h6l2-2h6v17C19,84.105,18.105,85,17,85z"/>
	<g>
		<rect x="12" y="61" fill="#939292" width="8" height="3"/>
	</g>
	<g>
		<path fill="#939292" d="M7.8,77c0-1.657,3.2-5,3.2-5s3.2,3.343,3.2,5s-1.433,3-3.2,3S7.8,78.657,7.8,77z"/>
	</g>
</g>
<g>
	<path fill="none" stroke="#939292" stroke-width="2" stroke-linecap="round" stroke-linejoin="round" stroke-miterlimit="10" d="
		M16,142H6c-1.105,0-2-0.895-2-2v-10c0-2.761,2.239-5,5-5h4c2.761,0,5,2.239,5,5v10C18,141.105,17.105,142,16,142z"/>
	
		<rect x="6" y="142" fill="none" stroke="#939292" stroke-width="2" stroke-linecap="round" stroke-linejoin="round" stroke-miterlimit="10" width="10" height="3"/>
	
		<rect x="8" y="121" fill="none" stroke="#939292" stroke-width="2" stroke-linecap="round" stroke-linejoin="round" stroke-miterlimit="10" width="6" height="4"/>
	
		<line fill="none" stroke="#939292" stroke-width="2" stroke-linecap="round" stroke-linejoin="round" stroke-miterlimit="10" x1="4" y1="134" x2="18" y2="134"/>
</g>
<g>
	<polygon fill="#61933F" points="12,1476 10,1476 10,1468.6 11,1467.6 12,1468.6 	"/>
</g>
<g>
	<g>
		<path fill="#61933F" d="M11.335,1454c1.756,0,3.185,1.429,3.185,3.185c0,0.253-0.047,0.534-0.149,0.883l-0.501,1.723l1.658,0.685
			c1.587,0.656,2.613,2.187,2.613,3.903c0,2.328-1.894,4.222-4.222,4.222c-0.741,0-1.445-0.188-2.093-0.56l-1.052-0.604
			l-1.021,0.654c-0.52,0.333-1.111,0.509-1.709,0.509c-1.756,0-3.185-1.429-3.185-3.185c0-0.799,0.309-1.569,0.87-2.168l1.122-1.198
			l-0.955-1.334c-0.142-0.198-0.214-0.417-0.214-0.649c0-0.531,0.376-0.995,0.895-1.103l1.536-0.32l0.055-1.568
			C8.228,1455.35,9.619,1454,11.335,1454 M11.335,1452c-2.802,0-5.07,2.227-5.167,5.004c-1.42,0.296-2.487,1.553-2.487,3.061
			c0,0.678,0.221,1.302,0.588,1.814c-0.869,0.927-1.411,2.165-1.411,3.536c0,2.864,2.321,5.185,5.185,5.185
			c1.029,0,1.982-0.309,2.788-0.825c0.911,0.522,1.963,0.825,3.088,0.825c3.436,0,6.222-2.786,6.222-6.222
			c0-2.596-1.591-4.818-3.85-5.751c0.134-0.461,0.229-0.938,0.229-1.442C16.52,1454.321,14.199,1452,11.335,1452L11.335,1452z"/>
	</g>
</g>
<path fill="#939292" d="M5.359-1061.324c0,0-0.346-3.225,0.707-6.056c0.823-2.21,1.975-3.365,1.975-3.365
	c-3.028-3.925-7.655-4.255-7.655-4.255s-1,5.397,1.925,10.516C3.139-1063.034,4.239-1062.026,5.359-1061.324"/>
<g>
	<path fill="none" stroke="#939292" stroke-width="2" stroke-linecap="round" stroke-linejoin="round" stroke-miterlimit="10" d="
		M21-1221H5c-0.552,0-1-0.448-1-1l0-4c0-1.105,0.895-2,2-2h0l0.839-4.196c0.093-0.467,0.504-0.804,0.981-0.804h10.36
		c0.477,0,0.887,0.336,0.981,0.804L20-1228l0,0c1.105,0,2,0.895,2,2v4C22-1221.448,21.552-1221,21-1221z"/>
	
		<line fill="none" stroke="#939292" stroke-width="2" stroke-linecap="round" stroke-linejoin="round" stroke-miterlimit="10" x1="6" y1="-1228" x2="20" y2="-1228"/>
	<path fill="#939292" d="M7-1218H6c-0.552,0-1-0.448-1-1v-3h3v3C8-1218.448,7.552-1218,7-1218z"/>
	<path fill="#939292" d="M20-1218h-1c-0.552,0-1-0.448-1-1v-3h3v3C21-1218.448,20.552-1218,20-1218z"/>
	<path fill="#939292" d="M18.5-1226L18.5-1226c0.828,0,1.5,0.672,1.5,1.5l0,0c0,0.828-0.672,1.5-1.5,1.5h0
		c-0.828,0-1.5-0.672-1.5-1.5l0,0C17-1225.328,17.672-1226,18.5-1226z"/>
	<path fill="#939292" d="M7.5-1226L7.5-1226c0.828,0,1.5,0.672,1.5,1.5l0,0c0,0.828-0.672,1.5-1.5,1.5h0c-0.828,0-1.5-0.672-1.5-1.5
		l0,0C6-1225.328,6.672-1226,7.5-1226z"/>
</g>
<g>
	<path fill="none" stroke="#61933F" stroke-width="2" stroke-miterlimit="10" d="M19,1349H3c-0.552,0-1-0.448-1-1l0-4
		c0-1.105,0.895-2,2-2h0l0.839-4.196c0.093-0.467,0.504-0.804,0.981-0.804h10.36c0.477,0,0.887,0.336,0.981,0.804L18,1342l0,0
		c1.105,0,2,0.895,2,2v4C20,1348.552,19.552,1349,19,1349z"/>
	<line fill="none" stroke="#61933F" stroke-width="2" stroke-miterlimit="10" x1="4" y1="1342" x2="18" y2="1342"/>
	<path fill="#61933F" d="M5,1352H4c-0.552,0-1-0.448-1-1v-3h3v3C6,1351.552,5.552,1352,5,1352z"/>
	<path fill="#61933F" d="M18,1352h-1c-0.552,0-1-0.448-1-1v-3h3v3C19,1351.552,18.552,1352,18,1352z"/>
	<path fill="#61933F" d="M16.5,1344L16.5,1344c0.828,0,1.5,0.672,1.5,1.5l0,0c0,0.828-0.672,1.5-1.5,1.5h0
		c-0.828,0-1.5-0.672-1.5-1.5l0,0C15,1344.672,15.672,1344,16.5,1344z"/>
	<path fill="#61933F" d="M5.5,1344L5.5,1344c0.828,0,1.5,0.672,1.5,1.5l0,0c0,0.828-0.672,1.5-1.5,1.5h0c-0.828,0-1.5-0.672-1.5-1.5
		l0,0C4,1344.672,4.672,1344,5.5,1344z"/>
</g>
<path fill="none" stroke="#61933F" stroke-width="2" stroke-linecap="round" stroke-linejoin="round" stroke-miterlimit="10" d="
	M8.148,1414.585C6.88,1413.964,4,1411.444,4,1408.903c0-6.492,5.242-8.976,5.53-14.903c4.839,4.29,5.53,10.161,5.53,10.161
	c0.576-1.016,1.383-3.387,1.383-3.387c1.21,2.484,1.901,6.153,1.383,8.129c-0.785,2.993-2.42,5.081-4.148,6.097
	c1.383-4.968-3.456-8.806-3.456-8.806S7.226,1409.843,8.148,1414.585z"/>
</svg>
