<?xml version="1.0" encoding="utf-8"?>
<!-- Generator: Adobe Illustrator 17.0.0, SVG Export Plug-In . SVG Version: 6.00 Build 0)  -->
<!DOCTYPE svg PUBLIC "-//W3C//DTD SVG 1.1//EN" "http://www.w3.org/Graphics/SVG/1.1/DTD/svg11.dtd">
<svg version="1.1" id="Layer_1" xmlns="http://www.w3.org/2000/svg" xmlns:xlink="http://www.w3.org/1999/xlink" x="0px" y="0px"
	 width="18px" height="28.032px" viewBox="0 0 18 28.032" enable-background="new 0 0 18 28.032" xml:space="preserve">
<g>
	<g>
		<rect x="14" y="21.032" fill="#939292" width="3" height="7"/>
	</g>
	<g>
		<g>
			<path fill="none" stroke="#939292" stroke-width="2" stroke-miterlimit="10" d="M15.816,14.632C16.545,13.85,17,12.809,17,11.657
				c0-2.299-1.779-4.163-4.033-4.341c0.038-0.262,0.065-0.528,0.065-0.8C13.032,3.469,10.562,1,7.516,1C4.47,1,2,3.469,2,6.516
				c0,0.452,0.06,0.889,0.163,1.309C1.448,8.682,1,9.771,1,10.975c0,2.73,2.213,4.943,4.943,4.943c1.327,0,2.525-0.529,3.413-1.38
				c0.673,0.763,1.6,1.283,2.657,1.432c-0.052,0.199-0.089,0.404-0.089,0.619c0,1.349,1.094,2.443,2.443,2.443
				c1.349,0,2.443-1.094,2.443-2.443C16.81,15.784,16.416,15.077,15.816,14.632z"/>
		</g>
	</g>
</g>
<path fill="none" stroke="#939292" stroke-width="2" stroke-linecap="round" stroke-linejoin="round" stroke-miterlimit="10" d="
	M13.148,84.032C11.88,83.411,9,80.475,9,77.935c0-6.492,5.242-8.976,5.53-14.903c4.839,4.29,5.53,10.161,5.53,10.161
	c0.576-1.016,1.383-3.387,1.383-3.387c1.21,2.484,1.901,6.153,1.383,8.129c-0.785,2.993-2.42,5.081-4.148,6.097
	c1.383-4.968-3.456-8.806-3.456-8.806S12.226,79.29,13.148,84.032z"/>
<path fill="none" stroke="#939292" stroke-width="2" stroke-miterlimit="10" d="M11.782,307.032c0,0,7.476-0.732,10.686-7.398
	c3.562-7.398,1.644-14.796,1.644-14.796s-8.089,1.152-11.508,9.042C9.042,302.1,11.782,307.032,11.782,307.032z"/>
<polygon fill="none" stroke="#939292" stroke-width="2" stroke-linecap="round" stroke-linejoin="round" stroke-miterlimit="10" points="
	12.4,349.032 20.067,349.032 17.383,356.123 24.667,354.398 13.167,372.032 15.467,360.532 9.333,362.832 "/>
<g>
	<path fill="none" stroke="#939292" stroke-width="2" stroke-miterlimit="10" d="M7,1386.032L7,1386.032c-1.105,0-2-0.895-2-2v-10
		c0-1.104,0.895-2,2-2h0c1.105,0,2,0.896,2,2v10C9,1385.136,8.105,1386.032,7,1386.032z"/>
	<path fill="none" stroke="#939292" stroke-width="2" stroke-miterlimit="10" d="M12,1386.032L12,1386.032c-1.105,0-2-0.895-2-2v-10
		c0-1.104,0.895-2,2-2h0c1.105,0,2,0.896,2,2v10C14,1385.136,13.105,1386.032,12,1386.032z"/>
	<path fill="none" stroke="#939292" stroke-width="2" stroke-miterlimit="10" d="M17,1386.032L17,1386.032c-1.105,0-2-0.895-2-2v-10
		c0-1.104,0.895-2,2-2h0c1.105,0,2,0.896,2,2v10C19,1385.136,18.105,1386.032,17,1386.032z"/>
	<path fill="none" stroke="#939292" stroke-width="2" stroke-miterlimit="10" d="M22,1386.032L22,1386.032c-1.105,0-2-0.895-2-2v-10
		c0-1.104,0.895-2,2-2h0c1.105,0,2,0.896,2,2v10C24,1385.136,23.105,1386.032,22,1386.032z"/>
</g>
<path fill="none" stroke="#939292" stroke-width="2" stroke-linecap="round" stroke-linejoin="round" stroke-miterlimit="10" d="
	M8.153,1369.032c0,0-1.906-1.832,0-3.5s0-3.5,0-3.5"/>
<path fill="none" stroke="#939292" stroke-width="2" stroke-linecap="round" stroke-linejoin="round" stroke-miterlimit="10" d="
	M20.847,1369.032c0,0-1.906-1.832,0-3.5s0-3.5,0-3.5"/>
<path fill="none" stroke="#939292" stroke-width="2" stroke-linecap="round" stroke-linejoin="round" stroke-miterlimit="10" d="
	M14.694,1369.032c0,0-1.906-1.832,0-3.5s0-3.5,0-3.5"/>
<g>
	<path fill="none" stroke="#939292" stroke-width="2" stroke-miterlimit="10" d="M21,1446.032H9c-1.105,0-2-0.895-2-2v-13
		c0-1.104,0.895-2,2-2h6l2-2h6v17C23,1445.136,22.105,1446.032,21,1446.032z"/>
	<g>
		<rect x="16" y="1422.032" fill="#939292" width="8" height="3"/>
	</g>
	<g>
		<path fill="#939292" d="M11.8,1438.032c0-1.657,3.2-5,3.2-5s3.2,3.343,3.2,5s-1.433,3-3.2,3S11.8,1439.688,11.8,1438.032z"/>
	</g>
</g>
<g>
	<path fill="none" stroke="#939292" stroke-width="2" stroke-linecap="round" stroke-linejoin="round" stroke-miterlimit="10" d="
		M20,1503.032H10c-1.105,0-2-0.895-2-2v-10c0-2.761,2.239-5,5-5h4c2.761,0,5,2.239,5,5v10C22,1502.136,21.105,1503.032,20,1503.032z
		"/>
	
		<rect x="10" y="1503.032" fill="none" stroke="#939292" stroke-width="2" stroke-linecap="round" stroke-linejoin="round" stroke-miterlimit="10" width="10" height="3"/>
	
		<rect x="12" y="1482.032" fill="none" stroke="#939292" stroke-width="2" stroke-linecap="round" stroke-linejoin="round" stroke-miterlimit="10" width="6" height="4"/>
	
		<line fill="none" stroke="#939292" stroke-width="2" stroke-linecap="round" stroke-linejoin="round" stroke-miterlimit="10" x1="8" y1="1495.032" x2="22" y2="1495.032"/>
</g>
<g>
	<polygon fill="#61933F" points="16,2837.032 14,2837.032 14,2829.632 15,2828.632 16,2829.632 	"/>
</g>
<g>
	<g>
		<path fill="#61933F" d="M15.335,2815.032c1.756,0,3.185,1.429,3.185,3.185c0,0.253-0.047,0.534-0.149,0.883l-0.501,1.723
			l1.658,0.685c1.587,0.656,2.613,2.187,2.613,3.903c0,2.328-1.894,4.222-4.222,4.222c-0.741,0-1.445-0.188-2.093-0.56l-1.052-0.604
			l-1.021,0.654c-0.52,0.333-1.111,0.509-1.709,0.509c-1.756,0-3.185-1.429-3.185-3.185c0-0.799,0.309-1.569,0.87-2.168l1.122-1.198
			l-0.955-1.334c-0.142-0.198-0.214-0.417-0.214-0.649c0-0.531,0.376-0.995,0.895-1.103l1.536-0.32l0.055-1.568
			C12.228,2816.382,13.619,2815.032,15.335,2815.032 M15.335,2813.032c-2.802,0-5.07,2.227-5.167,5.004
			c-1.42,0.296-2.487,1.553-2.487,3.061c0,0.678,0.221,1.302,0.588,1.814c-0.869,0.927-1.411,2.165-1.411,3.536
			c0,2.864,2.321,5.185,5.185,5.185c1.029,0,1.982-0.309,2.788-0.825c0.911,0.522,1.963,0.825,3.088,0.825
			c3.436,0,6.222-2.786,6.222-6.222c0-2.596-1.591-4.818-3.85-5.751c0.134-0.461,0.229-0.938,0.229-1.442
			C20.52,2815.353,18.199,2813.032,15.335,2813.032L15.335,2813.032z"/>
	</g>
</g>
<path fill="#939292" d="M9.359,299.707c0,0-0.346-3.225,0.707-6.056c0.823-2.21,1.975-3.365,1.975-3.365
	c-3.028-3.925-7.655-4.255-7.655-4.255s-1,5.397,1.925,10.516C7.139,297.997,8.239,299.006,9.359,299.707"/>
<g>
	<path fill="none" stroke="#939292" stroke-width="2" stroke-linecap="round" stroke-linejoin="round" stroke-miterlimit="10" d="
		M25,140.032H9c-0.552,0-1-0.448-1-1l0-4c0-1.105,0.895-2,2-2h0l0.839-4.196c0.093-0.467,0.504-0.804,0.981-0.804h10.36
		c0.477,0,0.887,0.336,0.981,0.804L24,133.032l0,0c1.105,0,2,0.895,2,2v4C26,139.584,25.552,140.032,25,140.032z"/>
	
		<line fill="none" stroke="#939292" stroke-width="2" stroke-linecap="round" stroke-linejoin="round" stroke-miterlimit="10" x1="10" y1="133.032" x2="24" y2="133.032"/>
	<path fill="#939292" d="M11,143.032h-1c-0.552,0-1-0.448-1-1v-3h3v3C12,142.584,11.552,143.032,11,143.032z"/>
	<path fill="#939292" d="M24,143.032h-1c-0.552,0-1-0.448-1-1v-3h3v3C25,142.584,24.552,143.032,24,143.032z"/>
	<path fill="#939292" d="M22.5,135.032L22.5,135.032c0.828,0,1.5,0.672,1.5,1.5l0,0c0,0.828-0.672,1.5-1.5,1.5h0
		c-0.828,0-1.5-0.672-1.5-1.5l0,0C21,135.703,21.672,135.032,22.5,135.032z"/>
	<path fill="#939292" d="M11.5,135.032L11.5,135.032c0.828,0,1.5,0.672,1.5,1.5l0,0c0,0.828-0.672,1.5-1.5,1.5h0
		c-0.828,0-1.5-0.672-1.5-1.5l0,0C10,135.703,10.672,135.032,11.5,135.032z"/>
</g>
<g>
	<path fill="none" stroke="#61933F" stroke-width="2" stroke-miterlimit="10" d="M23,2710.032H7c-0.552,0-1-0.448-1-1l0-4
		c0-1.105,0.895-2,2-2h0l0.839-4.196c0.093-0.467,0.504-0.804,0.981-0.804h10.36c0.477,0,0.887,0.336,0.981,0.804l0.839,4.196l0,0
		c1.105,0,2,0.895,2,2v4C24,2709.584,23.552,2710.032,23,2710.032z"/>
	<line fill="none" stroke="#61933F" stroke-width="2" stroke-miterlimit="10" x1="8" y1="2703.032" x2="22" y2="2703.032"/>
	<path fill="#61933F" d="M9,2713.032H8c-0.552,0-1-0.448-1-1v-3h3v3C10,2712.584,9.552,2713.032,9,2713.032z"/>
	<path fill="#61933F" d="M22,2713.032h-1c-0.552,0-1-0.448-1-1v-3h3v3C23,2712.584,22.552,2713.032,22,2713.032z"/>
	<path fill="#61933F" d="M20.5,2705.032L20.5,2705.032c0.828,0,1.5,0.671,1.5,1.5l0,0c0,0.828-0.672,1.5-1.5,1.5h0
		c-0.828,0-1.5-0.672-1.5-1.5l0,0C19,2705.703,19.672,2705.032,20.5,2705.032z"/>
	<path fill="#61933F" d="M9.5,2705.032L9.5,2705.032c0.828,0,1.5,0.671,1.5,1.5l0,0c0,0.828-0.672,1.5-1.5,1.5h0
		c-0.828,0-1.5-0.672-1.5-1.5l0,0C8,2705.703,8.672,2705.032,9.5,2705.032z"/>
</g>
<path fill="none" stroke="#61933F" stroke-width="2" stroke-linecap="round" stroke-linejoin="round" stroke-miterlimit="10" d="
	M12.148,2775.617c-1.267-0.621-4.148-3.142-4.148-5.682c0-6.492,5.242-8.976,5.53-14.903c4.839,4.29,5.53,10.161,5.53,10.161
	c0.576-1.016,1.383-3.387,1.383-3.387c1.21,2.484,1.901,6.153,1.383,8.129c-0.785,2.993-2.42,5.081-4.148,6.097
	c1.383-4.968-3.456-8.807-3.456-8.807S11.226,2770.875,12.148,2775.617z"/>
</svg>
