<?xml version="1.0" encoding="utf-8"?>
<!-- Generator: Adobe Illustrator 17.0.0, SVG Export Plug-In . SVG Version: 6.00 Build 0)  -->
<!DOCTYPE svg PUBLIC "-//W3C//DTD SVG 1.1//EN" "http://www.w3.org/Graphics/SVG/1.1/DTD/svg11.dtd">
<svg version="1.1" id="Layer_1" xmlns="http://www.w3.org/2000/svg" xmlns:xlink="http://www.w3.org/1999/xlink" x="0px" y="0px"
	 width="41.499px" height="30.129px" viewBox="0 0 41.499 30.129" enable-background="new 0 0 41.499 30.129" xml:space="preserve">
<g opacity="0.5">
	<g>
		<g>
			<path fill="#FFFFFF" d="M23.621,17.945c0-4.256-5.119-7.706-11.435-7.706C5.87,10.238,0.75,13.689,0.75,17.945
				c0,3.542,3.547,6.526,8.376,7.427l2.234,3.551c0.179,0.283,0.49,0.455,0.825,0.455c0.335,0,0.647-0.172,0.825-0.455l2.234-3.551
				C20.075,24.471,23.621,21.487,23.621,17.945z"/>
			<path fill="none" stroke="#2C6CB5" stroke-width="1.5" stroke-miterlimit="10" d="M23.621,17.945
				c0-4.256-5.119-7.706-11.435-7.706C5.87,10.238,0.75,13.689,0.75,17.945c0,3.542,3.547,6.526,8.376,7.427l2.234,3.551
				c0.179,0.283,0.49,0.455,0.825,0.455c0.335,0,0.647-0.172,0.825-0.455l2.234-3.551C20.075,24.471,23.621,21.487,23.621,17.945z"
				/>
		</g>
		<g>
			<path fill="#FFFFFF" d="M40.749,12.036c0-6.233-7.498-11.286-16.748-11.286C14.752,0.749,7.253,5.803,7.253,12.036
				c0,5.187,5.194,9.557,12.267,10.878l3.272,5.201c0.262,0.415,0.718,0.667,1.208,0.667c0.49,0,0.948-0.252,1.208-0.667
				l3.272-5.201C35.555,21.594,40.749,17.224,40.749,12.036z"/>
			<path fill="none" stroke="#2C6CB5" stroke-width="1.5" stroke-miterlimit="10" d="M40.749,12.036
				c0-6.233-7.498-11.286-16.748-11.286C14.752,0.749,7.253,5.803,7.253,12.036c0,5.187,5.194,9.557,12.267,10.878l3.272,5.201
				c0.262,0.415,0.718,0.667,1.208,0.667c0.49,0,0.948-0.252,1.208-0.667l3.272-5.201C35.555,21.594,40.749,17.224,40.749,12.036z"
				/>
		</g>
	</g>
</g>
</svg>
