<?xml version="1.0" encoding="utf-8"?>
<!-- Generator: Adobe Illustrator 17.0.0, SVG Export Plug-In . SVG Version: 6.00 Build 0)  -->
<!DOCTYPE svg PUBLIC "-//W3C//DTD SVG 1.1//EN" "http://www.w3.org/Graphics/SVG/1.1/DTD/svg11.dtd">
<svg version="1.1" id="Layer_1" xmlns="http://www.w3.org/2000/svg" xmlns:xlink="http://www.w3.org/1999/xlink" x="0px" y="0px"
	 width="17.333px" height="25px" viewBox="0 0 17.333 25" enable-background="new 0 0 17.333 25" xml:space="preserve">
<g>
	<g>
		<rect x="5.667" y="-327" fill="#939292" width="3" height="7"/>
	</g>
	<g>
		<g>
			<path fill="none" stroke="#939292" stroke-width="2" stroke-miterlimit="10" d="M7.483-333.4
				c0.729-0.781,1.184-1.822,1.184-2.975c0-2.299-1.779-4.163-4.033-4.341c0.038-0.262,0.065-0.528,0.065-0.8
				c0-3.046-2.469-5.516-5.516-5.516c-3.046,0-5.516,2.469-5.516,5.516c0,0.452,0.06,0.889,0.163,1.309
				c-0.715,0.857-1.163,1.946-1.163,3.15c0,2.73,2.213,4.943,4.943,4.943c1.327,0,2.525-0.529,3.413-1.38
				c0.673,0.763,1.6,1.283,2.657,1.432c-0.052,0.199-0.089,0.404-0.089,0.619c0,1.349,1.094,2.443,2.443,2.443
				c1.349,0,2.443-1.094,2.443-2.443C8.477-332.247,8.083-332.955,7.483-333.4z"/>
		</g>
	</g>
</g>
<path fill="none" stroke="#939292" stroke-width="2" stroke-linecap="round" stroke-linejoin="round" stroke-miterlimit="10" d="
	M4.814-264c-1.267-0.621-4.148-3.556-4.148-6.097c0-6.492,5.242-8.976,5.53-14.903c4.839,4.29,5.53,10.161,5.53,10.161
	c0.576-1.016,1.383-3.387,1.383-3.387c1.21,2.484,1.901,6.153,1.383,8.129c-0.785,2.993-2.42,5.081-4.148,6.097
	c1.383-4.968-3.456-8.806-3.456-8.806S3.893-268.742,4.814-264z"/>
<path fill="none" stroke="#939292" stroke-width="2" stroke-miterlimit="10" d="M3.449-41c0,0,7.476-0.732,10.686-7.398
	c3.562-7.398,1.644-14.796,1.644-14.796S7.69-62.042,4.271-54.152C0.709-45.932,3.449-41,3.449-41z"/>
<polygon fill="none" stroke="#939292" stroke-width="2" stroke-linecap="round" stroke-linejoin="round" stroke-miterlimit="10" points="
	4.067,1 11.733,1 9.05,8.092 16.333,6.367 4.833,24 7.133,12.5 1,14.8 "/>
<g>
	<path fill="none" stroke="#939292" stroke-width="2" stroke-miterlimit="10" d="M-1.333,1038L-1.333,1038c-1.105,0-2-0.895-2-2v-10
		c0-1.105,0.895-2,2-2h0c1.105,0,2,0.895,2,2v10C0.667,1037.105-0.229,1038-1.333,1038z"/>
	<path fill="none" stroke="#939292" stroke-width="2" stroke-miterlimit="10" d="M3.667,1038L3.667,1038c-1.105,0-2-0.895-2-2v-10
		c0-1.105,0.895-2,2-2h0c1.105,0,2,0.895,2,2v10C5.667,1037.105,4.771,1038,3.667,1038z"/>
	<path fill="none" stroke="#939292" stroke-width="2" stroke-miterlimit="10" d="M8.667,1038L8.667,1038c-1.105,0-2-0.895-2-2v-10
		c0-1.105,0.895-2,2-2h0c1.105,0,2,0.895,2,2v10C10.667,1037.105,9.771,1038,8.667,1038z"/>
	<path fill="none" stroke="#939292" stroke-width="2" stroke-miterlimit="10" d="M13.667,1038L13.667,1038c-1.105,0-2-0.895-2-2v-10
		c0-1.105,0.895-2,2-2h0c1.105,0,2,0.895,2,2v10C15.667,1037.105,14.771,1038,13.667,1038z"/>
</g>
<path fill="none" stroke="#939292" stroke-width="2" stroke-linecap="round" stroke-linejoin="round" stroke-miterlimit="10" d="
	M-0.181,1021c0,0-1.906-1.832,0-3.5s0-3.5,0-3.5"/>
<path fill="none" stroke="#939292" stroke-width="2" stroke-linecap="round" stroke-linejoin="round" stroke-miterlimit="10" d="
	M12.514,1021c0,0-1.906-1.832,0-3.5s0-3.5,0-3.5"/>
<path fill="none" stroke="#939292" stroke-width="2" stroke-linecap="round" stroke-linejoin="round" stroke-miterlimit="10" d="
	M6.361,1021c0,0-1.906-1.832,0-3.5s0-3.5,0-3.5"/>
<g>
	<path fill="none" stroke="#939292" stroke-width="2" stroke-miterlimit="10" d="M12.667,1098h-12c-1.105,0-2-0.895-2-2v-13
		c0-1.105,0.895-2,2-2h6l2-2h6v17C14.667,1097.105,13.771,1098,12.667,1098z"/>
	<g>
		<rect x="7.667" y="1074" fill="#939292" width="8" height="3"/>
	</g>
	<g>
		<path fill="#939292" d="M3.467,1090c0-1.657,3.2-5,3.2-5s3.2,3.343,3.2,5s-1.433,3-3.2,3S3.467,1091.657,3.467,1090z"/>
	</g>
</g>
<g>
	<path fill="none" stroke="#939292" stroke-width="2" stroke-linecap="round" stroke-linejoin="round" stroke-miterlimit="10" d="
		M11.667,1155h-10c-1.105,0-2-0.895-2-2v-10c0-2.761,2.239-5,5-5h4c2.761,0,5,2.239,5,5v10C13.667,1154.105,12.771,1155,11.667,1155
		z"/>
	
		<rect x="1.667" y="1155" fill="none" stroke="#939292" stroke-width="2" stroke-linecap="round" stroke-linejoin="round" stroke-miterlimit="10" width="10" height="3"/>
	
		<rect x="3.667" y="1134" fill="none" stroke="#939292" stroke-width="2" stroke-linecap="round" stroke-linejoin="round" stroke-miterlimit="10" width="6" height="4"/>
	
		<line fill="none" stroke="#939292" stroke-width="2" stroke-linecap="round" stroke-linejoin="round" stroke-miterlimit="10" x1="-0.333" y1="1147" x2="13.667" y2="1147"/>
</g>
<g>
	<polygon fill="#61933F" points="7.667,2489 5.667,2489 5.667,2481.6 6.667,2480.6 7.667,2481.6 	"/>
</g>
<g>
	<g>
		<path fill="#61933F" d="M7.002,2467c1.756,0,3.185,1.429,3.185,3.185c0,0.253-0.047,0.534-0.149,0.883l-0.501,1.723l1.658,0.685
			c1.587,0.656,2.613,2.187,2.613,3.903c0,2.328-1.894,4.222-4.222,4.222c-0.741,0-1.445-0.188-2.093-0.56l-1.052-0.604
			l-1.021,0.654c-0.52,0.333-1.111,0.509-1.709,0.509c-1.756,0-3.185-1.429-3.185-3.185c0-0.799,0.309-1.569,0.87-2.168l1.122-1.198
			l-0.955-1.334c-0.142-0.198-0.214-0.417-0.214-0.649c0-0.531,0.376-0.995,0.895-1.103l1.536-0.32l0.055-1.568
			C3.894,2468.35,5.286,2467,7.002,2467 M7.002,2465c-2.802,0-5.07,2.227-5.167,5.004c-1.42,0.296-2.487,1.553-2.487,3.061
			c0,0.678,0.221,1.302,0.588,1.814c-0.869,0.927-1.411,2.165-1.411,3.536c0,2.864,2.321,5.185,5.185,5.185
			c1.029,0,1.982-0.309,2.788-0.825c0.911,0.522,1.963,0.825,3.088,0.825c3.436,0,6.222-2.786,6.222-6.222
			c0-2.596-1.591-4.818-3.85-5.751c0.134-0.461,0.229-0.938,0.229-1.442C12.187,2467.321,9.866,2465,7.002,2465L7.002,2465z"/>
	</g>
</g>
<path fill="#939292" d="M1.026-48.324c0,0-0.346-3.225,0.707-6.056c0.823-2.21,1.975-3.365,1.975-3.365
	C0.68-61.671-3.947-62-3.947-62s-1,5.397,1.925,10.516C-1.194-50.034-0.094-49.026,1.026-48.324"/>
<g>
	<path fill="none" stroke="#939292" stroke-width="2" stroke-linecap="round" stroke-linejoin="round" stroke-miterlimit="10" d="
		M16.667-208h-16c-0.552,0-1-0.448-1-1l0-4c0-1.105,0.895-2,2-2h0l0.839-4.196C2.599-219.664,3.01-220,3.486-220h10.36
		c0.477,0,0.887,0.336,0.981,0.804L15.667-215l0,0c1.105,0,2,0.895,2,2v4C17.667-208.448,17.219-208,16.667-208z"/>
	
		<line fill="none" stroke="#939292" stroke-width="2" stroke-linecap="round" stroke-linejoin="round" stroke-miterlimit="10" x1="1.667" y1="-215" x2="15.667" y2="-215"/>
	<path fill="#939292" d="M2.667-205h-1c-0.552,0-1-0.448-1-1v-3h3v3C3.667-205.448,3.219-205,2.667-205z"/>
	<path fill="#939292" d="M15.667-205h-1c-0.552,0-1-0.448-1-1v-3h3v3C16.667-205.448,16.219-205,15.667-205z"/>
	<path fill="#939292" d="M14.167-213L14.167-213c0.828,0,1.5,0.672,1.5,1.5l0,0c0,0.828-0.672,1.5-1.5,1.5h0
		c-0.828,0-1.5-0.672-1.5-1.5l0,0C12.667-212.328,13.338-213,14.167-213z"/>
	<path fill="#939292" d="M3.167-213L3.167-213c0.828,0,1.5,0.672,1.5,1.5l0,0c0,0.828-0.672,1.5-1.5,1.5h0
		c-0.828,0-1.5-0.672-1.5-1.5l0,0C1.667-212.328,2.338-213,3.167-213z"/>
</g>
<g>
	<path fill="none" stroke="#61933F" stroke-width="2" stroke-miterlimit="10" d="M14.667,2362h-16c-0.552,0-1-0.448-1-1l0-4
		c0-1.104,0.895-2,2-2h0l0.839-4.196c0.093-0.468,0.504-0.804,0.981-0.804h10.36c0.477,0,0.887,0.336,0.981,0.804l0.839,4.196l0,0
		c1.105,0,2,0.896,2,2v4C15.667,2361.552,15.219,2362,14.667,2362z"/>
	<line fill="none" stroke="#61933F" stroke-width="2" stroke-miterlimit="10" x1="-0.333" y1="2355" x2="13.667" y2="2355"/>
	<path fill="#61933F" d="M0.667,2365h-1c-0.552,0-1-0.448-1-1v-3h3v3C1.667,2364.552,1.219,2365,0.667,2365z"/>
	<path fill="#61933F" d="M13.667,2365h-1c-0.552,0-1-0.448-1-1v-3h3v3C14.667,2364.552,14.219,2365,13.667,2365z"/>
	<path fill="#61933F" d="M12.167,2357L12.167,2357c0.828,0,1.5,0.672,1.5,1.5l0,0c0,0.828-0.672,1.5-1.5,1.5h0
		c-0.828,0-1.5-0.672-1.5-1.5l0,0C10.667,2357.672,11.338,2357,12.167,2357z"/>
	<path fill="#61933F" d="M1.167,2357L1.167,2357c0.828,0,1.5,0.672,1.5,1.5l0,0c0,0.828-0.672,1.5-1.5,1.5h0
		c-0.828,0-1.5-0.672-1.5-1.5l0,0C-0.333,2357.672,0.338,2357,1.167,2357z"/>
</g>
<path fill="none" stroke="#61933F" stroke-width="2" stroke-linecap="round" stroke-linejoin="round" stroke-miterlimit="10" d="
	M3.814,2427.585c-1.267-0.621-4.148-3.141-4.148-5.682c0-6.492,5.242-8.976,5.53-14.903c4.839,4.29,5.53,10.161,5.53,10.161
	c0.576-1.016,1.383-3.387,1.383-3.387c1.21,2.484,1.901,6.153,1.383,8.129c-0.785,2.993-2.42,5.081-4.148,6.097
	c1.383-4.968-3.456-8.806-3.456-8.806S2.893,2422.843,3.814,2427.585z"/>
</svg>
