<?xml version="1.0" encoding="utf-8"?>
<!-- Generator: Adobe Illustrator 17.0.0, SVG Export Plug-In . SVG Version: 6.00 Build 0)  -->
<!DOCTYPE svg PUBLIC "-//W3C//DTD SVG 1.1//EN" "http://www.w3.org/Graphics/SVG/1.1/DTD/svg11.dtd">
<svg version="1.1" id="Layer_1" xmlns="http://www.w3.org/2000/svg" xmlns:xlink="http://www.w3.org/1999/xlink" x="0px" y="0px"
	 width="15px" height="15px" viewBox="0 0 15 15" enable-background="new 0 0 15 15" xml:space="preserve">
<path fill="#FFFFFF" d="M7.5,0C3.358,0,0,3.358,0,7.5S3.358,15,7.5,15S15,11.642,15,7.5S11.642,0,7.5,0z M13.007,4.064
	c-0.932-0.031-2.069,1.046-2.636,0.997C9.687,5.002,9.39,4.173,9.806,4.055c0.26-0.074,0.125-0.345-0.013-0.537
	c-0.111-0.155-0.087-0.37,0.061-0.492c0.355-0.294,1.025-0.58,1.501-0.747C12.012,2.765,12.573,3.37,13.007,4.064z M8.624,1.941
	C8.593,1.767,8.642,1.587,8.759,1.453l0.237-0.272c0.655,0.155,1.27,0.409,1.832,0.746c-0.49,0.238-1.087,0.51-1.349,0.559
	C9.304,2.519,9.104,2.451,8.922,2.353C8.766,2.268,8.656,2.116,8.624,1.941z M1,7.5c0-3.09,2.17-5.679,5.065-6.335
	C6.089,1.285,6.106,1.404,6.1,1.519C6.067,2.063,5.326,5.232,2.715,6.103c-0.13,0.043-0.251,0.077-0.37,0.108
	C2.47,6.508,2.862,6.812,3.204,6.926C3.65,7.074,5.345,6.689,6.118,7.578c0.773,0.888,0.993,2.596,0.654,3.848
	c-0.2,0.741-0.845,1.519-1.428,2.2C2.818,12.733,1,10.328,1,7.5z M11.371,12.709c0.115-0.873,0.229-1.872,0.189-2.112
	c-0.238-1.421-1.058-0.474-2.23-1.776c-1.172-1.303-0.148-2.546,1.279-3.049c0.974-0.343,2.417,0.06,3.237,0.351
	c-0.053-0.265-0.137-0.518-0.218-0.771C13.864,6.025,14,6.746,14,7.5C14,9.633,12.963,11.523,11.371,12.709z"/>
</svg>
