<?xml version="1.0" encoding="utf-8"?>
<!-- Generator: Adobe Illustrator 17.0.0, SVG Export Plug-In . SVG Version: 6.00 Build 0)  -->
<!DOCTYPE svg PUBLIC "-//W3C//DTD SVG 1.1//EN" "http://www.w3.org/Graphics/SVG/1.1/DTD/svg11.dtd">
<svg version="1.1" id="Layer_1" xmlns="http://www.w3.org/2000/svg" xmlns:xlink="http://www.w3.org/1999/xlink" x="0px" y="0px"
	 width="125.018px" height="17.677px" viewBox="0 0 125.018 17.677" enable-background="new 0 0 125.018 17.677"
	 xml:space="preserve">
<g>
	<path fill="#DFDFDE" d="M66.237,9.813c-0.235-0.177-0.518-0.297-0.848-0.343c-0.33-0.046-0.693-0.076-1.088-0.076h-2.808
		c-0.281,0-0.505-0.018-0.675-0.069c-0.169-0.051-0.298-0.121-0.389-0.218c-0.09-0.096-0.087-0.212-0.115-0.349
		c-0.03-0.137,0.02-0.294,0.02-0.477V7.957c0-0.251-0.038-0.454,0.01-0.608c0.05-0.153,0.11-0.273,0.248-0.359
		c0.136-0.085,0.309-0.169,0.552-0.204c0.242-0.033,0.539-0.075,0.919-0.075h1.855c0.289,0,0.546,0.033,0.773,0.05
		c0.226,0.017,0.416,0.08,0.569,0.166c0.153,0.085,0.257,0.228,0.336,0.416c0.078,0.189,0.106,0.454,0.106,0.785V8.32h1.074v-0.57
		c0-0.308-0.061-0.596-0.123-0.864c-0.062-0.268-0.204-0.499-0.393-0.693c-0.19-0.194-0.472-0.31-0.83-0.425
		c-0.36-0.113-0.848-0.133-1.449-0.133h-1.633c-0.66,0-1.196,0.011-1.609,0.108C60.326,5.842,60,5.964,59.76,6.153
		c-0.238,0.189-0.344,0.41-0.429,0.684C59.245,7.11,59.26,7.414,59.26,7.769v0.513c0,0.832,0.095,1.492,0.404,1.852
		c0.31,0.36,0.781,0.603,1.532,0.603h3.278c0.321,0,0.578-0.036,0.766,0.022c0.19,0.058,0.335,0.107,0.434,0.216
		c0.099,0.109,0.189,0.229,0.221,0.395c0.033,0.166,0.074,0.335,0.074,0.541v0.069c0,0.33-0.059,0.587-0.129,0.769
		c-0.07,0.183-0.199,0.32-0.361,0.41c-0.159,0.092-0.381,0.177-0.653,0.2c-0.274,0.022-0.614,0.062-1.009,0.062h-2.277
		c-0.544,0-0.92-0.145-1.147-0.379c-0.227-0.233-0.33-0.652-0.33-1.2v-0.3h-1.074v0.402c0,0.65,0.117,1.156,0.285,1.514
		c0.17,0.359,0.413,0.619,0.697,0.779c0.284,0.16,0.616,0.221,0.98,0.249c0.362,0.029,0.749,0.009,1.145,0.009h1.955
		c0.32,0,0.655,0.018,1.002-0.016c0.345-0.035,0.662-0.118,0.946-0.284c0.285-0.164,0.548-0.406,0.734-0.744
		c0.186-0.336,0.308-0.806,0.308-1.421v-0.033c0-0.594-0.095-1.062-0.228-1.403C66.684,10.249,66.472,9.99,66.237,9.813z"/>
	<path fill="#DFDFDE" d="M72.059,13.355l-3.056-7.718h-1.2l3.575,8.857h0.261c-0.141,0.537-0.275,0.827-0.403,1.077
		c-0.127,0.253-0.283,0.46-0.463,0.591c-0.182,0.13-0.359,0.222-0.624,0.256c-0.263,0.035-0.688,0.06-0.957,0.06v1.199
		c0.537-0.012,0.947-0.046,1.298-0.103c0.35-0.057,0.621-0.165,0.857-0.325c0.235-0.16,0.419-0.379,0.575-0.659
		c0.158-0.28,0.312-0.672,0.478-1.117l3.557-9.835h-1.15L72.059,13.355z"/>
	<path fill="#DFDFDE" d="M83.954,9.813c-0.234-0.177-0.518-0.297-0.848-0.343c-0.33-0.046-0.694-0.076-1.088-0.076h-2.809
		c-0.282,0-0.506-0.018-0.675-0.069c-0.169-0.051-0.299-0.121-0.389-0.218c-0.091-0.096-0.089-0.212-0.117-0.349
		C78,8.622,78.048,8.464,78.048,8.282V7.957c0-0.251-0.037-0.454,0.012-0.608c0.049-0.153,0.111-0.273,0.246-0.359
		c0.136-0.085,0.311-0.169,0.553-0.204c0.244-0.033,0.539-0.075,0.92-0.075h1.855c0.289,0,0.547,0.033,0.774,0.05
		c0.227,0.017,0.416,0.08,0.568,0.166c0.153,0.085,0.257,0.228,0.335,0.416c0.079,0.189,0.106,0.454,0.106,0.785V8.32h1.074v-0.57
		c0-0.308-0.061-0.596-0.123-0.864c-0.062-0.268-0.202-0.499-0.392-0.693c-0.189-0.194-0.471-0.31-0.83-0.425
		c-0.358-0.113-0.848-0.133-1.45-0.133h-1.631c-0.662,0-1.197,0.011-1.609,0.108c-0.413,0.098-0.738,0.22-0.977,0.408
		c-0.24,0.189-0.345,0.41-0.431,0.684c-0.087,0.274-0.072,0.578-0.072,0.932v0.513c0,0.832,0.096,1.492,0.406,1.852
		c0.31,0.36,0.782,0.603,1.532,0.603h3.278c0.323,0,0.579-0.036,0.768,0.022c0.19,0.058,0.333,0.107,0.431,0.216
		c0.1,0.109,0.188,0.229,0.222,0.395c0.034,0.166,0.072,0.335,0.072,0.541v0.069c0,0.33-0.059,0.587-0.128,0.769
		c-0.07,0.183-0.199,0.32-0.359,0.41c-0.16,0.092-0.383,0.177-0.655,0.2c-0.272,0.022-0.612,0.062-1.008,0.062h-2.277
		c-0.544,0-0.921-0.145-1.147-0.379c-0.227-0.233-0.332-0.652-0.332-1.2v-0.3h-1.074v0.402c0,0.65,0.117,1.156,0.287,1.514
		c0.169,0.359,0.412,0.619,0.696,0.779c0.285,0.16,0.617,0.221,0.981,0.249c0.362,0.029,0.748,0.009,1.147,0.009h1.955
		c0.32,0,0.654,0.018,1.002-0.016c0.344-0.035,0.661-0.118,0.947-0.284c0.283-0.164,0.547-0.406,0.733-0.744
		c0.186-0.336,0.306-0.806,0.306-1.421v-0.033c0-0.594-0.093-1.062-0.225-1.403C84.4,10.249,84.188,9.99,83.954,9.813z"/>
	<rect x="87.71" y="12.346" fill="#DFDFDE" width="1.342" height="2.147"/>
	<path fill="#DFDFDE" d="M98.983,11.532c0,0.355-0.05,0.648-0.145,0.882c-0.095,0.233-0.228,0.421-0.397,0.563
		c-0.169,0.144-0.363,0.272-0.582,0.328c-0.219,0.059-0.452,0.114-0.7,0.114h-1.793c-0.322,0-0.615-0.062-0.878-0.13
		c-0.265-0.068-0.492-0.205-0.681-0.383c-0.191-0.176-0.27-0.425-0.372-0.733c-0.104-0.309-0.089-0.715-0.089-1.205V9.137
		c0-0.547-0.013-0.978,0.094-1.292c0.107-0.313,0.218-0.551,0.4-0.71c0.181-0.16,0.372-0.286,0.608-0.332
		c0.236-0.046,0.46-0.093,0.707-0.093h1.955c0.264,0,0.506,0.05,0.724,0.101c0.218,0.051,0.403,0.155,0.555,0.286
		c0.153,0.132,0.329,0.319,0.412,0.554c0.082,0.234,0.181,0.539,0.181,0.904v0.302h0.805V8.52c0-0.924-0.178-1.609-0.603-2.135
		c-0.423-0.525-1.097-0.749-2.087-0.749h-1.782c-0.387,0-0.77-0.004-1.15,0.065c-0.379,0.068-0.718,0.206-1.015,0.451
		c-0.295,0.246-0.475,0.592-0.662,1.061c-0.185,0.467-0.217,1.085-0.217,1.872v1.952c0,0.786,0.032,1.414,0.217,1.881
		c0.187,0.469,0.384,0.826,0.657,1.07c0.271,0.246,0.545,0.369,0.85,0.438c0.304,0.068,0.561,0.068,0.801,0.068h2.399
		c0.496,0,0.918-0.025,1.269-0.137c0.35-0.115,0.636-0.277,0.86-0.523c0.222-0.244,0.43-0.553,0.533-0.94
		c0.102-0.388,0.197-0.849,0.197-1.396v-0.226h-1.074V11.532z"/>
	<path fill="#DFDFDE" d="M108.907,6.254c-0.309-0.268-0.677-0.412-1.106-0.509c-0.429-0.097-0.896-0.108-1.399-0.108h-1.522
		c-0.503,0-0.969,0.011-1.398,0.108c-0.428,0.098-0.798,0.26-1.108,0.529c-0.308,0.268-0.546,0.621-0.719,1.077
		c-0.174,0.457-0.256,1.034-0.256,1.754v1.916c0,0.718,0.083,1.306,0.256,1.763c0.173,0.455,0.413,0.818,0.721,1.087
		c0.309,0.266,0.679,0.416,1.107,0.513c0.429,0.096,0.894,0.111,1.397,0.111h1.522c0.503,0,0.969-0.014,1.399-0.111
		c0.429-0.098,0.797-0.264,1.106-0.53c0.31-0.269,0.599-0.623,0.772-1.078c0.173-0.457,0.309-1.037,0.309-1.755V9.103
		c0-0.72-0.136-1.307-0.309-1.763C109.505,6.884,109.216,6.522,108.907,6.254z M108.914,10.933c0,0.513-0.095,0.927-0.198,1.241
		c-0.104,0.314-0.27,0.559-0.454,0.736c-0.186,0.176-0.42,0.325-0.68,0.387c-0.259,0.062-0.552,0.122-0.857,0.122h-2.166
		c-0.312,0-0.598-0.06-0.854-0.122c-0.255-0.062-0.478-0.197-0.663-0.373c-0.184-0.177-0.32-0.43-0.422-0.743
		c-0.105-0.314-0.147-0.734-0.147-1.248V9.188c0-0.513,0.042-0.926,0.147-1.24c0.103-0.314,0.243-0.558,0.427-0.736
		c0.185-0.177,0.405-0.32,0.66-0.383c0.256-0.062,0.539-0.119,0.852-0.119h2.166c0.306,0,0.588,0.056,0.847,0.119
		c0.261,0.063,0.483,0.194,0.669,0.371c0.185,0.178,0.372,0.428,0.476,0.742c0.104,0.314,0.198,0.733,0.198,1.246V10.933z"/>
	<path fill="#DFDFDE" d="M124.252,6.352c-0.492-0.502-1.194-0.715-2.05-0.715h-1.289c-0.545,0-1.021,0.082-1.428,0.321
		c-0.409,0.24-0.712,0.638-0.91,1.231c-0.165-0.548-0.426-0.924-0.78-1.187c-0.355-0.262-0.776-0.365-1.262-0.365h-1.72
		c-0.536,0-0.966,0.035-1.292,0.194c-0.327,0.16-0.601,0.342-0.824,0.879h-0.027V5.636h-1.074v8.857h1.074V8.949
		c0-0.708,0.199-1.274,0.521-1.65c0.322-0.376,0.862-0.589,1.548-0.589h1.063c0.421,0,0.768,0.07,1.039,0.161
		c0.273,0.091,0.486,0.244,0.638,0.431c0.153,0.189,0.201,0.441,0.259,0.742c0.057,0.303,0.031,0.671,0.031,1.093v5.357h1.074V9.257
		c0-0.353,0.074-0.681,0.119-0.984c0.045-0.302,0.169-0.565,0.321-0.788c0.154-0.222,0.386-0.423,0.675-0.554
		c0.289-0.132,0.685-0.221,1.164-0.221h0.755c0.419,0,0.762,0.081,1.027,0.195c0.263,0.114,0.469,0.275,0.618,0.458
		c0.147,0.182,0.273,0.4,0.322,0.638c0.05,0.239,0.099,0.491,0.099,0.742v5.751h1.074V8.572
		C125.018,7.568,124.743,6.853,124.252,6.352z"/>
	<polygon fill="#DFDFDE" points="16.853,8.32 23.026,8.32 23.026,6.442 16.853,6.442 16.853,2.147 23.831,2.147 23.831,0 14.705,0 
		14.705,15.03 24.099,15.03 24.099,12.883 16.853,12.883 	"/>
	<path fill="#DFDFDE" d="M35.105,8.357c-0.283,0.669-0.635,1.616-1.049,2.77c-0.369-1.026-0.72-1.985-1.047-2.781L29.582,0h-3.067
		v15.03h2.416V7.805c0-1.248-0.042-2.601-0.098-4.039c0.335,0.889,0.662,1.728,0.99,2.507l3.655,8.757h1.157l3.662-8.756
		c0.32-0.753,0.614-1.593,0.958-2.509c-0.056,1.471-0.125,2.825-0.125,4.039v7.226h2.416V0h-3.013L35.105,8.357z"/>
	<path fill="#DFDFDE" d="M49.033,0l-6.027,15.03h2.446l1.705-4.294h5.598l1.704,4.294h2.467L50.899,0H49.033z M51.925,8.589h-3.938
		l0.388-0.992c0.514-1.297,1.048-2.72,1.592-4.234c0.543,1.555,1.057,2.948,1.564,4.237L51.925,8.589z"/>
	<path fill="#DFDFDE" d="M9.974,0.468c-0.697-0.192-1.489-0.29-2.353-0.29c-2.218,0-4.062,0.708-5.48,2.105
		C0.72,3.681,0,5.471,0,7.604c0,2.203,0.707,4.018,2.102,5.393c1.395,1.373,3.245,2.07,5.499,2.07c0.698,0,1.456-0.111,2.255-0.33
		c0.801-0.222,1.482-0.51,2.049-0.856l0.116-0.078v-2.674l-0.425,0.356c-0.592,0.482-1.223,0.847-1.891,1.085
		c-0.666,0.239-1.379,0.36-2.126,0.36c-1.536,0-2.804-0.5-3.771-1.485C2.841,10.456,2.35,9.165,2.35,7.604
		c0-1.54,0.513-2.82,1.525-3.803c1.015-0.986,2.349-1.486,3.962-1.486c0.658,0,1.305,0.118,1.923,0.351
		c0.622,0.234,1.233,0.592,1.84,1.065l0.42,0.337V1.451l-0.104-0.08C11.321,0.965,10.676,0.661,9.974,0.468z"/>
</g>
</svg>
